<?xml version="1.0" standalone="no"?>
<!DOCTYPE svg PUBLIC "-//W3C//DTD SVG 1.1//EN" "http://www.w3.org/Graphics/SVG/1.1/DTD/svg11.dtd" >
<svg xmlns="http://www.w3.org/2000/svg" xmlns:xlink="http://www.w3.org/1999/xlink" version="1.1">
<metadata>
Created by FontForge 20170731 at Tue May 11 13:04:55 2021
 By Aleksey,,,
Copyright 2021 Lipighor. All Rights Reserved.
</metadata>
<defs>
<font id="LiZahirRayhanUnicode" horiz-adv-x="0" >
  <font-face 
    font-family="Li Zahir Rayhan Unicode"
    font-weight="400"
    font-stretch="normal"
    units-per-em="1000"
    panose-1="2 0 6 0 0 0 0 0 0 0"
    ascent="800"
    descent="-200"
    x-height="496"
    cap-height="645"
    bbox="-615 -342 1617 1002"
    underline-thickness="40"
    underline-position="-160"
    unicode-range="U+0020-FDFA"
  />
<missing-glyph horiz-adv-x="599" 
d="M397 440h-61l-155 -54v-316h216v139h-77v-67h-58v198l58 19v-88h77v68l60 20v-200l16 -89h66v370h-64l-78 -26v26zM463 511v-44h76v120h-266l-213 -62v-455h86v397l94 30zM599 10h-599v637h599v-637z" />
    <glyph glyph-name="anji_beng" unicode="&#x9ed;&#x983;&#x983;" horiz-adv-x="392" 
d="M367 0q-63 0 -99 39q-31 32 -37 68q-3 18 -3 392q-15 -2 -37 -20q-45 -37 -45 -109q0 -10 1.5 -15.5t3.5 -8t3 -2.5q15 -8 40 -8l24 1q-7 -123 -52 -123h-4q-47 6 -80 31q-59 39 -59 125q0 117 85 199q61 54 126 54q55 -5 86 -39t31 -78q0 -374 1 -376q4 -7 15 -7v-123z
" />
    <glyph glyph-name="glyph112" unicode="&#x3c;&#x3c;" horiz-adv-x="564" 
d="M362 293q-59 0 -99 48q-25 30 -25 68t26 71q-10 -2 -22 -2q-38 0 -83 31l-17 12q-33 22 -50 22q-13 0 -26 -11l-25 31l57 48q86 70 145 70q38 0 79 -24q-3 13 -3 25q1 45 31 69q21 18 50 18q11 0 23 -2q43 -10 73 -47q25 -30 45 -88l-36 -8q-7 22 -17 34q-20 24 -40 24
q-13 0 -26 -10q-16 -13 -16 -36q0 -4 5 -9t20 -5h143v-123h-180l-12 1q-27 0 -39 -6q-17 -14 -17 -38q0 -21 14 -37q20 -25 53 -25q22 0 39 14q25 20 25 68l38 -3q3 -19 3 -36q0 -69 -53 -113q-38 -31 -83 -31zM324 564q24 0 42 9q-64 68 -126 68q-46 0 -91 -37q9 3 18 3
q22 0 49 -12l12 -6q56 -25 96 -25z" />
    <glyph glyph-name="glyph113" unicode="&#x3e;&#x3e;" horiz-adv-x="564" 
d="M214 293h-12q-45 0 -84 31q-53 44 -53 113q0 17 4 36l38 3q0 -48 25 -68q17 -14 39 -14q33 0 53 25q14 16 14 37q-1 24 -17 38q-13 6 -39 6q-5 0 -8.5 -0.5t-183.5 -0.5v123h143q15 0 20 5t5 9q-1 23 -17 36q-13 10 -26 10q-19 0 -39 -24q-10 -12 -17 -34l-36 8
q20 58 45 88q30 37 73 47q12 2 23 2q28 0 50 -18q30 -24 30 -69q0 -12 -2 -25q41 24 79 24q58 0 145 -70l57 -48l-25 -31q-14 11 -27 11q-16 0 -49 -22l-17 -12q-45 -31 -84 -31q-11 0 -22 2q26 -33 27 -71q0 -38 -25 -68q-36 -43 -87 -48zM240 564q40 0 96 25l12 6
q27 12 48 12q10 0 19 -3q-45 37 -91 37q-62 0 -126 -68q18 -9 42 -9z" />
    <glyph glyph-name="signavagraha_beng" unicode="&#x9b9;&#x983;&#x983;" horiz-adv-x="451" 
d="M345 -29q-5 6 -36.5 36.5t-81.5 64.5t-111 51q-80 17 -116 78l107 61q7 -11 25 -16l10 -2q13 -3 28 -3q17 0 35 3q57 9 77 23.5t22 27.5l2 14q0 21 -13 41.5t-33 37.5q-9 -31 -32 -53q-35 -29 -77 -29q-37 0 -69 23q-44 40 -44 94q0 22 8 43q8 18 20 33h-76v123h155
l172 -123q36 -25 62 -58q49 -63 49 -130q0 -24 -6 -47q-12 -43 -38 -70t-57 -42q45 -34 74 -62t36 -37l2 -2z" />
    <glyph glyph-name="isshar_beng" unicode="&#x988;&#x983;&#x983;" horiz-adv-x="513" 
d="M190 316q-37 0 -73 19q-68 34 -94 102l94 54q35 -47 73.5 -55t76.5 26t123 238h109l-122 -254q-32 -65 -104 -106q-42 -24 -83 -24zM258 489q-19 -19 -47.5 -18t-49.5 22t-22 49t19 48q19 19 47 17.5t49 -21.5q21 -21 22 -49.5t-18 -47.5z" />
    <glyph glyph-name="sallallahoualayhewasallam_arab.isol" unicode="&#x9b8;&#x9be;&#x983;&#x983;" horiz-adv-x="1658" arabic-form="isolated" 
d="M963 490q-23 0 -46 22q-15 15 -16 44q0 44 43 61q20 8 40 8q26 0 48 -14q7 -5 9 -10q3 7 13 11q14 7 21 7q12 0 24 -3v76q-14 7 -24 7q-16 0 -22 -24l1 -16h-57q0 46 -31 46q-9 0 -18 -3q22 -3 32 -19q4 -6 4 -17t-9 -25q-11 -14 -30 -14q-29 0 -54 26q-17 17 -18 41
q0 39 52 60q20 8 40 8q27 0 49 -14q7 -4 12 -10q23 18 49 18q12 0 24 -3v15h-256v-233h-57v209q0 9 -4 14q-6 10 -13 10h-22v-265h-57v52q-3 6 -15 6q-15 0 -22 -23l1 -16h-48q0 30 -15 41q-7 5 -17 5q-8 0 -17 -4q23 -3 32 -18q5 -6 5 -17t-9 -25q-12 -14 -31 -14
q-24 0 -46 22q-15 15 -16 44q0 44 42 61q21 8 41 8q26 0 48 -14q7 -5 9 -10q2 7 13 11q14 7 21 7q11 0 24 -3v76q-15 7 -24 7q-16 0 -22 -24l1 -16h-57q0 46 -32 46q-8 0 -18 -3q23 -3 32 -19q5 -6 5 -17t-9 -25q-12 -14 -31 -14q-29 0 -54 26q-16 17 -17 41q0 39 52 60
q20 8 40 8q26 0 48 -14q7 -4 12 -10q24 18 50 18q11 0 24 -3v15h-256v-233h-58v209q0 9 -3 14q-6 10 -14 10h-21v-233h-58v105q-33 32 -51 32q-8 -1 -14 -9q12 -22 12 -41q0 -13 -5 -27q-14 -35 -58 -47q-15 -4 -33 -4q-30 0 -65 11l18 55q29 -8 47 -8q17 0 28 5t11 14
q0 17 -27 30q-61 29 -63 82q0 19 8 35h-32v58h306q3 0 8.5 -3t5.5 -7v17h58v-7h337q3 0 8.5 -3t6.5 -7v17h57v-7h338q3 0 8.5 -3t5.5 -7v17h57v-7h258v-58h-57q16 -18 22 -26q20 -29 20 -63t-24 -64q-15 -19 -29 -32q47 -12 79 -49l-44 -38q-9 12 -43 27t-94 15l-6 52l24 6
q2 0 22 12t47 43q11 14 11 28l-1 8l-25 -24l-31 2q-8 18 -15.5 36t-16.5 18t-9 -18q0 -8 2 -16q12 0 21 -7q21 -17 21 -35q0 -10 -3 -14q-6 -18 -30 -18q-33 0 -54 34q-15 26 -15 54q0 49 35 69h-65v-233h-57v209q0 9 -3 14q-6 10 -14 10h-21v-265h-58v52q-3 6 -14 6
q-16 0 -22 -23l1 -16h-48q0 30 -16 41q-7 5 -16 5q-8 0 -18 -4q23 -3 32 -18q5 -6 5 -17t-9 -25q-12 -14 -31 -14zM1410 741q13 14 27 27h-55q15 -8 28 -27zM172 701q13 17 37 26q10 2 20 2q25 0 51 -16v55h-123q-20 -19 -20 -36q1 -10 12 -18zM1426 157q-2 3 -15.5 16
t-35.5 28t-49 22q-34 8 -50 34l47 27q5 -9 27 -9l15 1q25 4 34 10.5t9.5 10.5t0.5 7q0 17 -20 35q-4 -14 -14 -23q-15 -13 -33 -13q-16 0 -30 10q-20 17 -20 41q0 20 13 33h-47v-217h-54v217h-76q16 -10 27 -25q21 -28 21 -57q0 -47 -44 -69q22 -16 34.5 -29t14.5 -15
q-11 -10 -19 -15l-10 -10q-4 -2 -12 -10q-2 3 -15.5 16.5t-35.5 28t-49 22.5q-35 7 -50 34l46 26q7 -9 27 -9l16 1q25 4 34.5 11.5t9.5 17.5q0 18 -20 34q-4 -13 -14 -23q-15 -13 -33 -13q-16 0 -30 10q-20 17 -20 41q0 19 12 33h-46v-217h-54v194q0 9 -3 14q-5 9 -12 9h-20
v-217h-54v115q-14 11 -24 11q-6 -3 -11.5 -16.5t-7.5 -28.5q1 -12 1 -25h-54q0 36 -7 55q-9 24 -22 24q-6 0 -14 -5q-19 -11 -19 -24l1 -3q15 0 25 -2.5t18 -11.5l4.5 -9t2.5 -13q0 -10 -6 -23q-11 -19 -31 -19q-22 0 -43 22q-17 19 -22 44q-2 8 -2 15q0 42 44 71
q21 12 42 12q17 0 32 -8t25 -23q19 22 46 22q11 0 22 -4v41h-239v-217h-54v194q0 9 -3 14q-5 9 -12 9h-20v-217h-54v29h-1q0 2 -6 12q-11 20 -33 35q-30 -40 -78 -47l-11 -1q-36 0 -66 20t-47 47q-24 39 -24 86q0 87 81 168l38 -38q-20 -20 -34 -40h257q3 0 8 -3t5 -7v17h54
v-7h315q3 0 8 -3t5 -7v17h54v-7h135q-9 9 -22 9q-17 -2 -31 -2q-51 0 -72 28l-7 11q18 3 28 17q3 7 3 15l-1 8l5 1q1 -4 2 -5t1 -4l2 -1q2 -1 8 -1l2 -9q7 -7 28 -7q10 0 26 3q9 0 28 -3q44 -10 57 -60h40v1l-32 49l4 13l9 17q3 5 3 7l3 4v-7l69 2v51l1 1q12 3 24 3
q14 0 30 -8l10 -4l8 -39q48 -3 57.5 -5t19.5 -7q6 -3 10 -4.5t20 -17.5l-37 -37q-71 68 -118 68l-12 -1q-27 -7 -40 -31l25 -37v-18h219v-54h-63q16 -11 27 -25q21 -28 21 -57q0 -10 -2 -20q-9 -35 -42 -49q36 -27 48 -43l1 -1zM323 252q32 5 48 39q4 8 4 21q0 9 -5 19
l-1 -2q-6 -22 -24 -34q-13 -9 -28 -9l-7 1q-34 7 -42 45q-2 5 -2 11q0 28 20 44h-46v-1q-5 -14 -5 -35q0 -54 44 -86q18 -13 39 -13h5zM447 283v104h-58q11 -6 20 -17q18 -23 20 -59q0 -8 -2 -15q10 -5 20 -13zM203 -179q-36 0 -73 17q-89 44 -89 163q0 61 15 103v1l51 -16
v-1q-1 -4 -7 -29t-6 -58q0 -22 5 -44t18 -40.5t37.5 -30.5t48.5 -12q22 0 41 12t24 31q-12 -6 -22 -6t-23 6q-27 15 -27 42q1 21 15 35.5t33 15.5l12 -1q4 13 4 18q0 13 -9 24q-13 17 -39 17q-31 0 -47 -25l-5 -9q12 -2 26 -18q10 -14 10 -28q0 -9 -4 -17q-10 -20 -35 -21
q-29 0 -49 34q-6 12 -6 28q0 25 13 51q31 59 97 59q47 0 80 -36q22 -28 22 -60q0 -13 -4 -25l-7 -22q19 -23 19 -54q0 -24 -13 -46.5t-37 -38.5q-32 -19 -69 -19zM409 -190q-15 0 -25.5 11t-10.5 26t10.5 26t25.5 11t26 -11t11 -26t-11 -26t-26 -11zM1094 -199q-22 0 -43 21
q-14 14 -15 41q0 41 39 57q20 7 38 7q25 0 45 -13q7 -4 9 -10q2 7 11 11q14 6 20 6q11 0 23 -3v72q-14 6 -23 6q-15 0 -20 -22l1 -15h-54q0 43 -29 43q-8 0 -17 -3q21 -3 30 -17q4 -6 4 -16q0 -11 -8 -24q-11 -13 -29 -13q-27 0 -50 25q-15 15 -16 37q0 37 48 57q19 7 38 7
q24 0 45 -13q6 -4 11 -9q22 17 46 17q11 0 23 -3v14h-239v-218h-54v195q0 9 -3 14q-6 9 -13 9h-20v-218h-53v99q-32 29 -48 29q-8 -1 -13 -9q11 -20 11 -38q0 -12 -5 -24q-13 -33 -54 -45q-14 -4 -30 -4q-28 0 -61 11l17 51q26 -8 44 -8q15 0 25 5t10 14q0 16 -24 28
q-58 26 -59 76q0 18 7 33h-43v-218h-54v195q0 9 -3 14q-6 9 -12 9h-20v-218h-54q-2 13 -12 29q-17 26 -65 31l-29 2l-7 12q-6 7 -7.5 10.5t-9.5 16.5l59 54l-51 63h-23v54h221q3 0 8 -3t5 -7v17h54v-7h299q3 0 8 -3t5 -7v17h54v-7h315q3 0 8 -3t5 -7v17h54v-7h253v-54h-22
v-218h-53v69l-15 23q-21 28 -37 31q-14 0 -28 -18q-8 -11 -8 -19q0 -4 1 -7v-1q15 13 33 13q7 0 14 -3.5t12.5 -11t5.5 -17.5q-4 -36 -38 -43l-10 -1q-18 0 -35 9.5t-27.5 25t-10.5 36.5q0 22 15 44q-26 19 -28 50q0 18 12 38h-34v-218h-54v195q0 9 -3 14q-6 9 -13 9h-20
v-248h-53v49q-3 6 -14 6q-14 0 -20 -22l1 -15h-45q0 28 -15 39q-6 4 -15 4q-7 0 -16 -4q21 -2 29 -17q5 -5 5 -16q0 -10 -8 -23q-11 -13 -29 -13zM473 -64v125h-53l42 -50v-32l-31 -27q27 -8 42 -16zM738 -2q11 16 34 24q9 2 18 2q24 0 49 -14v51h-115q-19 -18 -19 -34
q1 -9 9.5 -15.5t23.5 -13.5zM1542 -2v63h-69q-5 -3 -18 -15q-15 -16 -15 -23q0 -5 15 -11q19 8 33 8q29 -2 54 -22z" />
    <glyph glyph-name="zophola_bn" unicode="&#x9cd;&#x9af;" horiz-adv-x="251" 
d="M9 -135l-46 114q116 48 137 104q5 15 5 31q0 32 -15.5 68.5t-35.5 76.5q-4 6 -7 14q-24 48 -24 105q0 56 24 119l1 2h-58v123h271v-123h-76q-13 -21 -26 -54t-13 -67q0 -26 11 -50q3 -8 7 -14q5 -10 9 -19q26 -50 43 -104q12 -41 12 -78q0 -38 -13 -73
q-39 -107 -206 -175z" />
    <glyph glyph-name=".notdef" horiz-adv-x="599" 
d="M397 440h-61l-155 -54v-316h216v139h-77v-67h-58v198l58 19v-88h77v68l60 20v-200l16 -89h66v370h-64l-78 -26v26zM463 511v-44h76v120h-266l-213 -62v-455h86v397l94 30zM599 10h-599v637h599v-637z" />
    <glyph glyph-name=".null" 
 />
    <glyph glyph-name="nonmarkingreturn" 
 />
    <glyph glyph-name="NULL" 
 />
    <glyph glyph-name="NULL" 
 />
    <glyph glyph-name="space" unicode=" " horiz-adv-x="293" 
 />
    <glyph glyph-name="space" unicode="&#xa0;" horiz-adv-x="293" 
 />
    <glyph glyph-name="exclam" unicode="!" horiz-adv-x="265" 
d="M223 196h-123v442h123v-442zM167 -34h-5q-46 0 -71 47q-8 19 -8 39v3q0 43 42 68q17 8 35 8q25 0 47 -16q33 -28 33 -67q0 -12 -4 -24q-17 -51 -69 -58z" />
    <glyph glyph-name="quotedbl" unicode="&#x22;" horiz-adv-x="470" 
d="M140 465h-2q-18 0 -32.5 11.5t-18.5 29.5l-35 142q-1 6 -1 12q0 18 11 33q18 21 42 21h58q23 0 41 -19q12 -16 12 -35l-1 -9l-23 -141q-4 -19 -18 -31.5t-33 -13.5zM339 465h-2q-19 0 -33.5 11.5t-18.5 29.5l-35 142q-1 6 -1 12q0 18 11 33q18 21 42 21h58q23 0 41 -19
q13 -16 13 -35l-1 -9l-24 -141q-3 -19 -17.5 -31.5t-32.5 -13.5z" />
    <glyph glyph-name="numbersign" unicode="#" horiz-adv-x="492" 
d="M338 -10l-121 21l22 130h-56l-25 -151l-122 21l22 130h-35v123h56l17 102h-53v123h74l24 144l121 -20l-20 -124h55l25 144l121 -20l-21 -124h47v-123h-68l-17 -102h66v-123h-87zM259 264l18 102h-56l-17 -102h55z" />
    <glyph glyph-name="dollar" unicode="$" horiz-adv-x="509" 
d="M475 209q0 -70 -49.5 -111.5t-140.5 -49.5v-90h-59v88q-54 1 -99.5 10.5t-87.5 27.5v114q18 -9 42 -17.5t49 -15.5t50 -11.5t46 -5.5v135l-30 11q-86 31 -122 71.5t-36 100.5q0 63 48.5 103.5t139.5 50.5v66h59v-65q49 -2 93.5 -12.5t86.5 -27.5l-41 -102q-59 28 -139 34
v-128q55 -22 91.5 -41t58.5 -39t31 -43t9 -53zM344 202q0 18 -15 31t-44 26v-108q59 11 59 51zM169 466q0 -19 13.5 -31.5t43.5 -25.5v102q-57 -8 -57 -45z" />
    <glyph glyph-name="percent" unicode="%" horiz-adv-x="883" 
d="M338 -28l-110 55l308 622l110 -54zM677 -49q-43 0 -86 27q-25 14 -48 49t-29 97l-1 26q0 50 13 109q13 55 55.5 89t96.5 34h4q77 -2 123 -74q35 -68 36 -125l1 -20q0 -61 -26 -113t-69 -79q-34 -20 -70 -20zM676 75q3 0 5 0.5t3 1.5q14 8 24.5 33t10.5 55v9
q-3 32 -13 58.5t-27 26.5h-1q-11 0 -20 -7.5t-12 -19.5q-10 -46 -10 -81q0 -52 21 -69q13 -7 19 -7zM188 202q-43 0 -86 26q-25 14 -48.5 49t-29.5 98l-1 25q0 50 14 109q13 55 55.5 89t96.5 34h3q79 -2 123 -74q37 -68 37 -125l1 -20q0 -60 -26 -112t-69 -79
q-34 -20 -70 -20zM187 325q3 0 5 0.5t3 1.5q13 8 24 32t11 53l-1 12q-2 32 -12.5 58.5t-26.5 26.5h-1q-11 0 -20 -7.5t-12 -19.5q-10 -47 -10 -82q0 -52 21 -68q13 -7 19 -7z" />
    <glyph glyph-name="ampersand" unicode="&#x26;" horiz-adv-x="668" 
d="M668 10h-165l-49 49q-82 -58 -188 -58q-53 0 -95.5 12.5t-72.5 36t-46 57t-16 75.5q0 60 26 101.5t90 77.5q-33 38 -47.5 71.5t-14.5 75.5q0 66 49 106t137 40q82 0 130 -36t48 -102q0 -52 -30 -94.5t-97 -80.5l123 -121q16 25 29 57t24 74h139q-15 -60 -42.5 -115
t-62.5 -98zM176 195q0 -38 27.5 -60.5t72.5 -22.5q53 0 98 27l-144 144q-26 -20 -40 -41t-14 -47zM331 502q0 24 -15.5 37t-39.5 13q-30 0 -47 -13.5t-17 -39.5q0 -37 42 -85q37 21 57 41.5t20 46.5z" />
    <glyph glyph-name="quotesingle" unicode="'" horiz-adv-x="275" 
d="M140 465h-2q-18 0 -32.5 11.5t-18.5 29.5l-35 142q-1 6 -1 12q0 18 11 33q18 21 42 21h58q23 0 41 -19q12 -16 12 -35l-1 -9l-23 -141q-4 -19 -18 -31.5t-33 -13.5z" />
    <glyph glyph-name="parenleft" unicode="(" horiz-adv-x="332" 
d="M260 -177q-20 8 -53.5 31.5t-69.5 70.5q-96 129 -96 402q0 175 34 265q28 75 78 128q45 44 81.5 61t43.5 17l29 -119q-3 0 -24.5 -11.5t-49 -42t-48.5 -88t-21 -210.5q0 -230 71 -329q25 -31 45.5 -45t27.5 -17z" />
    <glyph glyph-name="parenright" unicode=")" horiz-adv-x="332" 
d="M72 -177l-48 113q7 3 27.5 17t45.5 45q71 99 71 329q0 153 -21 210.5t-48.5 88t-49 42t-24.5 11.5l29 119q7 0 43.5 -17t81.5 -61q50 -53 78 -128q34 -90 34 -265q0 -273 -96 -402q-36 -47 -69.5 -70.5t-53.5 -31.5z" />
    <glyph glyph-name="asterisk" unicode="*" horiz-adv-x="530" 
d="M317 98h-123v116l-95 -50l-58 109l69 36l-87 38l50 113l121 -54v120h123v-108l112 60l58 -109l-95 -50l97 -43l-50 -113l-122 54v-119z" />
    <glyph glyph-name="plus" unicode="+" horiz-adv-x="445" 
d="M292 125h-123v106h-128v123h128v144h123v-144h112v-123h-112v-106z" />
    <glyph glyph-name="comma" unicode="," horiz-adv-x="226" 
d="M79 -94l-50 94q25 14 41 29l-6 5q-38 34 -41 72v5q0 36 31 63q22 16 48 16q16 0 34 -8q58 -32 63 -107v-3q0 -20 -8 -48t-34 -58.5t-78 -59.5z" />
    <glyph glyph-name="hyphenminus" unicode="-" horiz-adv-x="359" 
d="M336 250h-313v123h313v-123z" />
    <glyph glyph-name="period" unicode="." horiz-adv-x="232" 
d="M111 0q-39 0 -63 30q-13 17 -22 49q-3 11 -3 22q0 25 13.5 47t37.5 35q21 11 43 11q37 0 68 -30q22 -25 24 -61v-6q0 -32 -17.5 -56t-47.5 -35q-18 -6 -33 -6z" />
    <glyph glyph-name="slash" unicode="/" horiz-adv-x="364" 
d="M142 -87q-25 6 -37 9t-18 5q-6 1 -12 3t-18 5t-34 9l199 765l119 -31z" />
    <glyph glyph-name="zero" unicode="0" horiz-adv-x="508" 
d="M476 328q0 -170 -54 -248.5t-169 -78.5q-221 0 -221 327q0 169 53.5 248t167.5 79q223 0 223 -327zM164 328q0 -117 20.5 -167.5t68.5 -50.5q47 0 68 51t21 167q0 117 -21.5 168t-67.5 51q-49 0 -69 -51t-20 -168z" />
    <glyph glyph-name="one" unicode="1" horiz-adv-x="508" 
d="M367 10h-134v428l3 66q-34 -34 -47 -44l-73 -58l-64 81l204 162h111v-635z" />
    <glyph glyph-name="two" unicode="2" horiz-adv-x="509" 
d="M480 10h-444v94l159 161q45 45 71.5 74t40.5 50t18 38t4 39q0 39 -21 58t-57 19q-37 0 -71.5 -17.5t-72.5 -47.5l-73 85q30 27 55.5 44.5t51 28t54.5 14.5t65 4q45 0 82.5 -12.5t64 -35t41.5 -54t15 -69.5q0 -36 -8 -65t-28.5 -59.5t-55 -67t-86.5 -85.5l-82 -77v-6h277
v-113z" />
    <glyph glyph-name="three" unicode="3" horiz-adv-x="509" 
d="M455 503q0 -60 -35.5 -101.5t-101.5 -56.5v-3q156 -20 156 -147q0 -94 -65.5 -144t-191.5 -50q-107 0 -183 35v114q36 -19 80 -30.5t89 -11.5q69 0 99.5 22t30.5 73q0 46 -36 64.5t-117 18.5h-48v102h49q75 0 108.5 19t33.5 67q0 72 -90 72q-32 0 -64 -10t-72 -37l-62 93
q86 62 207 62q100 0 156.5 -39.5t56.5 -111.5z" />
    <glyph glyph-name="four" unicode="4" horiz-adv-x="508" 
d="M494 142h-76v-132h-131v132h-272v94l279 409h124v-399h76v-104zM287 246v108q0 10 1 32.5t1.5 45.5t1.5 41t1 19h-3q-9 -17 -18.5 -35t-20.5 -35l-116 -176h153z" />
    <glyph glyph-name="five" unicode="5" horiz-adv-x="509" 
d="M266 416q94 0 148.5 -51.5t54.5 -142.5q0 -109 -64.5 -165t-190.5 -56q-108 0 -170 35v116q34 -18 79 -30t87 -12q123 0 123 101q0 96 -128 96q-22 0 -50 -4.5t-46 -9.5l-53 28l24 324h345v-113h-227l-12 -125l15 3q13 2 29.5 4t35.5 2z" />
    <glyph glyph-name="six" unicode="6" horiz-adv-x="509" 
d="M32 280q0 193 77.5 283t240.5 90q65 0 85 -7v-107q-39 9 -77 9q-51 -2 -88.5 -12.5t-62.5 -33.5t-37.5 -60.5t-14.5 -92.5h5q43 73 138 73q88 0 135 -52t47 -149q0 -103 -57 -161.5t-160 -58.5q-109 0 -170 69.5t-61 209.5zM260 109q90 0 90 111q0 46 -21 73t-66 27
q-20 0 -38 -7t-31.5 -19t-21.5 -28t-8 -34q0 -27 7.5 -49.5t20.5 -39t30.5 -25.5t37.5 -9z" />
    <glyph glyph-name="seven" unicode="7" horiz-adv-x="510" 
d="M100 10l238 522h-313v113h456v-85l-240 -550h-141z" />
    <glyph glyph-name="eight" unicode="8" horiz-adv-x="510" 
d="M255 654q94 0 148 -41t54 -113q0 -49 -26 -86.5t-87 -67.5q72 -39 103 -80t31 -92q0 -38 -16.5 -70t-45.5 -55t-70.5 -35.5t-90.5 -12.5q-106 0 -164.5 44t-58.5 126q0 55 28.5 97t92.5 74q-55 35 -78.5 74t-23.5 85q0 35 15.5 63.5t42.5 48.5t64.5 30.5t81.5 10.5z
M155 179q0 -37 26 -58t72 -21q51 0 75 21.5t24 56.5q0 29 -24.5 54.5t-79.5 54.5q-93 -44 -93 -108zM254 555q-34 0 -55 -17t-21 -47q0 -27 16.5 -47t60.5 -42q43 19 59.5 40t16.5 49q0 30 -21.5 47t-55.5 17z" />
    <glyph glyph-name="nine" unicode="9" horiz-adv-x="510" 
d="M478 374q0 -191 -77 -282t-243 -91q-56 0 -84 6v108q34 -9 75 -9q100 0 149.5 45t54.5 154h-5q-25 -42 -57.5 -58t-83.5 -16q-82 0 -130 52t-48 149q0 103 56.5 162t159.5 59q53 0 96 -19t73.5 -55t47 -87.5t16.5 -117.5zM247 545q-43 0 -66 -28t-23 -83q0 -46 21 -73
t66 -27q20 0 38 7.5t31.5 19.5t21.5 28t8 33q0 52 -26 87.5t-71 35.5z" />
    <glyph glyph-name="colon" unicode=":" horiz-adv-x="297" 
d="M142 39q-45 0 -72 34q-15 19 -26 56q-3 13 -3 25q0 60 59 95q25 13 50 13q43 0 77 -35q26 -29 28 -71v-7q0 -36 -20 -64t-55 -40q-20 -6 -38 -6zM142 364q-45 0 -72 34q-16 20 -26 57q-3 12 -3 25q0 58 58 94q25 13 50 13q43 0 78 -35q26 -29 28 -70v-5q0 -75 -75 -107
q-20 -6 -38 -6z" />
    <glyph glyph-name="semicolon" unicode=";" horiz-adv-x="297" 
d="M142 364q-45 0 -72 34q-16 20 -26 57q-3 12 -3 25q0 58 58 94q25 13 50 13q43 0 78 -35q26 -29 28 -70v-5q0 -75 -75 -107q-20 -6 -38 -6zM121 -41l-58 108q29 16 47 33l-7 6q-44 39 -47 83v6q0 42 36 72q25 19 55 19q19 0 39 -9q67 -37 73 -123v-4q0 -23 -9.5 -55.5
t-39.5 -67.5t-89 -68z" />
    <glyph glyph-name="less" unicode="&#x3c;" horiz-adv-x="557" 
d="M478 67l-455 242l452 248l59 -108l-253 -138l255 -136z" />
    <glyph glyph-name="equal" unicode="=" horiz-adv-x="485" 
d="M41 357v123h403v-123h-403zM444 266v-123h-402v123h402z" />
    <glyph glyph-name="greater" unicode="&#x3e;" horiz-adv-x="557" 
d="M79 67l-58 108l255 136l-253 138l59 108l452 -248z" />
    <glyph glyph-name="question" unicode="?" horiz-adv-x="517" 
d="M299 170h-123v162l41 14q3 1 26 11.5t50 32.5q31 27 40.5 50.5t9.5 39.5l-2 18q-8 34 -33.5 46.5t-47.5 12.5l-10 -1q-11 -1 -27 -6t-29 -19.5t-13 -42.5v-2l-123 -1v4q0 81 57 136q51 47 125 54l20 1q63 0 117 -33q70 -46 85 -129q3 -19 3 -38q0 -52 -24 -99
q-24 -48 -73 -88q-37 -30 -69 -45v-78zM243 -33h-5q-46 0 -71 47q-8 19 -8 39v3q0 43 42 68q17 8 35 8q25 0 47 -16q33 -28 33 -67q0 -12 -4 -24q-17 -51 -69 -58z" />
    <glyph glyph-name="at" unicode="@" horiz-adv-x="782" 
d="M420 -115q-183 0 -306 155q-91 118 -91 268q0 117 60 222q63 108 168 163q88 44 188 44q187 0 270 -138q50 -88 50 -195l-1 -25q-6 -112 -57.5 -202t-142.5 -98q-57 0 -92 33q-32 -20 -83 -34q-16 -3 -33 -3q-52 0 -93 42q-49 58 -49 148q0 91 27 170q50 130 158 130
q54 0 110 -33l84 -27q-2 -3 -14 -45.5t-22.5 -103t-10.5 -94.5q0 -50 10 -60q23 0 51 51q34 62 34 151q0 100 -52 160q-44 50 -142 50q-79 0 -144.5 -37.5t-107.5 -107.5q-44 -79 -44 -161q0 -103 66 -193q84 -107 210 -107q25 0 51 4q90 16 147 52l3 1l65 -104
q-4 -4 -58 -29.5t-138 -41.5q-36 -5 -71 -5zM354 200q20 5 33 11t31 26v29q0 79 21 163q-25 15 -46 15l-8 -1q-22 -7 -34 -47q-21 -61 -21 -118q4 -78 24 -78z" />
    <glyph glyph-name="A" unicode="A" horiz-adv-x="615" 
d="M469 10l-46 151h-232l-46 -151h-145l225 638h164l226 -638h-146zM391 274l-72 232q-6 15 -8 25t-4 18q-7 -27 -27.5 -95t-53.5 -180h165z" />
    <glyph glyph-name="B" unicode="B" horiz-adv-x="598" 
d="M80 645h198q135 0 196 -38t61 -122q0 -58 -26 -94t-72 -44v-4q61 -13 87.5 -50t26.5 -98q0 -91 -62 -138t-171 -47h-238v635zM214 394h79q55 0 79.5 17t24.5 55q0 37 -26.5 53t-84.5 16h-72v-141zM214 287v-166h88q109 0 109 87q0 79 -113 79h-84z" />
    <glyph glyph-name="C" unicode="C" horiz-adv-x="568" 
d="M350 543q-76 0 -118 -56.5t-42 -159.5q0 -214 160 -214q68 0 163 34v-114q-88 -32 -176 -32q-285 0 -285 326q0 75 21 135.5t59.5 103t93.5 65.5t124 23q96 0 186 -44l-44 -110q-36 17 -71.5 30t-70.5 13z" />
    <glyph glyph-name="D" unicode="D" horiz-adv-x="659" 
d="M607 334q0 -324 -347 -324h-180v635h200q162 0 244.5 -78t82.5 -233zM468 331q0 204 -181 204h-73v-414h59q195 0 195 210z" />
    <glyph glyph-name="E" unicode="E" horiz-adv-x="498" 
d="M446 10h-366v635h366v-110h-232v-139h216v-110h-216v-165h232v-111z" />
    <glyph glyph-name="F" unicode="F" horiz-adv-x="489" 
d="M212 10h-132v635h364v-110h-232v-164h216v-110h-216v-251z" />
    <glyph glyph-name="G" unicode="G" horiz-adv-x="645" 
d="M322 367h252v-329q-61 -21 -115 -29t-112 -8q-151 0 -223 81t-72 247q0 77 22.5 137.5t65 102t104.5 63.5t140 22q91 0 189 -39l-45 -107q-72 35 -145 35q-43 0 -78.5 -15.5t-61 -43.5t-39.5 -68t-14 -89q0 -106 42.5 -160t123.5 -54q41 0 86 9v133h-120v112z" />
    <glyph glyph-name="H" unicode="H" horiz-adv-x="680" 
d="M600 10h-133v275h-253v-275h-134v635h134v-248h253v248h133v-635z" />
    <glyph glyph-name="I" unicode="I" horiz-adv-x="347" 
d="M318 10h-289v77l77 35v412l-77 36v75h289v-75l-78 -36v-412l78 -35v-77z" />
    <glyph glyph-name="J" unicode="J" horiz-adv-x="294" 
d="M13 -177q-46 0 -79 9v113q17 -4 33 -6.5t30 -2.5q46 0 64.5 28t18.5 86v595h134v-594q0 -112 -49 -170t-152 -58z" />
    <glyph glyph-name="K" unicode="K" horiz-adv-x="591" 
d="M591 10h-153l-166 268l-58 -41v-227h-134v635h134v-290l54 75l172 215h149l-221 -281z" />
    <glyph glyph-name="L" unicode="L" horiz-adv-x="504" 
d="M80 10v635h134v-524h259v-111h-393z" />
    <glyph glyph-name="M" unicode="M" horiz-adv-x="840" 
d="M349 10l-153 498h-4q4 -76 6 -126t2 -76v-296h-120v635h183l151 -486h3l159 486h184v-635h-126v492l-161 -492h-124z" />
    <glyph glyph-name="N" unicode="N" horiz-adv-x="724" 
d="M644 10h-171l-277 481h-4q4 -64 6 -109.5t2 -72.5v-299h-120v635h170l276 -476h3q-6 124 -6 176v300h121v-635z" />
    <glyph glyph-name="O" unicode="O" horiz-adv-x="709" 
d="M657 329q0 -328 -303 -328q-302 0 -302 329q0 325 303 325q302 0 302 -326zM193 329q0 -215 161 -215q162 0 162 215q0 214 -161 214q-162 0 -162 -214z" />
    <glyph glyph-name="P" unicode="P" horiz-adv-x="559" 
d="M214 347h45q124 0 124 96q0 92 -107 92h-62v-188zM519 447q0 -103 -62.5 -157t-183.5 -54h-59v-226h-134v635h203q236 0 236 -198z" />
    <glyph glyph-name="Q" unicode="Q" horiz-adv-x="709" 
d="M657 329q0 -227 -157 -300l153 -170h-172l-117 142h-10q-302 0 -302 329q0 325 303 325q302 0 302 -326zM193 329q0 -215 161 -215q162 0 162 215q0 214 -161 214q-162 0 -162 -214z" />
    <glyph glyph-name="R" unicode="R" horiz-adv-x="588" 
d="M214 363h44q66 0 95.5 21.5t29.5 67.5t-31 64.5t-97 18.5h-41v-172zM214 254v-244h-134v635h185q133 0 193.5 -47t60.5 -143q0 -57 -30.5 -100.5t-87.5 -67.5q72 -109 118.5 -177t68.5 -100h-150l-151 244h-73z" />
    <glyph glyph-name="S" unicode="S" horiz-adv-x="491" 
d="M455 187q0 -88 -61 -137t-173 -49q-95 0 -180 39v125q64 -29 108.5 -41t82.5 -12q91 0 91 67q0 16 -5.5 27.5t-19 23t-38 24.5t-61.5 31q-73 32 -112 75t-39 114q0 88 56 134t159 46q51 0 95.5 -11.5t93.5 -32.5l-44 -105q-51 21 -84 29.5t-65 8.5q-38 0 -58.5 -18
t-20.5 -46q0 -16 3.5 -26.5t15.5 -21t36 -23t65 -31.5q44 -22 74 -42.5t48 -43t25.5 -48t7.5 -56.5z" />
    <glyph glyph-name="T" unicode="T" horiz-adv-x="515" 
d="M325 10h-135v524h-173v111h481v-111h-173v-524z" />
    <glyph glyph-name="U" unicode="U" horiz-adv-x="673" 
d="M597 645v-410q0 -109 -69.5 -171.5t-193.5 -62.5t-191 63t-67 172v409h134v-389q0 -73 30 -107.5t97 -34.5t96.5 35t29.5 108v388h134z" />
    <glyph glyph-name="V" unicode="V" horiz-adv-x="579" 
d="M442 645h137l-217 -635h-147l-215 635h136l119 -378l20 -78q5 -21 9.5 -38t5.5 -24q3 21 10 55t23 85z" />
    <glyph glyph-name="W" unicode="W" horiz-adv-x="861" 
d="M699 10h-154l-86 334q-2 4 -6.5 25t-9.5 45.5t-9 47t-4 29.5l-29 -148l-86 -333h-153l-162 635h133l80 -346q11 -49 19 -90t13 -76q0 10 3.5 31t8 45t10 46.5t8.5 34.5l92 355h127l93 -355q3 -11 7 -31t8.5 -43t8 -45.5t5.5 -36.5q2 14 6 36.5t8.5 46t9 46t7.5 36.5
l81 346h133z" />
    <glyph glyph-name="X" unicode="X" horiz-adv-x="594" 
d="M594 10h-154l-148 240l-148 -240h-144l211 328l-198 307h149l137 -228l135 228h145l-200 -314z" />
    <glyph glyph-name="Y" unicode="Y" horiz-adv-x="555" 
d="M278 384l132 261h145l-210 -388v-247h-134v243l-211 392h146z" />
    <glyph glyph-name="Z" unicode="Z" horiz-adv-x="515" 
d="M494 10h-473v88l305 436h-296v111h456v-87l-304 -437h312v-111z" />
    <glyph glyph-name="bracketleft" unicode="[" horiz-adv-x="281" 
d="M261 -178h-220v979h222v-123h-99v-733h97v-123z" />
    <glyph glyph-name="backslash" unicode="\" horiz-adv-x="364" 
d="M222 -87l-199 765l119 31l199 -765q-22 -6 -34 -9t-18 -5t-12 -3q-6 -2 -18 -5t-37 -9z" />
    <glyph glyph-name="bracketright" unicode="]" horiz-adv-x="281" 
d="M20 -178v123h97v733h-99v123h222v-979h-220z" />
    <glyph glyph-name="asciicircum" unicode="^" horiz-adv-x="380" 
d="M115 431l-92 25l165 252l169 -249l-91 -27l-77 113z" />
    <glyph glyph-name="underscore" unicode="_" horiz-adv-x="461" 
d="M438 0h-415v108h415v-108z" />
    <glyph glyph-name="grave" unicode="`" horiz-adv-x="251" 
d="M149 511l-162 147l128 102l108 -187z" />
    <glyph glyph-name="a" unicode="a" horiz-adv-x="537" 
d="M378 10l-26 66h-3q-17 -21 -34 -35.5t-35.5 -23.5t-41 -12.5t-50.5 -3.5q-72 0 -111 39.5t-39 114.5q0 78 52.5 115t164.5 40l84 2v22q0 74 -76 74q-51 0 -136 -36l-44 90q83 44 186 44q202 0 202 -172v-324h-93zM339 236l-51 -2q-58 -2 -86 -21t-28 -59q0 -56 64 -56
q46 0 73.5 26t27.5 71v41z" />
    <glyph glyph-name="b" unicode="b" horiz-adv-x="564" 
d="M340 505q88 0 136 -66.5t48 -184.5q0 -121 -49.5 -187t-137.5 -66q-85 0 -135 62h-9l-22 -53h-102v677h133v-158q0 -7 -0.5 -17t-1.5 -22l-3 -57h5q48 72 138 72zM297 399q-49 0 -72 -29t-23 -101v-14q0 -80 23.5 -113t73.5 -33q42 0 65.5 37t23.5 110q0 72 -24 107.5
t-67 35.5z" />
    <glyph glyph-name="c" unicode="c" horiz-adv-x="458" 
d="M266 1q-226 0 -226 249q0 132 60.5 193.5t178.5 61.5q75 0 151 -32l-39 -104q-32 13 -59 21t-53 8q-103 0 -103 -147q0 -142 103 -142q38 0 70.5 10t65.5 32v-113q-32 -21 -65 -29t-84 -8z" />
    <glyph glyph-name="d" unicode="d" horiz-adv-x="563" 
d="M224 1q-88 0 -136 66.5t-48 184.5q0 121 49.5 187t137.5 66q93 0 140 -71h5q-5 28 -8 52t-3 45v156h133v-677h-102l-25 63h-6q-44 -72 -137 -72zM270 107q52 0 75.5 29t25.5 101v14q0 80 -24 113t-79 33q-45 0 -69 -37t-24 -110q0 -72 24.5 -107.5t70.5 -35.5z" />
    <glyph glyph-name="e" unicode="e" horiz-adv-x="526" 
d="M271 411q-43 0 -66.5 -27t-26.5 -76h185q-1 49 -25.5 76t-66.5 27zM290 1q-118 0 -184 64t-66 185q0 125 60.5 190t169.5 65q106 0 162 -57t56 -163v-65h-313q2 -58 32.5 -89t88.5 -31q45 0 83.5 9t80.5 30v-103q-34 -18 -73.5 -26.5t-96.5 -8.5z" />
    <glyph glyph-name="f" unicode="f" horiz-adv-x="345" 
d="M338 397h-114v-387h-133v387h-74v63l74 36v36q0 82 40 120.5t131 38.5q58 0 123 -20l-34 -97q-42 12 -74 12q-28 0 -40.5 -17t-12.5 -42v-31h114v-99z" />
    <glyph glyph-name="g" unicode="g" horiz-adv-x="502" 
d="M492 496v-67l-75 -20q20 -32 20 -73q0 -78 -54 -122t-151 -44l-25 1l-19 3q-21 -17 -21 -35q0 -29 73 -29h83q81 0 122.5 -33t41.5 -102q0 -88 -67.5 -133t-208.5 -45q-103 0 -155.5 35t-52.5 99q0 89 107 116q-20 8 -35.5 28t-15.5 42q0 28 16.5 46.5t47.5 36.5
q-39 16 -61.5 52t-22.5 87q0 79 51.5 122.5t148.5 43.5q9 0 22.5 -1.5t26 -3t22.5 -3t13 -1.5h169zM117 -58q0 -28 25.5 -44t74.5 -16q72 0 112.5 20t40.5 54q0 27 -23.5 37.5t-74.5 10.5h-69q-37 0 -61.5 -17.5t-24.5 -44.5zM165 337q0 -40 18.5 -63t55.5 -23t54 23t17 63
q0 88 -71 88q-74 0 -74 -88z" />
    <glyph glyph-name="h" unicode="h" horiz-adv-x="585" 
d="M519 10h-133v284q0 105 -79 105q-55 0 -80 -37.5t-25 -122.5v-229h-133v677h133v-138q-1 -8 -1 -27.5t-2 -48.5l-3 -39h7q44 71 141 71q88 0 131.5 -45t43.5 -133v-317z" />
    <glyph glyph-name="i" unicode="i" horiz-adv-x="271" 
d="M64 622q0 65 72 65t72 -65q0 -31 -17.5 -48.5t-54.5 -17.5q-72 0 -72 66zM202 10h-133v486h133v-486z" />
    <glyph glyph-name="j" unicode="j" horiz-adv-x="271" 
d="M31 -203q-62 0 -88 10v104q17 -4 32.5 -6t29.5 -2q34 0 49 19t15 55v519h133v-539q0 -78 -44.5 -119t-126.5 -41zM64 622q0 65 72 65t72 -65q0 -31 -17.5 -48.5t-54.5 -17.5q-72 0 -72 66z" />
    <glyph glyph-name="k" unicode="k" horiz-adv-x="552" 
d="M197 274l58 74l136 148h149l-193 -210l205 -276h-153l-140 197l-57 -46v-151h-133v677h133v-302l-7 -111h2z" />
    <glyph glyph-name="l" unicode="l" horiz-adv-x="271" 
d="M202 10h-133v677h133v-677z" />
    <glyph glyph-name="m" unicode="m" horiz-adv-x="874" 
d="M504 10h-132v284q0 105 -73 105q-51 0 -74 -37.5t-23 -122.5v-229h-133v486h102l18 -62h7q19 33 56 52t85 19q110 0 148 -71h12q20 33 57 52t86 19q85 0 126.5 -42t41.5 -136v-317h-133v284q0 105 -74 105q-49 0 -73 -33.5t-24 -111.5v-244z" />
    <glyph glyph-name="n" unicode="n" horiz-adv-x="585" 
d="M519 10h-133v284q0 105 -79 105q-55 0 -80 -37.5t-25 -122.5v-229h-133v486h102l18 -62h7q22 35 61 53t88 18q88 0 131 -45t43 -133v-317z" />
    <glyph glyph-name="o" unicode="o" horiz-adv-x="552" 
d="M176 254q0 -73 23 -109.5t77 -36.5t77 36.5t23 109.5q0 75 -23 109.5t-77 34.5t-77 -34.5t-23 -109.5zM512 254q0 -121 -62.5 -187t-174.5 -66q-54 0 -97.5 18t-74 51t-47 80t-16.5 104q0 121 61 186t176 65q53 0 96.5 -18t74 -50.5t47.5 -79t17 -103.5z" />
    <glyph glyph-name="p" unicode="p" horiz-adv-x="564" 
d="M337 1q-85 0 -135 62h-7q4 -30 5.5 -47.5t1.5 -22.5v-196h-133v699h109l18 -63h6q48 72 138 72q88 0 136 -65t48 -186t-49.5 -187t-137.5 -66zM297 399q-49 0 -72 -29t-23 -101v-14q0 -80 23.5 -113t73.5 -33q89 0 89 147q0 143 -91 143z" />
    <glyph glyph-name="q" unicode="q" horiz-adv-x="563" 
d="M271 105q51 0 74.5 29t25.5 102v15q0 80 -23.5 113t-78.5 33q-93 0 -93 -147q0 -75 23 -110t72 -35zM224 1q-88 0 -136 65t-48 186t49 187t137 66q91 0 141 -71h4l11 62h112v-699h-133v203q0 26 6 73h-6q-44 -72 -137 -72z" />
    <glyph glyph-name="r" unicode="r" horiz-adv-x="404" 
d="M341 505q37 0 45 -4l-10 -124q-12 2 -21.5 3.5t-17.5 1.5q-64 0 -99.5 -32.5t-35.5 -92.5v-247h-133v486h100l21 -82h6q22 42 60.5 66.5t84.5 24.5z" />
    <glyph glyph-name="s" unicode="s" horiz-adv-x="442" 
d="M408 154q0 -75 -50.5 -114t-156.5 -39q-54 0 -90.5 7.5t-69.5 20.5v110q18 -10 39.5 -17.5t43.5 -13t43 -8t38 -2.5q73 0 73 42q0 10 -5.5 19t-18 17.5t-32.5 18t-49 21.5q-42 18 -67.5 33t-39.5 32t-19 37.5t-7 50.5q0 66 49.5 101t143.5 35q80 0 170 -39l-40 -95
q-36 16 -68 26t-64 10q-59 0 -59 -31q0 -11 3.5 -18.5t14 -14.5t31 -15.5t53.5 -21.5q42 -17 67 -32.5t39.5 -33t20 -38.5t7.5 -48z" />
    <glyph glyph-name="t" unicode="t" horiz-adv-x="386" 
d="M275 107q34 0 82 15v-99q-43 -22 -121 -22q-81 0 -116.5 40t-35.5 121v235h-64v55l74 45l38 102h84v-103h136v-99h-136v-235q0 -28 16 -41.5t43 -13.5z" />
    <glyph glyph-name="u" unicode="u" horiz-adv-x="584" 
d="M412 10l-17 62h-7q-21 -33 -59.5 -52t-89.5 -19q-88 0 -130.5 45t-42.5 133v317h132v-284q0 -105 79 -105q57 0 81 37.5t24 122.5v229h133v-486h-103z" />
    <glyph glyph-name="v" unicode="v" horiz-adv-x="506" 
d="M185 10l-185 486h139l94 -277q7 -25 12 -50t7 -50h3q2 21 6 46t14 54l93 277h138l-184 -486h-137z" />
    <glyph glyph-name="w" unicode="w" horiz-adv-x="762" 
d="M469 10l-37 169l-51 216h-3l-88 -385h-143l-138 486h132l56 -215q7 -29 11 -68.5t17 -91.5h2q1 34 15 105l7 37l60 233h146l58 -233q1 -10 4.5 -28.5t7 -39.5t6.5 -41t3 -33h3q3 17 5 38.5t8 47.5l16 74l58 215h129l-139 -486h-145z" />
    <glyph glyph-name="x" unicode="x" horiz-adv-x="514" 
d="M169 258l-157 238h151l94 -155l95 155h151l-158 -238l166 -248h-152l-102 166l-102 -166h-151z" />
    <glyph glyph-name="y" unicode="y" horiz-adv-x="506" 
d="M0 496h145l92 -274q6 -17 10 -38.5t6 -44.5h2q2 22 7.5 42.5t12.5 40.5l89 274h142l-205 -548q-29 -78 -81 -114.5t-122 -36.5q-47 0 -67 7v105q22 -6 52 -6q73 0 102 87l8 23z" />
    <glyph glyph-name="z" unicode="z" horiz-adv-x="434" 
d="M407 10h-384v79l226 306h-211v101h362v-86l-219 -299h226v-101z" />
    <glyph glyph-name="braceleft" unicode="{" horiz-adv-x="332" 
d="M299 -179q-102 3 -157 62q-32 37 -43 83t-11 92q0 96 3 129v3q2 22 2 42q-40 21 -57 21h-8l2 60v63h8q14 0 52 17l-1 40q-2 30 -2 122q0 49 11.5 99t46.5 89q58 58 161 58v-123q-51 0 -72 -21q-14 -16 -19 -43.5t-5 -59.5l3 -167q0 -40 -27 -73q18 -20 24 -39.5t6 -34.5
q0 -27 -2 -57v-3q-3 -31 -3 -123q0 -28 4.5 -52.5t17.5 -38.5q19 -21 69 -22z" />
    <glyph glyph-name="bar" unicode="|" horiz-adv-x="205" 
d="M164 -99h-123v821h123v-821z" />
    <glyph glyph-name="braceright" unicode="}" horiz-adv-x="332" 
d="M33 -179l-3 123q50 1 69 22q13 14 17.5 38.5t4.5 52.5q0 92 -3 123v3q-2 30 -2 57q0 15 6 34.5t24 39.5q-27 33 -27 73l3 167q0 32 -5 59.5t-19 43.5q-21 21 -72 21v123q103 0 161 -58q35 -39 46.5 -89t11.5 -99q0 -92 -2 -122l-1 -40q38 -17 52 -17h8v-63l2 -60h-8
q-17 0 -57 -21q0 -20 2 -42v-3q3 -33 3 -129q0 -46 -11 -92t-43 -83q-55 -59 -157 -62z" />
    <glyph glyph-name="asciitilde" unicode="~" horiz-adv-x="542" 
d="M378 211q-37 0 -78.5 17.5t-88.5 47.5q-26 14 -35 14l-3 -1q-9 -5 -17 -25t-11 -43l-122 12q0 2 3 19.5t11 42.5q25 76 81 104q22 14 58 14q21 0 45.5 -7.5t53.5 -24.5q38 -23 60 -33t32 -12t12 -2q2 1 8 11t16 38l116 -39q-11 -39 -33.5 -74t-63.5 -51q-21 -8 -44 -8z
" />
    <glyph glyph-name="softhyphen" unicode="&#xad;" horiz-adv-x="308" 
d="M267 250h-244v123h244v-123z" />
    <glyph glyph-name="softhyphen" unicode="&#x2010;" horiz-adv-x="308" 
d="M267 250h-244v123h244v-123z" />
    <glyph glyph-name="periodcentered" unicode="&#xb7;" horiz-adv-x="268" 
d="M129 214q-39 0 -63 30q-13 17 -22 49q-3 11 -3 22q0 25 13.5 47.5t37.5 35.5q21 10 43 10q37 0 68 -29q22 -26 24 -62v-6q0 -31 -17.5 -55.5t-47.5 -35.5q-18 -6 -33 -6z" />
    <glyph glyph-name="multiply" unicode="&#xd7;" horiz-adv-x="455" 
d="M345 106l-118 119l-119 -119l-87 87l119 119l-117 118l87 87l117 -118l118 118l87 -87l-118 -118l118 -119z" />
    <glyph glyph-name="divide" unicode="&#xf7;" horiz-adv-x="437" 
d="M414 250h-391v123h391v-123zM225 401q-18 0 -41 8q-56 23 -68 80q-1 8 -1 17q0 40 29 73q35 33 79 33l13 -1q39 -6 63 -30.5t24 -57.5v-4q-3 -73 -47 -103q-7 -5 -20 -10t-31 -5zM225 18q-18 0 -41 8q-56 22 -68 79q-1 8 -1 17q0 40 29 73q34 33 77 33l15 -1
q39 -6 63 -30.5t24 -57.5v-4q-3 -72 -47 -103q-7 -5 -20 -9.5t-31 -4.5z" />
    <glyph glyph-name="om_deva" unicode="&#x950;" horiz-adv-x="692" 
d="M394 -52q-81 0 -166 40q-205 101 -205 372v5q0 84 14 148.5t21 83.5q1 3 1 4l117 -38v-1q-4 -10 -17 -68t-13 -132q0 -51 11 -102t40.5 -93t82.5 -68q60 -28 114 -28q52 0 94 26q44 29 55 72l-8 -4q-16 -9 -42 -9q-23 0 -51 12q-64 35 -64 97l1 16q7 39 33.5 67t62.5 34
l13 1q14 0 29 -4l6 20q3 10 3 21q0 30 -22 57q-9 12 -30.5 25t-57.5 13q-10 0 -21 -1q-56 -7 -87 -57q-7 -10 -11 -20q28 -4 59 -42q23 -32 23 -64q0 -20 -9 -39q-24 -45 -79 -48h-1q-67 0 -113 78q-14 28 -14 65q0 56 30 117q62 115 186 132q18 2 36 2q109 0 183 -82
q51 -64 51 -137q0 -29 -8 -57l-16 -51q44 -54 44 -123q0 -56 -30.5 -108t-84.5 -87q-73 -45 -160 -45zM328 645q-33 0 -67 17q-59 30 -105 89l95 55q41 -45 73 -45t56.5 40t0.5 77l115 45q22 -34 22 -70q0 -35 -23 -92q-28 -58 -92 -95q-37 -21 -75 -21zM357 808
q-17 -17 -42 -16t-43 19t-19 43t17 42q17 17 42 16t43 -19t18.5 -43t-16.5 -42z" />
    <glyph glyph-name="devanagaridanda" unicode="&#x964;" horiz-adv-x="264" 
d="M223 0h-123v529h123v-529z" />
    <glyph glyph-name="devanagaridoubledanda" unicode="&#x965;" horiz-adv-x="469" 
d="M223 0h-123v529h123v-529zM428 0h-123v529h123v-529z" />
    <glyph glyph-name="signcandrabinducomb_beng" unicode="&#x981;" 
d="M-121 645q-33 0 -67 17q-59 30 -105 89l95 55q41 -45 73 -45t56.5 40t0.5 77l115 45q22 -34 22 -70q0 -35 -23 -92q-28 -58 -92 -95q-37 -21 -75 -21zM-92 808q-17 -17 -42 -16t-43 19t-19 43t17 42q17 17 42 16t43 -19t18.5 -43t-16.5 -42z" />
    <glyph glyph-name="signanusvara_beng" unicode="&#x982;" horiz-adv-x="349" 
d="M170 315q-24 0 -47 7q-92 31 -100 124v11q0 59 40 107q44 50 109 58q13 1 24 1q47 0 73 -16t37 -35q20 -34 20 -77q0 -61 -39 -119q-49 -61 -117 -61zM170 438q10 0 16 8q9 11 13 25.5t4 24.5v4l-18 -1q-17 -2 -28.5 -14.5t-11.5 -28.5v-3q0 -3 1 -5t4 -4t9 -4zM254 -3
q-16 52 -55.5 88t-79.5 57q-48 25 -82.5 36.5t-36.5 11.5l29 119q6 -1 50.5 -15.5t104 -47t112.5 -86t76 -130.5z" />
    <glyph glyph-name="signvisarga_beng" unicode="&#x983;" horiz-adv-x="350" 
d="M170 315q-22 0 -47 7q-91 31 -100 124v11q0 59 40 107q44 50 110 58q13 1 24 1q47 0 72.5 -16t36.5 -35q21 -34 21 -77q0 -61 -40 -119q-48 -61 -117 -61zM170 438q10 0 16 8q9 11 13.5 25.5t4.5 25.5v3q-6 0 -18 -1q-17 -2 -28.5 -13.5t-11.5 -28.5v-3q0 -3 0.5 -5.5
t3.5 -4.5t9 -4zM170 -7q-22 0 -47 7q-91 30 -100 124v11q0 59 40 107q44 50 110 57q13 1 25 1q47 0 72.5 -15.5t36.5 -34.5q20 -34 20 -76q0 -62 -40 -121q-48 -60 -117 -60zM170 115q10 0 16 9q9 10 13.5 24.5t4.5 25.5v3h-18q-17 -3 -28.5 -14.5t-11.5 -27.5v-3q0 -6 2 -9
t11 -6z" />
    <glyph glyph-name="a_beng" unicode="&#x985;" horiz-adv-x="796" 
d="M336 188l12 1q73 12 109 89q10 19 10 48q0 22 -12 45q-1 -3 -2 -5q-3 -12 -8 -23q-16 -35 -46 -55t-64 -20q-9 0 -16 1q-80 16 -98 103q-3 13 -3 26q0 41 23 76q10 15 22 25h-105q0 -1 -1 -2q-1 -3 -1 -5q-10 -40 -10 -77q0 -72 35 -129q25 -38 66.5 -68t88.5 -30z
M632 261v238h-132q24 -15 44 -40q40 -51 45 -115l1 -19q0 -18 -3 -35q23 -11 45 -29zM75 622q46 92 134 179l87 -87q-46 -46 -78 -92h588v-123h-51v-499h-123v67q0 1 -1 1q-2 5 -15 28q-16 28 -37 48q-24 23 -39 31q-69 -92 -178 -108q-14 -2 -26 -2q-82 0 -150.5 46.5
t-107.5 107.5q-55 89 -55 196q0 42 9 84h-42v123h85z" />
    <glyph glyph-name="aa_beng" unicode="&#x986;" horiz-adv-x="1001" 
d="M336 188l12 1q73 12 109 89q10 19 10 48q0 22 -12 45q-1 -3 -2 -5q-3 -12 -8 -23q-16 -35 -46 -55t-64 -20q-9 0 -16 1q-80 16 -98 103q-3 13 -3 26q0 41 23 76q10 15 22 25h-105q0 -1 -1 -2q-1 -3 -1 -5q-10 -40 -10 -77q0 -72 35 -129q25 -38 66.5 -68t88.5 -30z
M632 261v238h-132q24 -15 44 -40q40 -51 45 -115l1 -19q0 -18 -3 -35q23 -11 45 -29zM75 622q46 92 134 179l87 -87q-46 -46 -78 -92h588q7 0 18.5 -6.5t12.5 -15.5v38h123v-16h51v-123h-51v-499h-123v446q0 20 -7 31.5t-15 16.5t-14 5h-46v-499h-123v67q0 1 -1 1
q-2 5 -15 28q-16 28 -37 48q-24 23 -39 31q-69 -92 -178 -108q-14 -2 -26 -2q-82 0 -150.5 46.5t-107.5 107.5q-55 89 -55 196q0 42 9 84h-42v123h85z" />
    <glyph glyph-name="i_beng" unicode="&#x987;" horiz-adv-x="451" 
d="M83 819q-2 -5 -4 -12q-2 -8 -2 -15q0 -10 4 -15q4 -6 19 -11t45 -5q24 0 59 5l3 1h7q14 0 54 -8t79 -42q34 -26 52 -95h62v-123h-144q36 -24 62 -58q49 -63 49 -130q0 -23 -6 -47q-12 -42 -38 -69t-57 -42q50 -38 79 -68t32 -34q-18 -15 -27 -22q-10 -8 -15 -12.5l-10 -9
t-15 -12.5q-9 -8 -26 -23q-5 6 -36.5 36.5t-82 64.5t-111.5 51q-79 17 -115 78l106 61q8 -12 25 -16l10 -3q12 -2 26 -2q18 0 37 3q58 9 77.5 23t21.5 28q2 7 2 15q0 41 -45 77q-10 -30 -32 -52q-35 -30 -76 -30q-37 0 -70 24q-45 39 -45 93q0 22 9 44q7 17 19 32h-75v123
h278l-4 5q-13 11 -27 14t-19 3q-39 -5 -71 -5q-39 0 -71 7q-61 14 -93 56q-16 22 -22.5 45t-6.5 44q0 29 6.5 50.5t9.5 26.5z" />
    <glyph glyph-name="ii_beng" unicode="&#x988;" horiz-adv-x="574" 
d="M149 819q-2 -5 -4 -12q-2 -9 -2 -16q0 -9 4 -14q4 -6 19 -11t45 -5q24 0 59 5l3 1h7q14 0 54 -8t80 -42q32 -26 51 -95h119v-123h-302q54 -35 74 -92q25 11 55 18.5t66 7.5l85 -14q-96 -72 -96 -233l1 -15q4 -29 17 -49t26 -31l10 -10h1l1 -1h-1l-69 -102
q-6 4 -28.5 24.5t-45.5 58t-32 92.5q-2 17 -2 35q0 26 5 52q-9 -25 -13 -29q-1 -2 -1 -3t-0.5 -1.5l-1 -1t-0.5 -1.5l-5 -5q-5 -6 -17 -19.5t-30 -29.5q-60 -50 -117 -50q-10 0 -19 1q-29 3 -62 28.5t-57 89.5l116 41q7 -19 13.5 -27.5t8.5 -9.5q2 0 11.5 4t26.5 18
q20 18 28 28q3 6 7 17.5t6 25.5v1q1 7 1 13l1 11l-2 13q-51 -63 -110 -65q-49 0 -88 43q-22 29 -22 66q0 45 32 88l12 13h-77v123h344l-4 5q-12 11 -26.5 14t-19.5 3q-39 -5 -71 -5q-39 0 -70 7q-62 14 -94 56q-16 22 -22.5 45t-6.5 44q0 29 6.5 50.5t9.5 26.5z" />
    <glyph glyph-name="u_beng" unicode="&#x989;" horiz-adv-x="613" 
d="M335 23q-82 0 -150 46.5t-107 107.5q-55 89 -55 197q0 52 13 106l119 -31q-9 -38 -9 -75q0 -72 35 -130q24 -38 65.5 -68t88.5 -30q6 0 13 1q73 12 109 88q10 20 10 49l-1 12l-35 -22q-44 -24 -77 -24q-21 0 -36 6q-28 10 -45.5 27.5t-26.5 33.5t-11 22l-5 11v149h-240
v123h405q-17 16 -31 19t-19 3q-39 -5 -71 -5q-39 0 -71 7q-61 14 -93 56q-16 22 -22.5 45t-6.5 44q0 30 6.5 51t9.5 26l112 -49l1 1q-2 -5 -4 -13t-2 -15q0 -10 4 -15q4 -6 19 -11t45 -5q24 0 59 5l3 1h7q14 0 53.5 -8t79.5 -42q34 -26 52 -95h97v-123h-270v-122l3 -3
q2 0 6 2q1 1 3 2q43 26 83 48.5t60 33.5q10 5 11 6l28 -54q37 -50 42 -111l1 -17q0 -48 -20 -96q-65 -141 -208 -163q-13 -2 -27 -2z" />
    <glyph glyph-name="uu_beng" unicode="&#x98a;" horiz-adv-x="731" 
d="M364 16q-147 0 -237 88q-44 44 -66.5 97.5t-30 106.5t-7.5 95q0 32 2 53t3 24l121 -18v-1q-3 -13 -3 -59t13 -106t55 -105l8 -7q-48 87 -48 191q0 51 12 103l120 -28q-9 -39 -9 -77q0 -73 33 -131q23 -38 60.5 -67t77.5 -29h5.5t5.5 1q61 11 94 81q4 8 8 22t4 31l-1 15
l-35 -22q-44 -24 -76 -24q-21 0 -37 6q-28 10 -45.5 27.5t-26.5 33.5t-11 22l-4 11v149h-359v123h466l-2 2q-1 2 -3 3q-12 11 -26 14t-19 3q-39 -5 -71 -5q-39 0 -71 7q-61 14 -93 56q-16 22 -22.5 45t-6.5 44q0 30 6.5 51t9.5 26l112 -49l1 1q-2 -5 -4 -13t-2 -15
q0 -10 4 -15q4 -6 19 -11t45 -5q24 0 59 5l3 1h7q14 0 53.5 -8t79.5 -42q34 -26 52 -95h154v-123h-269v-122l2 -3q2 0 5 2q2 1 5 2q35 22 69.5 41.5t58 32.5t26.5 14q70 -112 70 -184q0 -51 -22 -103q-26 -61 -75 -101q-54 -45 -117 -53q-14 -2 -26 -2h-12q-48 -7 -92 -7z
" />
    <glyph glyph-name="vocalicr_beng" unicode="&#x98b;" horiz-adv-x="820" 
d="M575 0h-123v23l-1 -1q-20 37 -53.5 55.5t-70.5 24.5t-63 6q-27 0 -35 -2l-36 -5q-38 52 -56 73l-42 52l197 173l-5 22q-58 -47 -120 -47q-97 0 -149 109q-18 44 -18 75q0 34 13 54q33 54 92 54q29 0 55 -15q42 -30 42 -75q0 -11 -3 -23q-9 -34 -25 -56q34 12 52 36.5
t18 49.5l-5 22l117 38q4 -10 6 -21l27 -99q3 -17 8 -32l55 48v83h123v-375q39 -9 82 -44v419h173v-123h-51v-466h-122q-24 51 -82 78v-111zM452 188v188l-166 -146q94 -3 166 -42z" />
    <glyph glyph-name="e_beng" unicode="&#x98f;" horiz-adv-x="630" 
d="M466 469q0 28 -25 30h-6q-19 0 -41.5 -13t-41.5 -42q15 0 31 -8q11 -5 27.5 -22t16.5 -54q0 -39 -25.5 -71t-57.5 -48q-25 -12 -49 -12q-31 0 -56 20q-22 18 -30 43.5t-8 51.5q0 23 3.5 42.5t5.5 31.5q1 1 1 2q25 101 97 156q61 46 127 46l20 -1q126 -21 134 -151v-470
h-123v19q0 4 -5.5 15.5t-20.5 21.5q-9 6 -50 10.5t-66 4.5q-32 0 -82 -11q-29 -7 -54 -7q-39 0 -66 14t-42 31q-57 57 -57 186q0 44 7 97q9 64 20 111t15 59q1 2 1 3l118 -34q-2 -3 -13 -48t-19 -108q-5 -46 -5 -80q0 -42 6 -67t15 -34q1 -2 6 -4.5t15 -2.5q9 0 23 3
q61 15 112 15q82 0 138 -38l4 -3v316z" />
    <glyph glyph-name="ai_beng" unicode="&#x990;" horiz-adv-x="792" 
d="M589 358q28 47 52 115q4 13 4 30q0 22 -11 47q-27 50 -114 73q-87 25 -130.5 64.5t-58.5 76.5q-10 24 -14 44t-4 35q0 21 3 27l121 -22v-3q0 -4 1.5 -13.5t7.5 -21.5q24 -46 106 -68q138 -38 191 -134q15 -28 20.5 -54.5t5.5 -49.5q0 -25 -4 -43.5t-7 -26.5
q-40 -112 -89 -179q-49 -66 -80 -93v-162h-123v19q0 4 -5.5 15.5t-20.5 21.5q-9 6 -50 10.5t-66 4.5q-32 0 -82 -11q-29 -7 -54 -7q-39 0 -66 14t-42 31q-57 57 -57 186q0 44 7 97q9 64 20 111t15 59q1 2 1 3l118 -34q-2 -3 -13 -48t-19 -108q-5 -46 -5 -80q0 -42 6 -67
t15 -34q1 -2 6 -4.5t15 -2.5q9 0 23 3q61 15 112 15q82 0 138 -38l4 -3v316q0 28 -25 30h-6q-19 0 -41.5 -13t-41.5 -42q15 0 31 -8q11 -5 27.5 -22t16.5 -54q0 -39 -25.5 -71t-57.5 -48q-25 -12 -49 -12q-31 0 -56 20q-22 18 -30 43.5t-8 51.5q0 23 3.5 42.5t5.5 31.5
q1 1 1 2q25 101 97 156q61 46 127 46l20 -1q126 -21 134 -151v-112z" />
    <glyph glyph-name="o_beng" unicode="&#x993;" horiz-adv-x="692" 
d="M394 -52q-81 0 -166 40q-205 101 -205 372v5q0 84 14 148.5t21 83.5q1 3 1 4l117 -38v-1q-4 -10 -17 -68t-13 -132q0 -51 11 -102t40.5 -93t82.5 -68q60 -28 114 -28q52 0 94 26q44 29 55 72l-8 -4q-16 -9 -42 -9q-23 0 -51 12q-64 35 -64 97l1 16q7 39 33.5 67t62.5 34
l13 1q14 0 29 -4l6 20q3 10 3 21q0 30 -22 57q-9 12 -30.5 25t-57.5 13q-10 0 -21 -1q-56 -7 -87 -57q-7 -10 -11 -20q28 -4 59 -42q23 -32 23 -64q0 -20 -9 -39q-24 -45 -79 -48h-1q-67 0 -113 78q-14 28 -14 65q0 56 30 117q62 115 186 132q18 2 36 2q109 0 183 -82
q51 -64 51 -137q0 -29 -8 -57l-16 -51q44 -54 44 -123q0 -56 -30.5 -108t-84.5 -87q-73 -45 -160 -45z" />
    <glyph glyph-name="au_beng" unicode="&#x994;" horiz-adv-x="849" 
d="M532 890q-11 -28 -11 -54q0 -63 77 -83q88 -26 135 -68q75 -67 88 -149q5 -32 5 -61q-9 -148 -97 -210q-26 -17 -52 -25q5 -16 6 -33q0 -127 -100 -202q-81 -59 -182 -59q-69 0 -143 28q-209 81 -233 356q-2 28 -2 54q0 77 9.5 130.5t11.5 58.5l119 -30q-1 -3 -9 -47.5
t-8 -107.5q0 -237 156 -299q52 -19 99 -19q62 0 108 33q42 33 50 76q-27 -17 -58 -17q-19 0 -43 8q-71 31 -71 99q0 44 28 78q33 41 82 41l20 -1q6 24 6 34q0 32 -27.5 63t-79.5 31q-79 0 -114 -67q-6 -10 -9 -21q28 -1 62 -37q29 -34 29 -70q0 -16 -7 -32q-21 -47 -75 -53
q-4 -1 -9 -1q-63 0 -111 69q-20 34 -20 81q0 49 22 102q53 119 176 146q29 6 57 6q97 0 167 -69q62 -67 62 -146q0 -27 -10 -67q12 3 23 11q41 33 44 118q0 33 -15 63q-32 62 -121 86q-67 19 -101 51q-68 61 -68 151q0 41 9 69.5t13 34.5z" />
    <glyph glyph-name="ka_beng" unicode="&#x995;" horiz-adv-x="711" 
d="M460 0h-123v34q-23 66 -104 87q-46 9 -73 9l-21 -1l-43 -6q-31 64 -42.5 86.5t-30.5 60.5l270 229h-303v123h731v-123h-130q97 -62 97 -144q0 -19 -5 -37q-26 -92 -146 -107q-3 -1 -41 -2l-3 123q17 1 32.5 2t26.5 5.5t11.5 8.5t1.5 6q0 3 -3 8q-22 35 -102 63v-425z
M337 211v164l-145 -123q81 -5 145 -41z" />
    <glyph glyph-name="kha_beng" unicode="&#x996;" horiz-adv-x="649" 
d="M608 0h-123v63q-29 68 -128 90q-59 10 -91 10q-25 -1 -51 -4l-87 95l60 40q57 37 103 91q-36 -26 -86 -35q-13 -2 -26 -2q-72 0 -124 66q-33 47 -33 94q0 27 12 51q30 55 93 55q45 0 65 -30q12 -20 12 -41q0 -34 -35 -70l10 -2l5 1q55 11 90 69l15 26l23 60l58 -25
q17 -7 36 -24t33 -44.5t14 -65.5q0 -27 -9 -60q-25 -74 -84 -130q76 -16 125 -43v387h174v-123h-51v-499z" />
    <glyph glyph-name="ga_beng" unicode="&#x997;" horiz-adv-x="557" 
d="M516 0h-123v360q-20 33 -61 73q-46 46 -104 50q-16 0 -25.5 -4t-15.5 -9t-11 -13l-4 -4l8 -1q40 -4 73 -15q60 -22 78 -82q11 -38 11 -68q0 -54 -28 -90q-25 -31 -55 -46q-45 -21 -84 -21l-2 123h-1q8 0 21 4q26 7 26 29q0 13 -6 33v2q-10 4 -51 9q-91 10 -139 17l6 59
q0 6 6 33.5t23.5 62.5t52.5 64q51 40 119 40q83 0 163 -63v107h123v-28h51v-123h-51v-499z" />
    <glyph glyph-name="gha_beng" unicode="&#x998;" horiz-adv-x="489" 
d="M448 0h-123v48q-38 32 -119 32q-41 0 -72 -6l-31 -7l-92 76l94 138q-38 14 -60 57t-22 94q0 34 11 67h-44v123h509v-123h-51v-499zM325 186v313h-137q-41 -16 -41 -51q0 -24 19 -46t49 -31l85 -22l-99 -146q72 0 124 -17z" />
    <glyph glyph-name="nga_beng" unicode="&#x999;" horiz-adv-x="655" 
d="M321 41q-118 0 -195 70q-84 79 -100 226q-3 35 -3 63q0 47 3 62v2l122 -16q-3 -18 -3 -47q0 -237 176 -237q36 0 78 9q55 13 79 39q-25 -9 -59 -17q-24 -6 -44 -6q-49 0 -84 26q-50 36 -65 98q-6 22 -6 27q-3 27 -4 53q-13 12 -27 29q-33 42 -52 77h-147v123h227l16 -38
l15 -31q8 13 17 25q30 34 57 45t33.5 11.5t11.5 0.5q55 0 101 -37.5t59 -93.5q3 -12 3 -26q0 -36 -25 -73.5t-85 -61.5q-27 -12 -71 -12q9 -19 27 -19l15 2q99 26 116 59l30 38l82 -20l7 -38q6 -19 6 -56q0 -39 -15 -89q-14 -44 -57.5 -89t-134.5 -67q-56 -11 -104 -11z
M357 454q13 0 20 4q26 12 30 20q-4 13 -14 21.5t-21 11.5q-16 -6 -29 -55z" />
    <glyph glyph-name="ca_beng" unicode="&#x99a;" horiz-adv-x="460" 
d="M190 39q-22 0 -39 3q-47 9 -74 50q-36 52 -36 116v291h-51v123h480v-123h-306v-37q17 -21 95 -32q32 -3 57 -3l49 2l59 6l9 -61q5 -20 5 -72q0 -130 -56 -202q-48 -59 -135 -59q-35 -2 -57 -2zM186 162l56 2l17 1q20 0 28 13q28 36 28 126q-86 0 -151 20v-116
q0 -25 13 -45z" />
    <glyph glyph-name="cha_beng" unicode="&#x99b;" horiz-adv-x="554" 
d="M411 -31q-5 18 -42.5 39t-116.5 37q-56 11 -101.5 15t-61.5 4l4 123h25q60 0 135.5 10t116.5 36q18 13 28 34t10 41q0 10 -3 18l-1 3q-1 2 -5 7.5t-14 9.5l-14 -31q-47 -88 -135 -109q-25 -6 -48 -6q-31 0 -53 9q-54 22 -76 72q-18 41 -18 79v139h-51v123h574v-123h-350
q49 -28 107 -28l38 2q59 0 101 -27.5t61 -77.5q10 -29 10 -60q0 -34 -12 -69q-24 -68 -79 -107q-9 -7 -20 -13q86 -44 108 -112zM188 323q8 0 20 2q28 9 43 30q-49 12 -87 32v-27q0 -8 3.5 -19t7.5 -14.5t13 -3.5z" />
    <glyph glyph-name="ja_beng" unicode="&#x99c;" horiz-adv-x="792" 
d="M594 4q-38 74 -38 156q0 109 58 212l-42 27q-58 35 -149 98q-19 -12 -44 -30.5t-44 -41t-19 -44.5q0 -8 2.5 -14.5t9.5 -8.5q7 0 26 11t48 43l25 28l73 -20l13 -37q8 -23 20 -86q5 -34 5 -64q0 -68 -26 -115q-36 -61 -108 -75q-53 -11 -110 -11q-42 0 -83 11
q-124 31 -165 194q-21 87 -23 239l123 2q2 -254 66 -301q24 -23 81 -23q34 0 88 10q18 4 24 16q10 21 10 52l-1 29q-44 -25 -85 -25l-20 1q-34 6 -56 22.5t-33 32.5t-12 20q-16 27 -16 69q0 60 45 118h-247v123h812v-123h-158q56 -34 93 -64l44 -38l-35 -46q-2 -2 -18 -28.5
t-32 -70t-16 -93.5q0 -48 23 -98z" />
    <glyph glyph-name="jha_beng" unicode="&#x99d;" horiz-adv-x="748" 
d="M503 0h-123v23h-1q-20 37 -53.5 55t-70 24t-63.5 6t-35 -2l-36 -5l-98 125l310 273h-343v123h513v-374q39 -10 82 -45v419h173v-123h-51v-466h-109q-8 21 -36.5 45t-58.5 33v-111zM380 188v188l-166 -146q94 -3 166 -42z" />
    <glyph glyph-name="nya_beng" unicode="&#x99e;" horiz-adv-x="938" 
d="M574 0h-123q0 28 -6 41q-20 40 -110 40q-35 0 -63 -5t-55 -5q-104 0 -151 63q-43 54 -43 139q0 42 7 73.5t10 39.5l118 -37q-12 -37 -12 -78q0 -35 15 -59q16 -18 56 -18q11 0 21.5 1.5t36 5t59.5 3.5q66 0 117 -18v245q0 35 -6.5 51.5t-13.5 16.5q-38 0 -61 -10t-35 -23
t-17 -24q17 11 39 11q23 0 44 -15q29 -22 29 -70q-2 -49 -32 -77t-72 -28q-52 0 -95 42t-43 108q0 45 25.5 93t77.5 81t138 35q48 0 87 -32q23 -20 37 -49h1q72 44 137 44q42 0 69 -14q71 -31 100.5 -74.5t29.5 -87.5q0 -22 -3.5 -34t-14.5 -39q17 -17 30 -44t13 -58
q-2 -36 -14 -62t-43 -54q-35 -32 -81.5 -49t-93.5 -17q-57 0 -109 27v-79zM683 174q26 0 42 7q34 12 50 27.5t16 25.5q0 7 -5 13q-42 -23 -81 -23q-47 0 -79.5 30t-32.5 69q2 36 25 62t74 26q36 0 73 -12q2 5 1.5 6t0.5 4q0 26 -54 49q-10 4 -22 4q-51 0 -117 -58v-159l5 -5
q29 -36 48.5 -51t55.5 -15z" />
    <glyph glyph-name="tta_beng" unicode="&#x99f;" horiz-adv-x="466" 
d="M203 40q-85 0 -135 70q-25 40 -27 69v320h-51v123h312q-2 8 -4 9q-10 9 -69 9l-48 -1q-40 0 -80.5 9.5t-72.5 40.5q-49 49 -49 144v12l123 -4v-8q0 -42 13 -58q14 -13 66 -13l59 1q40 0 79.5 -8.5t70.5 -42t36 -90.5h50v-123h-312v-306q2 -9 7 -17q10 -13 32 -13
q47 0 89 46q11 13 20 34q-59 13 -89 63q-12 21 -12 44q0 29 20 54q38 44 85 44q13 0 25 -3q78 -24 98 -117q4 -22 4 -43q0 -85 -57 -155q-82 -90 -183 -90z" />
    <glyph glyph-name="ttha_beng" unicode="&#x9a0;" horiz-adv-x="541" 
d="M286 40q-45 2 -80.5 13t-72.5 39q-46 35 -68.5 77t-41.5 104l60 44l21 -2q19 0 40 10q49 23 49 108q0 30 -6 66h-197v123h174q-23 55 -23 103q0 26 6 50q19 59 59 89.5t71 38.5l34 -119q-1 0 -10.5 -4t-19.5 -14q-17 -15 -17 -41q0 -40 38 -103h249v-123h-150
q117 -122 117 -241q0 -91 -67 -154.5t-165 -63.5zM286 164q47 0 78 27.5t31 67.5q0 65 -79 152q-7 -83 -44.5 -133t-84.5 -69q25 -27 49.5 -35.5t49.5 -9.5z" />
    <glyph glyph-name="dda_beng" unicode="&#x9a1;" horiz-adv-x="626" 
d="M329 46q-129 0 -208 77q-98 96 -98 281q0 55 4 72v3l122 -18q-4 -22 -4 -57q0 -46 13 -101q30 -134 172 -134q35 0 76 8q28 6 41 17q33 26 33 89l-1 20l-21 -14q-40 -28 -69 -43t-63 -15q-28 0 -51 13q-60 38 -60 129q1 18 1 126h-226v123h646v-123h-297v-124l1 -16
l163 107l69 -25l10 -28q3 -8 12 -44.5t9 -86.5q0 -74 -31 -129q-46 -77 -143 -96q-53 -11 -100 -11z" />
    <glyph glyph-name="ddha_beng" unicode="&#x9a2;" horiz-adv-x="466" 
d="M204 40q-87 0 -136 70q-23 37 -26 68q0 1 -0.5 3t-0.5 318h-51v123h486v-123h-312v-306q2 -8 8 -17q9 -13 32 -13q45 0 88 46q12 13 20 34q-59 13 -89 63q-11 21 -11 43q0 30 19 55q38 44 86 44q12 0 25 -3q77 -24 97 -117q4 -22 4 -44q0 -84 -57 -154q-83 -90 -182 -90z
" />
    <glyph glyph-name="nna_beng" unicode="&#x9a3;" horiz-adv-x="497" 
d="M456 0h-123v341l-29 57q-17 33 -36 61q-27 40 -57 40q-26 0 -48 -23q-17 -24 -17 -53l2 1q22 14 45 14q18 0 35 -9q38 -25 38 -71v-3q-4 -54 -48 -76q-23 -14 -61 -14q-63 0 -111 65q-7 11 -10 19q-13 33 -13 74q0 71 45 130q27 33 64.5 51t78.5 18q30 0 59 -11
q37 -14 63 -40v67h123v-16h51v-123h-51v-499z" />
    <glyph glyph-name="ta_beng" unicode="&#x9a4;" horiz-adv-x="613" 
d="M336 149q6 0 13 1q72 12 108 88q11 19 11 48q0 28 -20 57q-31 34 -70 34l-11 -1q-21 -4 -24 -10v-1q9 0 19 -2q50 -14 55 -67v-4q0 -46 -48 -68q-13 -4 -27 -4q-24 0 -46 11q-62 35 -75 102q-2 13 -2 25q0 41 23 77q35 51 107 62l12 2h-189l-3 -7q-8 -19 -13 -40
q-10 -39 -10 -76q0 -72 36 -130q24 -38 65.5 -67.5t88.5 -29.5zM98 622q43 71 111 140l87 -87q-25 -27 -48 -53h375v-123h-228q91 -9 149 -80q40 -51 45 -115l1 -21q0 -46 -19 -92q-65 -141 -209 -163h-2q-12 -2 -24 -2q-82 0 -150.5 46.5t-107.5 107.5q-55 89 -55 195
q0 53 14 107q2 9 4 17h-51v123h108z" />
    <glyph glyph-name="tha_beng" unicode="&#x9a5;" horiz-adv-x="590" 
d="M549 0h-123q0 53 -1 54q-6 10 -39.5 23t-110.5 20q-38 2 -67 2q-37 0 -47 -1l-44 -3l-53 114l30 11q31 12 70 37t69.5 65t30.5 97q0 21 -15 42.5t-40 29.5q10 -18 10 -39q-5 -49 -38.5 -75t-65.5 -26q-40 0 -66 31.5t-26 72.5q0 29 10.5 55t25.5 44q51 61 134 63
q75 0 132 -58q61 -62 62 -148q0 -52 -20 -110t-62 -83q72 -7 121 -25v429h174v-123h-51v-499z" />
    <glyph glyph-name="da_beng" unicode="&#x9a6;" horiz-adv-x="522" 
d="M406 -29q-33 32 -61 85t-36 97q-4 22 -4 45q0 44 13 91q-51 -44 -92 -93.5t-59.5 -77t-36.5 -54.5l-89 65v370h-51v123h542v-123h-368v-187q2 2 3 2q130 140 244 156l31 4l69 -70q-32 -48 -42 -67q-40 -71 -40 -138q0 -42 19 -79t43 -59z" />
    <glyph glyph-name="dha_beng" unicode="&#x9a7;" horiz-adv-x="501" 
d="M460 0h-123v25q-24 67 -104 87q-48 10 -75 10l-19 -1l-43 -6l-73 146l122 104q-53 15 -86.5 57.5t-34.5 100.5q0 58 36 102.5t94 57.5q11 2 21 2q9 0 17 -2q32 -6 51 -29t19 -54q-3 -43 -31 -65q-23 -20 -54 -20l-30 3q5 -29 33 -35l87 -15l70 60v94h174v-123h-51v-499z
M337 202v165l-145 -124q81 -5 145 -41z" />
    <glyph glyph-name="na_beng" unicode="&#x9a8;" horiz-adv-x="520" 
d="M479 0h-123v181q-21 42 -43 77q-52 76 -86 77q-17 0 -33 -16q-47 -46 -47 -83q0 -11 4 -20q32 29 73 29q18 0 34.5 -8.5t28.5 -25.5t12 -42q-8 -86 -84 -103q-12 -3 -24 -3q-40 0 -77.5 21.5t-64 60t-26.5 91.5q0 61 45 124q72 98 158 98l17 -1q59 -7 113 -58v100h-366
v123h540v-123h-51v-499z" />
    <glyph glyph-name="pa_beng" unicode="&#x9aa;" horiz-adv-x="577" 
d="M536 0h-123v342q-8 3 -14 3q-48 -4 -115 -77q-29 -32 -46.5 -57t-17.5 -26q-24 15 -34 21.5t-15 10t-10.5 6.5t-15.5 9l-30 18q32 49 32 86q0 29 -21.5 48t-46.5 29l-56 15v103l25 19q6 6 47.5 28t106.5 37q34 7 67 7q46 0 88 -13q30 -8 56 -22v51h123v-16h51v-123h-51
v-499zM255 409q62 49 120 58q-49 32 -104 32q-36 0 -76 -12q38 -28 60 -78z" />
    <glyph glyph-name="pha_beng" unicode="&#x9ab;" horiz-adv-x="674" 
d="M-10 622h694v-123h-484l96 -115v-73l-71 -63l34 -9q35 -11 63 -26v226l46 12q1 0 7 1q20 5 66 9h18q77 0 123 -35q18 -13 34.5 -40t16.5 -71v-123h-123v123q0 6 -0.5 8.5t-1.5 4t-2 1.5q-16 10 -46 10l-15 -1v-338h-123q-4 28 -28 65.5t-70 54.5q-44 13 -78 16.5t-35 3.5
l-32 2q-11 18 -17 26l-9 13.5t-6 10t-9 15.5l-15 24l137 123l-117 145h-53v123z" />
    <glyph glyph-name="ba_beng" unicode="&#x9ac;" horiz-adv-x="501" 
d="M460 0h-123v50q-7 23 -29.5 44.5t-71.5 29.5q-21 3 -38 3q-20 0 -33.5 -2t-18.5 -3h-1l-47 -11l-75 150l279 238h-312v123h521v-123h-51v-499zM337 220v147l-138 -117q26 0 55 -4q46 -7 83 -26z" />
    <glyph glyph-name="bha_beng" unicode="&#x9ad;" horiz-adv-x="604" 
d="M614 499h-624v123h624v-123zM338 55q-28 0 -61 5q-101 18 -164 92q-48 56 -71 142q-12 44 -15.5 83.5t-3.5 65.5l1 32l123 -11l-1 -22q0 -20 3 -52t12 -67q34 -125 136 -141q23 -4 43 -4q62 0 92 40q9 12 14 25q-44 -18 -87 -18t-77 11q-49 15 -78.5 54t-29.5 87
q0 16 4 33q17 63 78 82q15 4 29 4q37 0 65 -25q27 -27 27 -65q0 -16 -5 -32q-4 -15 -13 -26q21 0 38 9q25 14 37 59l14 56l92 -17q20 -36 30.5 -68.5t10.5 -81.5q0 -42 -12 -83t-38 -77q-13 -19 -38 -39.5t-63 -35.5t-92 -15z" />
    <glyph glyph-name="ma_beng" unicode="&#x9ae;" horiz-adv-x="531" 
d="M490 0h-123v157q-12 23 -34 54q-48 64 -85 70h-4q-27 0 -60 -42q-19 -25 -19 -43q0 -8 4 -15v-2q14 12 33.5 20.5t41.5 8.5q17 0 34 -8q15 -8 27 -25t12 -41l-2 -18q-15 -66 -84 -81q-11 -2 -23 -2q-41 0 -80.5 22.5t-63.5 61.5q-8 11 -15.5 31.5t-7.5 48.5q0 21 7.5 47
t26.5 54q-56 39 -64 98l-1 15q0 43 28 88h-48v123h551v-123h-51v-499zM367 355v144h-157q-3 -2 -7 -5q-15 -12 -34 -29q-23 -23 -29.5 -36.5t-6.5 -17.5q0 -2 7.5 -9t28.5 -16q42 18 74 18l20 -1q53 -7 104 -48z" />
    <glyph glyph-name="ya_beng" unicode="&#x9af;" horiz-adv-x="486" 
d="M322 499h-122l96 -115v-73l-71 -63l34 -9q35 -11 63 -26v286zM445 499v-499h-123q-4 28 -28 65.5t-70 54.5q-44 13 -78 16.5t-35 3.5l-32 2q-11 18 -17 26l-9 13.5t-6 10t-9 15.5l-15 24l137 123l-117 145h-53v123h506v-123h-51z" />
    <glyph glyph-name="ra_beng" unicode="&#x9b0;" horiz-adv-x="501" 
d="M460 0h-123v50q-7 23 -29.5 44.5t-71.5 29.5q-21 3 -38 3q-20 0 -33.5 -2t-18.5 -3h-1l-47 -11l-75 150l279 238h-312v123h521v-123h-51v-499zM337 220v147l-138 -117q26 0 55 -4q46 -7 83 -26zM215 -91q-35 0 -59.5 24.5t-24.5 59.5t24.5 59.5t59.5 24.5t59.5 -24.5
t24.5 -59.5t-24.5 -59.5t-59.5 -24.5z" />
    <glyph glyph-name="la_beng" unicode="&#x9b2;" horiz-adv-x="671" 
d="M630 0h-123v264q-21 17 -33.5 22t-18.5 5h-2q-14 -7 -27 -39t-17 -66q2 -27 2 -56h-123q0 82 -16.5 125t-36.5 52q-7 4 -15 4q-14 0 -32 -11q-20 -12 -29 -23t-11 -19.5t-2 -13.5v-2l1 -4h14q21 0 44 -6.5t40 -27.5q6 -7 11.5 -19.5t5.5 -30.5q0 -22 -14 -52
q-26 -43 -71 -43h-13q-46 8 -85 50.5t-52 99.5q-4 18 -4 36q0 96 102 161q48 29 95 29q40 0 76 -21q32 -17 55 -50q26 30 60 42q22 8 46 8q25 0 50 -9v94h-517v123h691v-123h-51v-499z" />
    <glyph glyph-name="sha_beng" unicode="&#x9b6;" horiz-adv-x="678" 
d="M637 0h-123v431l-157 62q-37 -39 -42 -66q36 11 63 12h8q38 0 56.5 -15t24.5 -29q7 -16 7 -33q0 -50 -60 -93q-14 -9 -35 -17.5t-47 -8.5h-2q-48 0 -84 33q-37 -36 -85 -36q-34 0 -69 20q-34 20 -53 51q-16 28 -16 55q0 18 6 34q5 14 22.5 31.5t54.5 23.5q11 2 23 2
q15 0 31 -2q-6 11 -16 21q-20 23 -49 23h-105v123h105q83 0 143 -66l5 -6q12 15 27 30q39 37 87 37q23 0 45 -9l112 -45v75h123v-16h46v-123h-46v-499z" />
    <glyph glyph-name="ssa_beng" unicode="&#x9b7;" horiz-adv-x="548" 
d="M507 0h-123q-22 132 -131 142q-24 2 -46 2q-30 0 -52.5 -2.5t-28.5 -3.5h-2l-41 -8l-60 96l149 141l-134 132h-48v123h568v-123h-51v-499zM384 408v91h-171l54 -54zM384 234v45l-94 30l-45 -42l20 -2q69 -7 119 -31z" />
    <glyph glyph-name="sa_beng" unicode="&#x9b8;" horiz-adv-x="634" 
d="M151 18q-64 0 -139 25l38 117q61 -18 101 -18q36 0 55.5 9.5t24.5 22.5q2 5 2 10q0 15 -14 32.5t-43 31.5q-60 28 -94 67q-33 40 -40 88l-1 20q0 41 17 76h-68v123h654v-123h-51v-499h-123v225q-39 36 -66.5 51.5t-43.5 15.5l-8 -1q-13 -4 -22 -18l6 -11q20 -38 20 -77
q0 -28 -11 -56q-30 -76 -124 -102q-32 -9 -70 -9zM238 355q27 37 80 55q20 5 41 5q39 0 81 -18q15 -7 30 -16v118h-264q-17 -17 -29.5 -38.5t-12.5 -38.5v-4q4 -20 25 -35t39 -23z" />
    <glyph glyph-name="ha_beng" unicode="&#x9b9;" horiz-adv-x="451" 
d="M345 -29q-5 6 -36.5 36.5t-81.5 64.5t-111 51q-80 17 -116 78l107 61q7 -11 25 -16l10 -2q13 -3 28 -3q17 0 35 3q57 9 77 23.5t22 27.5l2 14q0 21 -13 41.5t-33 37.5q-9 -31 -32 -53q-35 -29 -77 -29q-37 0 -69 23q-44 40 -44 94q0 22 8 43q8 18 20 33h-76v123h471v-123
h-144q36 -25 62 -58q49 -63 49 -130q0 -24 -6 -47q-12 -43 -38 -70t-57 -42q45 -34 74 -62t36 -37l2 -2z" />
    <glyph glyph-name="signnuktacomb_beng" unicode="&#x9bc;" 
d="M-56 -152q-35 0 -59.5 24.5t-24.5 59.5t24.5 59.5t59.5 24.5t59.5 -24.5t24.5 -59.5t-24.5 -59.5t-59.5 -24.5z" />
    <glyph glyph-name="vowelsignaa_beng" unicode="&#x9be;" horiz-adv-x="205" 
d="M164 0h-123v446q0 20 -7 31.5t-15 16.5t-14 5h-15v123h20q7 0 18.5 -6.5t12.5 -15.5v38h123v-16h51v-123h-51v-499z" />
    <glyph glyph-name="vowelsigni_beng" unicode="&#x9bf;" horiz-adv-x="205" 
d="M164 0h-123v499h-51v123h51v3l-75 111l11 30q1 5 20.5 41t62.5 75.5t112 56.5q26 6 54 6q160 0 356 -193l-86 -87q-162 157 -270 157q-14 0 -27 -3q-35 -9 -58 -29.5t-35 -40.5l58 -86v-41h51v-123h-51v-499z" />
    <glyph glyph-name="vowelsignii_beng" unicode="&#x9c0;" horiz-adv-x="205" 
d="M164 0h-123v499h-51v123h51l1 52q0 40 -13 100t-52 90q-25 15 -56 15q-71 0 -170 -56q-53 -30 -67 -57q68 32 119 33q51 0 92 -26q64 -41 64 -145v-43h-123v43q0 42 -16 42q-36 0 -78 -16t-69 -16q-44 0 -81 32q-37 38 -37 86q0 66 45 107t92 68q131 71 230 71
q69 0 122 -35q89 -59 114 -201q7 -57 7 -91l-1 -53h51v-123h-51v-499z" />
    <glyph glyph-name="vowelsignucomb_beng" unicode="&#x9c1;" 
d="M-201 -309q-25 0 -52 9q-51 19 -73 64q-13 26 -13 59q0 28 10 60q30 92 130 102h10q15 0 30 -2q-2 8 -5 17v40h123v-21q6 -26 13 -75l1 -10q114 -70 173 -190l-112 -50q-27 56 -82 103q-9 -21 -22 -39q-32 -42 -81 -59q-24 -8 -50 -8zM-201 -186q18 0 32 17q9 12 13 27
q-16 4 -28 4h-7q-11 -1 -14.5 -4.5t-5.5 -9.5q-5 -17 -5 -25l1 -6l3 -1z" />
    <glyph glyph-name="vowelsignuucomb_beng" unicode="&#x9c2;" 
d="M-19 -135l125 -111l-80 -93l-80 68q-59 -41 -125 -41q-21 0 -41 5q-51 12 -80.5 50t-29.5 92q0 50 19 75.5t36 34.5q30 20 73 20q19 0 38 -3v78h123v-105l-142 -86q-14 1 -23 -8q-1 -1 -1 -6q0 -14 7.5 -25t28.5 -11t38 25z" />
    <glyph glyph-name="vowelsignvocalicrcomb_beng" unicode="&#x9c3;" 
d="M-49 -342l-266 194v85l151 80v23h123v-97l-110 -58l174 -128z" />
    <glyph glyph-name="vowelsigne_beng" unicode="&#x9c7;" horiz-adv-x="345" 
d="M286 499q-18 -13 -45.5 -40t-53.5 -68q-41 -68 -41 -139q0 -77 47 -157q5 -8 17.5 -23.5t26.5 -30.5q33 58 101 64h4q31 0 54 -23q15 -16 19.5 -34.5t4.5 -33.5l-1 -20l-1 -2q-5 -55 -49 -89q-36 -25 -75 -25q-15 0 -28 4q-12 2 -22 6q-43 16 -78 49q-19 18 -42.5 46
t-36.5 50q-34 60 -49 115t-15 104q0 63 18.5 115.5t43.5 91.5q14 21 28 40h-123v123h365v-123h-69z" />
    <glyph glyph-name="vowelsignai_beng" unicode="&#x9c8;" horiz-adv-x="345" 
d="M233 622q3 10 -6 23.5t-26 15.5q-43 4 -91 4h-3q-54 0 -88 17.5t-51 37.5q-34 39 -43 81t-9 62v12l122 -8q0 -8 3.5 -28t16.5 -35q3 -4 14 -10t37 -6h23q59 0 103.5 -8.5t75.5 -38.5q24 -24 34 -55.5t10 -63.5v-123h-70q-17 -13 -44.5 -40t-53.5 -68q-41 -68 -41 -139
q0 -77 47 -157q5 -8 17.5 -23.5t26.5 -30.5q33 58 101 64h4q31 0 54 -23q14 -15 18.5 -33.5t4.5 -33.5l-1 -21q0 -27 -14.5 -51.5t-35.5 -39.5q-34 -25 -75 -25q-13 0 -28 4q-10 2 -22 6q-43 16 -78 49q-18 18 -41.5 46t-36.5 50q-34 60 -49 115t-15 104q0 63 18 115.5
t43 91.5q14 21 28 40h-122v123h243z" />
    <glyph glyph-name="vowelsigno_beng" unicode="&#x9cb;" horiz-adv-x="1198" 
d="M286 499q-18 -13 -45.5 -40t-53.5 -68q-41 -68 -41 -139q0 -77 47 -157q5 -8 17.5 -23.5t26.5 -30.5q33 58 101 64h4q31 0 54 -23q15 -16 19.5 -34.5t4.5 -33.5l-1 -20l-1 -2q-5 -55 -49 -89q-36 -25 -75 -25q-15 0 -28 4q-12 2 -22 6q-43 16 -78 49q-19 18 -42.5 46
t-36.5 50q-34 60 -49 115t-15 104q0 63 18.5 115.5t43.5 91.5q14 21 28 40h-123v123h365v-123h-69zM427 282q-18 0 -30.5 12t-12.5 30q0 20 12.5 31.5t30.5 11.5t30.5 -11.5t12.5 -31.5q0 -18 -12.5 -30t-30.5 -12zM896 282q-17 0 -30 12t-13 30q0 20 13 31.5t30 11.5
q18 0 30.5 -11.5t12.5 -31.5q0 -18 -12.5 -30t-30.5 -12zM618 559q0 19 13 31.5t31 12.5q17 0 29 -12.5t12 -31.5q0 -18 -12 -30.5t-29 -12.5q-18 0 -31 12.5t-13 30.5zM618 90q0 18 13 31t31 13q17 0 29 -13t12 -31t-12 -30t-29 -12q-18 0 -31 12t-13 30zM742 550
q5 10 16 16t22 6q20 0 30.5 -14t10.5 -31q0 -20 -13.5 -30.5t-28.5 -10.5q-17 0 -30.5 11.5t-13.5 31.5q0 11 7 21zM506 144q6 9 17 15t21 6q18 0 30.5 -14t12.5 -31q0 -19 -14 -30.5t-30 -11.5q-20 0 -31 13.5t-11 29.5q0 3 5 23zM843 479q10 7 21 7q18 0 30.5 -12
t12.5 -31q0 -18 -11.5 -30.5t-31.5 -12.5q-16 0 -29.5 11t-13.5 33t22 35zM436 245q17 5 21 5q18 0 31 -12.5t13 -29.5t-12.5 -30t-30.5 -13q-17 0 -30 12.5t-13 29.5q0 23 21 38zM886 245q21 -14 21 -37q0 -19 -12.5 -31t-30.5 -12q-20 0 -31.5 13t-11.5 29q0 20 13.5 31.5
t29.5 11.5q2 0 22 -5zM479 479q22 -10 22 -36q0 -19 -13 -31t-31 -12q-17 0 -29.5 12.5t-12.5 31.5q0 16 13 29t30 13q14 0 21 -7zM817 144q4 -7 4 -22q0 -16 -10.5 -30t-30.5 -14q-16 0 -30.5 12t-14.5 31q0 17 13 30.5t31 13.5q10 0 21 -5.5t17 -15.5zM582 550
q5 -18 5 -20q0 -18 -12.5 -31t-30.5 -13q-16 0 -29.5 11.5t-13.5 31.5q0 16 11 29.5t31 13.5q26 0 39 -22zM1157 0h-123v446q0 20 -7 31.5t-15 16.5t-14 5h-15v123h20q7 0 18.5 -6.5t12.5 -15.5v38h123v-16h51v-123h-51v-499z" />
    <glyph glyph-name="vowelsignau_beng" unicode="&#x9cc;" horiz-adv-x="1198" 
d="M286 499q-18 -13 -45.5 -40t-53.5 -68q-41 -68 -41 -139q0 -77 47 -157q5 -8 17.5 -23.5t26.5 -30.5q33 58 101 64h4q31 0 54 -23q15 -16 19.5 -34.5t4.5 -33.5l-1 -20l-1 -2q-5 -55 -49 -89q-36 -25 -75 -25q-15 0 -28 4q-12 2 -22 6q-43 16 -78 49q-19 18 -42.5 46
t-36.5 50q-34 60 -49 115t-15 104q0 63 18.5 115.5t43.5 91.5q14 21 28 40h-123v123h365v-123h-69zM427 282q-18 0 -30.5 12t-12.5 30q0 20 12.5 31.5t30.5 11.5t30.5 -11.5t12.5 -31.5q0 -18 -12.5 -30t-30.5 -12zM896 282q-17 0 -30 12t-13 30q0 20 13 31.5t30 11.5
q18 0 30.5 -11.5t12.5 -31.5q0 -18 -12.5 -30t-30.5 -12zM618 559q0 19 13 31.5t31 12.5q17 0 29 -12.5t12 -31.5q0 -18 -12 -30.5t-29 -12.5q-18 0 -31 12.5t-13 30.5zM618 90q0 18 13 31t31 13q17 0 29 -13t12 -31t-12 -30t-29 -12q-18 0 -31 12t-13 30zM742 550
q5 10 16 16t22 6q20 0 30.5 -14t10.5 -31q0 -20 -13.5 -30.5t-28.5 -10.5q-17 0 -30.5 11.5t-13.5 31.5q0 11 7 21zM506 144q6 9 17 15t21 6q18 0 30.5 -14t12.5 -31q0 -19 -14 -30.5t-30 -11.5q-20 0 -31 13.5t-11 29.5q0 3 5 23zM843 479q10 7 21 7q18 0 30.5 -12
t12.5 -31q0 -18 -11.5 -30.5t-31.5 -12.5q-16 0 -29.5 11t-13.5 33t22 35zM436 245q17 5 21 5q18 0 31 -12.5t13 -29.5t-12.5 -30t-30.5 -13q-17 0 -30 12.5t-13 29.5q0 23 21 38zM886 245q21 -14 21 -37q0 -19 -12.5 -31t-30.5 -12q-20 0 -31.5 13t-11.5 29q0 20 13.5 31.5
t29.5 11.5q2 0 22 -5zM479 479q22 -10 22 -36q0 -19 -13 -31t-31 -12q-17 0 -29.5 12.5t-12.5 31.5q0 16 13 29t30 13q14 0 21 -7zM817 144q4 -7 4 -22q0 -16 -10.5 -30t-30.5 -14q-16 0 -30.5 12t-14.5 31q0 17 13 30.5t31 13.5q10 0 21 -5.5t17 -15.5zM582 550
q5 -18 5 -20q0 -18 -12.5 -31t-30.5 -13q-16 0 -29.5 11.5t-13.5 31.5q0 16 11 29.5t31 13.5q26 0 39 -22zM1157 0h-123v499h-51v123h51q-1 26 -3.5 36.5t-4.5 11.5v1l-1 1q-2 0 -7 2t-16 4q-43 4 -90 4h-3q-55 0 -88.5 17.5t-51.5 37.5q-34 39 -43 81t-9 62v12l123 -9v-4
q0 -11 4 -28t15 -30q3 -4 13.5 -10t33.5 -6h27q59 0 103.5 -8.5t75.5 -38.5q28 -28 36.5 -64t8.5 -72h51v-123h-51v-499z" />
    <glyph glyph-name="signviramacomb_beng" unicode="&#x9cd;" 
d="M-38 -237q-11 28 -31 44.5t-41 23.5t-36.5 9t-17.5 2v123q4 0 31.5 -3t65.5 -16q107 -40 145 -140z" />
    <glyph glyph-name="khandata_beng" unicode="&#x9ce;" horiz-adv-x="432" 
d="M329 -3l-65 104q9 6 16 14q9 10 -6.5 20.5t-133 97.5t-117.5 206l1 16q5 49 22.5 80t36.5 46q56 47 150 47l30 -1q75 -7 122 -67q33 -47 33 -100q0 -16 -3 -32q-16 -68 -78 -96q-23 -9 -46 -9q-36 0 -72 23q-35 24 -49 51t-16 49l-1 19v8q-4 -10 -6 -27v-7q0 -49 40 -90
q21 -22 79.5 -63.5t93.5 -71.5q26 -23 36 -44.5t12 -37.5l1 -11q0 -37 -18.5 -63.5t-37 -42t-24.5 -18.5zM291 447q1 1 2 2.5t1 2.5l1 9q0 18 -9 25q-1 2 -2 3l-2 2q-6 -15 -6 -26v-3q0 -1 2 -4.5t9 -8.5z" />
    <glyph glyph-name="aulength_beng" unicode="&#x9d7;" horiz-adv-x="205" 
d="M164 0h-123v499h-51v123h51q-1 26 -3.5 36.5t-4.5 11.5v1l-1 1q-2 0 -7 2t-16 4q-43 4 -90 4h-3q-55 0 -88.5 17.5t-51.5 37.5q-34 39 -43 81t-9 62v12l123 -9v-4q0 -11 4 -28t15 -30q3 -4 13.5 -10t33.5 -6h27q59 0 103.5 -8.5t75.5 -38.5q28 -28 36.5 -64t8.5 -72h51
v-123h-51v-499z" />
    <glyph glyph-name="rra_beng" unicode="&#x9dc;" horiz-adv-x="626" 
d="M329 46q-129 0 -208 76q-82 81 -96 229q-2 29 -2 53q0 53 4 71v4q24 -4 37 -6q12 -2 18.5 -3t12.5 -2t16 -2q12 -2 38 -6q-4 -21 -4 -56q0 -46 12.5 -101t49.5 -93q43 -41 123 -41q34 0 76 8q28 6 41 16.5t18 20.5q15 31 15 69l-1 19q-14 -9 -26 -17q-38 -26 -66 -40
t-61 -14q-28 0 -51 13q-38 24 -49 63t-11 65l1 18v109h-226v123h646v-123h-297v-124l1 -16q9 4 26 16l2 2l135 88l69 -24l9 -28q4 -8 13 -45t9 -87q0 -31 -7 -64.5t-24 -64.5q-46 -76 -143 -96q-53 -10 -100 -10zM340 -132q-35 0 -59.5 24.5t-24.5 59.5t24.5 59.5t59.5 24.5
t59.5 -24.5t24.5 -59.5t-24.5 -59.5t-59.5 -24.5z" />
    <glyph glyph-name="rha_beng" unicode="&#x9dd;" horiz-adv-x="466" 
d="M204 41q-87 0 -136 70q-15 24 -20.5 44t-5.5 24l-1 4v316h-51v123h486v-123h-312v-306q1 -3 3 -7.5t5 -8.5q3 -5 10 -9t22 -4q45 0 88 46q12 12 20 33q-59 14 -89 64q-11 21 -11 43q0 29 19 54q38 45 87 45q12 0 24 -3q77 -25 97 -117q4 -22 4 -44q0 -85 -57 -155
q-35 -42 -83.5 -65.5t-98.5 -23.5zM199 -141q-35 0 -59.5 25t-24.5 59q0 35 24.5 59.5t59.5 24.5t59.5 -24.5t24.5 -59.5q0 -34 -24.5 -59t-59.5 -25z" />
    <glyph glyph-name="yya_beng" unicode="&#x9df;" horiz-adv-x="486" 
d="M176 -76q-35 0 -59.5 24.5t-24.5 59.5t24.5 59.5t59.5 24.5t59.5 -24.5t24.5 -59.5t-24.5 -59.5t-59.5 -24.5zM322 499h-122l96 -115v-73l-71 -63l34 -9q35 -11 63 -26v286zM445 499v-499h-123q-4 28 -28 65.5t-70 54.5q-44 13 -78 16.5t-35 3.5l-32 2q-11 18 -17 26
l-9 13.5t-6 10t-9 15.5l-15 24l137 123l-117 145h-53v123h506v-123h-51z" />
    <glyph glyph-name="zero_beng" unicode="&#x9e6;" horiz-adv-x="538" 
d="M265 49q-78 0 -152 63q-90 80 -90 187q0 29 7 60q13 48 30 79.5t24 38.5q49 68 135 90q30 6 60 6q48 0 94 -16q67 -26 106 -81q36 -52 36 -115l-2 -26q-29 -206 -176 -272q-36 -14 -72 -14zM265 172q14 0 27 5q38 16 65 62.5t34 108.5l1 13q0 37 -21 55.5t-41 24.5
q-24 9 -51 9t-52.5 -10.5t-42.5 -33.5l-1 -2q-3 -2 -14.5 -23t-19.5 -53q-3 -15 -3 -29q0 -54 47 -94q38 -33 72 -33z" />
    <glyph glyph-name="one_beng" unicode="&#x9e7;" horiz-adv-x="421" 
d="M211 4q-46 0 -91 24q-44 24 -70.5 61.5t-26.5 75.5v6q5 61 64 88q19 8 38 8q36 0 66 -26q12 -11 23 -32.5t11 -57.5q0 -10 -1 -22q11 3 21 10q30 22 30 60v4q-4 43 -36.5 87t-84.5 74q-97 56 -99 133v5q0 34 14.5 58.5t30.5 38.5t21 18h1l68 -102h1q-4 -2 -7.5 -6.5
t-5.5 -7.5q1 -2 9 -10t28 -20q76 -43 126 -112q51 -73 56 -149l1 -15q0 -93 -80 -155q-50 -36 -107 -36z" />
    <glyph glyph-name="two_beng" unicode="&#x9e8;" horiz-adv-x="405" 
d="M316 -11l-1.5 5t-8.5 15t-22 24.5t-41 34t-66 43.5q-48 29 -88.5 49.5t-57.5 27.5l-7 4l44 114l27 -8t66 -16q63 -13 88 -13q-10 15 -27 26q-124 84 -161 126q-21 25 -29.5 48t-8.5 41t5 32q12 35 37 56t49 31t33 12l32 -118h1q-8 -2 -16.5 -6.5t-14.5 -8.5l5 -6
q16 -21 137 -104q48 -33 74 -84q17 -35 17 -65q0 -17 -5 -33q-6 -30 -52 -57q107 -81 114 -157z" />
    <glyph glyph-name="three_beng" unicode="&#x9e9;" horiz-adv-x="582" 
d="M295 72q-57 0 -96 19q-135 68 -168 249q-8 58 -8 99q0 43 3 57v3l122 -16v-1q-2 -9 -2 -42t7.5 -80.5t30.5 -90.5t70 -68q13 -6 39 -6q20 0 43 5t44 17q52 29 55 91l1 19l-1 18q-15 -15 -34 -25q-33 -17 -67 -17q-44 0 -77 29q-8 7 -19 25t-11 47q0 28 18 66
q28 54 65.5 76t72.5 22q18 0 34 -4q64 -19 103 -85t39 -154l-1 -25q-10 -126 -116 -190q-36 -20 -74 -29t-73 -9z" />
    <glyph glyph-name="four_beng" unicode="&#x9ea;" horiz-adv-x="451" 
d="M239 -2q-13 0 -29 2q-73 9 -126 56q-61 59 -61 140q0 86 68 138l2 1q-31 31 -46 65t-15 64l1 15q9 74 68 117q49 35 119 37h10q103 0 153 -58q36 -43 36 -106q0 -21 -4 -44q-11 -60 -62 -99q26 -19 42 -42q19 -25 26 -50t7 -48q0 -32 -8 -58q-16 -60 -65 -95t-116 -35z
M225 397q62 22 69 49q2 12 2 22q0 19 -6 27q-16 15 -60 15h-7q-17 0 -39.5 -8.5t-27.5 -35.5v-2q0 -10 13.5 -29t47.5 -35zM238 121q18 0 37 8t25 29q5 18 5 29q0 9 -2.5 14t-5.5 9q-18 24 -77 54q-42 -16 -58 -30.5t-16 -37.5q0 -24 11 -38.5t25.5 -22t26.5 -10.5t16 -3z
" />
    <glyph glyph-name="five_beng" unicode="&#x9eb;" horiz-adv-x="529" 
d="M345 -10h-20q-125 6 -203 65q-88 68 -98 192q-1 16 -1 31q0 156 131 264q51 39 93 57t49 20h1l43 13l50 -74l-11 -28q-2 -6 -4 -18t-2 -25q0 -21 9 -39q17 -24 69 -30l55 -5v-93l-23 -19q-21 -17 -48.5 -51t-27.5 -65v-4q2 -30 49 -58l38 -23l-22 -96l-40 -7q-1 0 -4 -1
q-22 -6 -83 -6zM299 116q-14 32 -15 58v9q0 42 16 78t38 65q-43 27 -60 57q-23 39 -27 77q-2 -2 -4 -3q-9 -6 -18 -14q-84 -68 -84 -167l1 -19q6 -70 51 -105q46 -31 102 -36z" />
    <glyph glyph-name="six_beng" unicode="&#x9ec;" horiz-adv-x="599" 
d="M317 38q-24 0 -49 4q-60 7 -123 61t-100 188q-15 61 -18.5 111t-3.5 71v11l123 -4v-6q0 -15 3 -59t16 -96q36 -140 124 -156q14 -2 27 -2q42 0 68 18.5t39 41.5q29 46 30 99q-34 -35 -78 -53q-35 -14 -60 -14q-36 0 -55 16q-17 10 -31 34t-14 67v223h123v-208
q19 11 33 29l113 138l46 -68q46 -72 46 -161v-5q-3 -89 -50 -164q-40 -62 -104 -93q-49 -23 -105 -23z" />
    <glyph glyph-name="seven_beng" unicode="&#x9ed;" horiz-adv-x="392" 
d="M367 0q-36 0 -60.5 11.5t-39 27t-21.5 28.5q-12 22 -15 40t-3 24v83l-33 -2q-69 0 -113 33q-21 14 -40 43.5t-19 81.5q0 117 85 199q61 54 126 54l12 -1q44 -5 75 -38q30 -34 30 -78v-373q0 -1 1 -3l2 -4q3 -3 13 -3v-123zM194 336q17 0 34 2v161q-15 -2 -37 -20
q-11 -9 -28 -36t-17 -73q0 -10 1.5 -15.5t3.5 -8t3 -2.5q15 -8 40 -8z" />
    <glyph glyph-name="eight_beng" unicode="&#x9ee;" horiz-adv-x="582" 
d="M202 -4q-52 0 -85.5 20.5t-51 48t-22.5 51.5l-2 7v318q0 57 -19 60h4l-9 123h7q12 0 36.5 -6.5t50.5 -29.5q53 -49 53 -147v-57q27 14 54 14q14 0 28 -3l4 2q19 15 54 15q26 0 60 -13q12 -5 22 -5q18 0 34 14q9 8 15.5 16t10 13.5l3.5 5.5l110 -55q-1 -4 -15.5 -26
t-41.5 -46q-53 -45 -115 -45q-16 0 -32 3q22 -53 22 -99q0 -42 -18 -77q-23 -42 -56.5 -63.5t-61.5 -29.5t-35 -8zM193 119q12 2 29.5 10.5t26.5 24.5q5 9 5 22q0 33 -30 86l-7 11l-2 -2q-10 -6 -30 -31q-13 -18 -21 -31v-70q1 -3 7 -10q2 -3 7 -6t15 -4z" />
    <glyph glyph-name="nine_beng" unicode="&#x9ef;" horiz-adv-x="528" 
d="M293 -3l-15 93q-4 25 -20 61q-17 33 -32.5 41.5t-24.5 8.5h-5q-32 -3 -44 -33l19 -13q17 -13 27 -26q11 -14 15.5 -27.5t4.5 -23.5q0 -12 -3 -20q-11 -36 -51 -48q-15 -5 -38 -5h-7q-44 2 -71 35q-25 32 -25 85q0 27 6 58q12 60 55.5 98t103.5 43h12q108 0 170 -122l3 -7
l5 9q4 14 4 26q0 33 -32 57t-105 55l-8 4q-44 18 -83 41q-45 28 -62.5 58t-19.5 55l-1 16q0 33 12.5 60t25 43.5t16.5 19.5l87 -87l1 1q-7 -7 -13 -18t-6 -19v-1q2 -10 23 -23q34 -19 78 -37q85 -32 152 -89q58 -58 58 -135q0 -31 -10 -65q0 -2 -1 -3v-0.5v-1t-1 -0.5
q0 -1 -1 -2q-1 -5 -22 -40t-65 -72t-112 -50z" />
    <glyph glyph-name="ramiddlediagonal_beng" unicode="&#x9f0;" horiz-adv-x="501" 
d="M230 276l-31 -26q80 0 138 -30v33q-23 10 -53 17q-27 5 -52 6h-2zM337 302v65l-59 -50q6 -1 13 -3q24 -5 46 -12zM460 0h-123v50q-23 77 -139 77q-27 0 -52 -5l-48 -11l-75 150l279 238h-312v123h521v-123h-51v-499z" />
    <glyph glyph-name="ralowerdiagonal_beng" unicode="&#x9f1;" horiz-adv-x="501" 
d="M460 0h-123v50q-23 77 -139 77q-27 0 -52 -5l-48 -11l-75 150l279 238h-312v123h521v-123h-51v-499zM337 220v147l-138 -117q80 0 138 -30zM297 -24q-28 34 -99 34q-37 0 -57 -11l-30 82q69 16 104 16q52 0 84 -44q14 -19 14 -45q0 -17 -16 -32z" />
    <glyph glyph-name="rupeesign_beng" unicode="&#x9f3;" horiz-adv-x="624" 
d="M345 0q-63 0 -103 36q-30 29 -38 62t-8 52v246h-92v123h92v70q0 30 -17 43q-8 6 -15.5 7t-9.5 1q-13 -11 -16.5 -28.5t-3.5 -28.5v-7l-122 -16q-1 11 -1 24q0 38 16.5 84t63.5 77q30 18 66 18q40 0 78 -21q84 -52 84 -153v-70h167v-123h-167v-249q0 -5 1.5 -11t4.5 -9
q3 -4 21 -4q14 0 37 5q43 12 60 39q-27 6 -52 27q-46 44 -46 94q0 20 8 38q3 8 12.5 21t28.5 24t51 11l16 -1q107 -17 122 -144v-13q0 -64 -36 -123q-47 -70 -135 -92q-35 -9 -67 -9z" />
    <glyph glyph-name="zwnj" unicode="&#x200c;" 
 />
    <glyph glyph-name="zwj" unicode="&#x200d;" 
 />
    <glyph glyph-name="endash" unicode="&#x2013;" horiz-adv-x="479" 
d="M438 250h-415v123h415v-123z" />
    <glyph glyph-name="emdash" unicode="&#x2014;" horiz-adv-x="583" 
d="M542 250h-519v123h519v-123z" />
    <glyph glyph-name="quoteleft" unicode="&#x2018;" horiz-adv-x="306" 
d="M165 399q-21 0 -40 9q-68 36 -74 123v4q0 22 9.5 54.5t39.5 68t89 68.5l59 -108q-29 -16 -47 -34q3 -2 6 -5q45 -40 48 -84v-6q0 -42 -37 -72q-24 -18 -53 -18z" />
    <glyph glyph-name="quoteright" unicode="&#x2019;" horiz-adv-x="306" 
d="M141 686q21 0 40 -9q68 -36 74 -123v-4q0 -22 -9.5 -54.5t-39.5 -68t-89 -68.5l-59 108q29 16 47 34q-3 2 -6 5q-45 40 -48 84v6q0 42 37 72q24 18 53 18z" />
    <glyph glyph-name="quotedblleft" unicode="&#x201c;" horiz-adv-x="548" 
d="M165 399q-21 0 -40 9q-68 36 -74 123v4q0 22 9.5 54.5t39.5 68t89 68.5l59 -108q-29 -16 -47 -34q3 -2 6 -5q45 -40 48 -84v-6q0 -42 -37 -72q-24 -18 -53 -18zM407 399q-21 0 -40 9q-68 36 -74 123v4q0 22 9.5 54.5t39.5 68t89 68.5l59 -108q-29 -16 -47 -34q3 -2 6 -5
q45 -40 48 -84v-6q0 -42 -37 -72q-24 -18 -53 -18z" />
    <glyph glyph-name="quotedblright" unicode="&#x201d;" horiz-adv-x="548" 
d="M383 686q21 0 40 -9q68 -36 74 -123v-4q0 -22 -9.5 -54.5t-39.5 -68t-89 -68.5l-59 108q29 16 47 34q-3 2 -6 5q-45 40 -48 84v6q0 42 37 72q24 18 53 18zM141 686q21 0 40 -9q68 -36 74 -123v-4q0 -22 -9.5 -54.5t-39.5 -68t-89 -68.5l-59 108q29 16 47 34q-3 2 -6 5
q-45 40 -48 84v6q0 42 37 72q24 18 53 18z" />
    <glyph glyph-name="indianrupeesign" unicode="&#x20b9;" horiz-adv-x="529" 
d="M404 -133q-207 3 -311 181q-36 66 -47.5 118.5t-11.5 54.5l-11 98l92 -33q10 -3 30 -7t42 -4q29 0 54 12q3 1 10 7.5t13 21.5h-175v123h177q-6 14 -15 25q-22 22 -48 28.5t-38 6.5h-85v123h408v-123h-114q13 -28 19 -60h95v-123h-96q-12 -56 -37 -88.5t-50 -46.5
q-28 -17 -58.5 -23t-59.5 -6h-8q9 -22 22 -46q68 -116 204 -116z" />
    <glyph glyph-name="dottedcircle" unicode="&#x25cc;" horiz-adv-x="648" 
d="M82 282q-18 0 -30.5 12t-12.5 30q0 20 12.5 31.5t30.5 11.5t30.5 -11.5t12.5 -31.5q0 -18 -12.5 -30t-30.5 -12zM551 282q-17 0 -30 12t-13 30q0 20 13 31.5t30 11.5q18 0 30.5 -11.5t12.5 -31.5q0 -18 -12.5 -30t-30.5 -12zM273 559q0 19 13 31.5t31 12.5q17 0 29 -12.5
t12 -31.5q0 -18 -12 -30.5t-29 -12.5q-18 0 -31 12.5t-13 30.5zM273 90q0 18 13 31t31 13q17 0 29 -13t12 -31t-12 -30t-29 -12q-18 0 -31 12t-13 30zM397 550q5 10 16 16t22 6q20 0 30.5 -14t10.5 -31q0 -20 -13.5 -30.5t-28.5 -10.5q-17 0 -30.5 11.5t-13.5 31.5
q0 11 7 21zM161 144q6 9 17 15t21 6q18 0 30.5 -14t12.5 -31q0 -19 -14 -30.5t-30 -11.5q-20 0 -31 13.5t-11 29.5q0 3 5 23zM498 479q10 7 21 7q18 0 30.5 -12t12.5 -31q0 -18 -11.5 -30.5t-31.5 -12.5q-16 0 -29.5 11t-13.5 33t22 35zM91 245q17 5 21 5q18 0 31 -12.5
t13 -29.5t-12.5 -30t-30.5 -13q-17 0 -30 12.5t-13 29.5q0 23 21 38zM541 245q21 -14 21 -37q0 -19 -12.5 -31t-30.5 -12q-20 0 -31.5 13t-11.5 29q0 20 13.5 31.5t29.5 11.5q2 0 22 -5zM134 479q22 -10 22 -36q0 -19 -13 -31t-31 -12q-17 0 -29.5 12.5t-12.5 31.5
q0 16 13 29t30 13q14 0 21 -7zM472 144q4 -7 4 -22q0 -16 -10.5 -30t-30.5 -14q-16 0 -30.5 12t-14.5 31q0 17 13 30.5t31 13.5q10 0 21 -5.5t17 -15.5zM237 550q5 -18 5 -20q0 -18 -12.5 -31t-30.5 -13q-16 0 -29.5 11.5t-13.5 31.5q0 16 11 29.5t31 13.5q26 0 39 -22z" />
    <glyph glyph-name="ekar_initial_bn" horiz-adv-x="345" 
d="M294 -122q-15 0 -28 4q-12 2 -22 6q-43 16 -78 49q-19 18 -42.5 46t-36.5 50q-34 60 -49 115t-15 104q0 63 18.5 115.5t43.5 91.5q45 68 89.5 107t73.5 56h107v-123h-69q-18 -13 -45.5 -40t-53.5 -68q-41 -68 -41 -139q0 -77 47 -157q5 -8 17.5 -23.5t26.5 -30.5
q33 58 101 64h4q31 0 54 -23q15 -16 19.5 -34.5t4.5 -33.5l-1 -20l-1 -2q-5 -55 -49 -89q-36 -25 -75 -25z" />
    <glyph glyph-name="oikar_initial_bn" horiz-adv-x="345" 
d="M233 622q3 10 -6 23.5t-26 15.5q-43 4 -91 4h-3q-54 0 -88 17.5t-51 37.5q-34 39 -43 81t-9 62v12l122 -8q0 -8 3.5 -28t16.5 -35q3 -4 14 -10t37 -6h23q59 0 103.5 -8.5t75.5 -38.5q24 -24 34 -55.5t10 -63.5v-123h-70q-17 -13 -44.5 -40t-53.5 -68q-41 -68 -41 -139
q0 -77 47 -157q5 -8 17.5 -23.5t26.5 -30.5q33 58 101 64h4q31 0 54 -23q14 -15 18.5 -33.5t4.5 -33.5l-1 -21q0 -27 -14.5 -51.5t-35.5 -39.5q-34 -25 -75 -25q-13 0 -28 4q-10 2 -22 6q-43 16 -78 49q-18 18 -41.5 46t-36.5 50q-34 60 -49 115t-15 104q0 63 18 115.5
t43 91.5q42 65 85 103t59 48z" />
    <glyph glyph-name="k_ko_bn" horiz-adv-x="706" 
d="M461 -128h-123v6q-24 33 -81 49t-122 7l-70 152l183 106q-54 10 -95 10l-62 -4l-68 126l289 175h-322v123h726v-123h-160q86 -31 113 -78q13 -24 13 -49q0 -18 -7 -36q-6 -16 -22 -34t-49 -31q-31 -12 -76 -15h-21q-2 0 -6 -0.5t-12 -0.5l-2 123h15t7 1h17l-6 2
q-20 8 -50 16q-4 2 -9 2v-148q25 -9 56 -23q121 -54 149 -115q11 -23 11 -46q0 -19 -7 -37q-6 -16 -22 -34t-49 -31q-33 -12 -76 -15h-21q-2 0 -6 -0.5t-12 -0.5l-2 123l34 1q14 0 22 3q-18 14 -73 40l-4 2v-246zM338 291v80l-89 -54q54 -10 89 -26zM338 27v75l-88 -51l4 -1
q49 -8 84 -23z" />
    <glyph glyph-name="k_tto_bn" horiz-adv-x="694" 
d="M393 -122q-15 0 -29 2h-3q-70 12 -123 68q-26 29 -35 56.5t-9 49.5l1 20q11 51 45 90q-23 26 -53 38t-53.5 14.5t-26.5 2.5l-44 -1l-4 14q-7 19 -10 28t-5 14.5t-4 14.5q-4 11 -17 48l268 162h-301v123h455q-11 7 -29.5 9.5t-40.5 2.5l-47 -1q-27 -1 -54 -1
q-47 0 -74.5 17t-39.5 36q-15 22 -21 46t-6 47q0 32 6 56t9 33l116 -40q-8 -28 -8 -49q0 -15 4 -21q0 -1 14 -2q24 0 49 1l52 1q44 0 85 -9.5t74 -39.5q35 -32 45 -86h125v-123h-142q23 -9 41 -20q40 -25 54 -50.5t14 -46.5v-8q0 -70 -45 -113q-40 -35 -102 -35q-20 0 -43 4
l21 122q15 -2 24 -2q17 0 18 3q2 3 4 15q-5 5 -25.5 14.5t-64.5 20.5l-8 2v-174q0 -63 -60 -104q-70 -45 -73 -71v-1q0 -3 2 -8.5t10 -15.5q27 -30 63 -30q10 0 21 2q12 3 22 7l-2 2q-12 15 -12 42q0 20 10 45q12 25 35 39t48 14q8 0 15 -1q9 -1 25.5 -9.5t31 -30
t17.5 -62.5v-5q0 -43 -33.5 -83.5t-88.5 -64.5q-44 -18 -88 -18zM327 252v125l-98 -59q52 -19 98 -66z" />
    <glyph glyph-name="k_tt_ro_bn" horiz-adv-x="699" 
d="M440 -238q-22 30 -43 49q-46 36 -106 36q-17 0 -36 -3q-25 -4 -48 -4q-62 0 -105 40q-32 32 -42.5 72t-10.5 75q0 32 3 51v1l122 -13q0 -4 -1 -9q-1 -14 -1 -29q0 -10 1 -20q2 -29 13 -38q8 -8 22 -8q12 0 26 3q31 5 58 5q41 0 75 -9.5t61 -23.5v37q-16 -2 -31 -2h-10
q-81 5 -139 57q-29 26 -39 51.5t-10 46.5l1 16q6 39 37 74q-31 21 -69 28t-55 7h-42l-48 115l266 132h-299v123h452q-2 7 -4 7q-7 3 -22 3l-45 -2q-29 -3 -65 -3h-4q-57 0 -89.5 18.5t-47.5 40.5q-18 24 -24 50.5t-6 49.5q0 25 3.5 43.5t5.5 22.5l117 -36l1 1q-4 -14 -4 -30
q0 -17 6 -27q9 -10 34 -10h6q32 0 58 2q28 3 52 3q27 0 52 -6q68 -17 92 -86l13 -41h138v-123h-130q13 -5 25 -11q42 -22 57 -46t15 -44v-8q0 -27 -10.5 -58.5t-36.5 -56.5q-15 -15 -41.5 -26.5t-67.5 -11.5q-16 0 -34 2l17 122q9 -1 17 -1q18 0 26 6q3 3 6 11
q-15 10 -88 26l-9 2v-132q0 -61 -64 -97q-64 -34 -68 -48q1 -2 3 -4l4 -4q16 -14 33.5 -19.5t32.5 -5.5l21 2q8 0 15 3q-6 11 -6 29q0 19 12 44q31 46 80 46q10 0 20 -2q25 -5 46 -27.5t24 -65.5v-7q0 -52 -57 -95v-260h-111zM332 297v86l-75 -38q44 -18 75 -48z" />
    <glyph glyph-name="k_to_bn" horiz-adv-x="829" 
d="M350 -15q-90 0 -161 52q-85 62 -129 188q-22 63 -29 112t-8 72v1l123 4q2 -64 29.5 -147t86.5 -131q38 -28 89 -28q28 0 61 9q44 12 57 39q-27 -8 -48 -8q-28 0 -45.5 9t-26.5 19q-26 27 -26 62q0 13 4 27q24 68 108 87l19 2l14 -1v14q-1 18 -16 35t-59 20h-12
q-28 0 -48 -6q15 -16 18 -52v-2q0 -33 -19.5 -56.5t-51.5 -29.5q-7 -1 -15 -1q-31 0 -56.5 19.5t-35.5 51.5q-5 16 -5 34q0 47 33 91q11 15 27 28h-238v123h849v-123h-311l6 -6q31 -29 46 -68q44 24 87 24h9q47 -2 85.5 -38.5t44.5 -116.5v-6q0 -42 -16.5 -72.5t-38.5 -50.5
t-41 -29l-53 111h-1q2 0 8.5 5t12.5 13.5t6 20.5v2q-1 18 -4 26.5t-5 9.5q-1 1 -2 1.5t-4 0.5h-1q-18 0 -44.5 -21.5t-35.5 -58.5l6 -19q5 -22 5 -43q0 -48 -23 -90q-13 -25 -44 -51.5t-87 -43.5q-49 -14 -94 -14z" />
    <glyph glyph-name="k_t_bo_bn" horiz-adv-x="843" 
d="M589 -199h-123v19q-8 14 -66 29q-32 6 -56 7.5t-69 1.5l-29 90l83 86q-181 21 -268 226q-33 84 -38 163l123 5q2 -49 29 -120t84 -118q46 -35 106 -35q67 0 106 27q-20 -4 -36 -4q-29 0 -47 10q-50 26 -50 75q0 14 5 29q23 64 108 81l32 1q0 44 -75 48q-37 0 -54 -3
q11 -19 12 -43q0 -33 -19 -55q-26 -31 -66 -31q-31 0 -56 19q-42 30 -42 81q0 65 56 109h-249v123h863v-123h-306q34 -34 46 -63q45 23 90 23q62 0 99 -43q36 -38 38 -102q0 -46 -17 -74q-31 -52 -81 -73l-48 113l12 8q12 11 12 21q-2 21 -7 25q-1 2 -8 2q-21 0 -46.5 -18
t-34.5 -46q11 -30 11 -58q0 -42 -24 -83l2 -3l-2 -3v-324zM466 -42v40l-31 -31z" />
    <glyph glyph-name="k_t_ro_bn" horiz-adv-x="855" 
d="M458 -200q-2 4 -21.5 23.5t-56.5 39t-91 19.5q-19 0 -41.5 -4t-43.5 -4q-46 0 -77.5 15t-50.5 33q-41 42 -56 95t-15 90l1 23l122 -12l-1 -11q0 -20 8 -48.5t26 -46.5q14 -15 43 -15q10 0 23 2q33 5 63 5q80 0 148 -33v65q-38 -9 -76 -9q-90 0 -165 52q-89 68 -130.5 169
t-43.5 175l123 5q1 -46 29.5 -122.5t92.5 -126.5q42 -29 95 -29q34 0 73 12q21 6 38 18q-15 -3 -27 -3q-30 0 -47 10q-50 28 -50 77q0 14 4 28q24 64 109 81l32 1l-1 2q0 42 -74 46q-38 0 -54 -3q11 -19 11 -43q0 -33 -18 -55q-26 -31 -67 -31q-31 0 -56 19q-41 29 -41 81
q0 63 55 109h-260v123h875v-123h-307l2 -2q30 -25 45 -61q45 23 89 23q61 0 100 -43q35 -38 38 -102q0 -46 -17 -74q-31 -52 -81 -73l-49 112l12 8q12 10 12 22q-2 21 -5 24t-9 3q-22 0 -47 -17.5t-34 -45.5l3 -12q6 -6 6 -41q0 -74 -62 -128v-292h-103z" />
    <glyph glyph-name="k_no_bn" horiz-adv-x="704" 
d="M193 -131q-25 0 -49 11q-73 37 -81 121v8q0 79 79 132q49 29 104 29q24 0 91 -26v10q-79 27 -116 33q-40 5 -68 5l-64 -4l-66 127l290 184h-323v123h724v-123h-163q88 -32 116 -80q14 -24 14 -50q0 -19 -7 -37q-8 -27 -41 -51.5t-106 -31.5h-22q-2 0 -6 -0.5t-11 -0.5
l-2 123h34l14 2q-20 11 -65 23l-9 3v-527h-123v111q0 27 -14 39.5t-56 22.5q-10 2 -19 2q-19 0 -36 -8q26 -4 48 -18.5t32 -40.5q4 -11 4 -24q0 -16 -8 -32.5t-26 -30.5q-33 -24 -69 -24zM337 281v88l-96 -61q57 -9 96 -27z" />
    <glyph glyph-name="k_bo_bn" horiz-adv-x="704" 
d="M459 -128h-123v18q-13 28 -81 47q-48 12 -83 14l-35 1l-59 106l158 126q-46 8 -80 8q-34 -1 -68 -4q-13 27 -19.5 39.5t-9.5 18.5l-6.5 13t-10.5 19.5t-19 36.5l290 184h-323v123h724v-123h-164q131 -47 131 -132q0 -17 -7 -35q-24 -71 -147 -83q-25 0 -28.5 -0.5
t-11.5 -0.5l-1 123q33 0 48 2q-14 8 -75 26v-527zM336 281v88l-95 -61q56 -9 95 -27zM336 39v68l-60 -48z" />
    <glyph glyph-name="k_mo_bn" horiz-adv-x="844" 
d="M403 -132q-25 0 -49 10q-73 38 -81 122v8q0 48 30 88q-14 33 -81 42h-14q-28 0 -48.5 -4.5t-23.5 -5.5l-54 -17l-59 146l274 242h-307v123h864v-123h-51v-627h-123v119q0 3 -1.5 10.5t-9 16.5t-24.5 19q-51 28 -129 28q-17 0 -45.5 -8.5t-48.5 -18.5q26 -4 48.5 -18.5
t32.5 -40.5q3 -10 3 -23q0 -16 -7.5 -33t-26.5 -32q-33 -23 -69 -23zM309 243v102l-95 -84h13q45 -3 82 -18zM680 157v342h-179q99 -39 133 -96q19 -32 19 -66q0 -17 -5 -35q-6 -26 -38 -57.5t-109 -41.5h-23q-3 0 -6.5 -0.5t-11.5 -0.5l-2 123l33 1q19 2 28 5.5t11 5.5
q-1 6 -19.5 19.5t-63.5 31.5l-15 6v-221q47 15 84 15q93 0 164 -31z" />
    <glyph glyph-name="k_ro_bn" horiz-adv-x="829" 
d="M588 -49h-123q0 25 -68 75q-8 6 -26 11t-48 5q-33 0 -83 -10q-28 -6 -51 -6q-45 0 -73.5 15t-44.5 34q-48 53 -48 158q0 42 8 93q10 60 21.5 101.5t13.5 45.5l117 -40q-1 0 -11.5 -37t-19.5 -90q-6 -42 -6 -72q0 -62 17 -77q10 -8 25 -8q13 0 26 3q60 13 110 13
q85 0 141 -37v279q0 3 -1 6.5t-5.5 6.5t-14.5 5l-9 1q-17 0 -36.5 -8t-36.5 -25q12 -2 24 -8q40 -25 40 -72q0 -37 -24.5 -66t-55.5 -43q-27 -12 -52 -12q-33 0 -59 21q-35 29 -35 86q0 31 11 70q26 87 85 130h-306v123h850v-123h-286q34 -37 34 -91v-6q41 19 81 19h10
q54 -4 89 -43q36 -38 38 -102v-7q0 -39 -17 -67.5t-39.5 -47t-41.5 -26.5l-49 115q8 2 12.5 6t8.5 9.5t4 11.5q-2 22 -7 26q-1 2 -7 2h-3q-19 0 -44.5 -18t-34.5 -46v-283z" />
    <glyph glyph-name="k_lo_bn" horiz-adv-x="720" 
d="M353 276v118l-112 -84q63 -11 112 -34zM730 622v-123h-185q99 -39 133 -96q19 -32 19 -66q0 -17 -5 -35q-6 -26 -38 -57.5t-109 -41.5h-23q-3 0 -6.5 -0.5t-11.5 -0.5l-2 123l33 1q19 2 28 5.5t11 5.5q-1 6 -19.5 19.5t-63.5 31.5l-15 6v-477h-123v118q-20 13 -25 13
q-6 -3 -10 -20q10 -35 10 -80h-114q0 42 -12 68t-24 33l-4 -1q-17 -10 -20 -17q17 -2 31 -18q19 -16 19 -45q0 -17 -11 -39q-21 -38 -60 -38q-38 0 -66 34q-32 41 -32 90q0 78 81 131q30 17 62 17q29 0 56 -15q13 -6 21 -13q38 33 100 10q-75 32 -118 40q-51 8 -81 8l-23 -1
l-37 -4l-73 112l266 199h-299v123h740z" />
    <glyph glyph-name="k_sso_bn" horiz-adv-x="796" 
d="M552 0h-123q0 46 -10 59q-34 44 -70 61q-15 -31 -38 -48q-28 -22 -60 -22l-16 2q-40 8 -64 45q-17 26 -17 60q0 33 22 64q10 13 28 24q-3 3 -4 7l-13 27q-5 10 -11 18q-21 -24 -53 -31l-17 -2q-39 0 -65 32q-6 7 -12 20.5t-6 33.5q0 23 15 56q17 33 46 48q-5 10 -13 19
q-16 18 -30 26h-51v123h816v-123h-254v-84h25q46 0 85.5 -10.5t70.5 -44.5q40 -48 40 -103q0 -23 -7 -46q-13 -39 -42 -70t-64 -41q-10 -3 -21 -3q-26 0 -47.5 16t-29.5 43q-3 11 -3 22q0 26 15 46.5t41 29.5q13 4 27 4h8q0 9 -10 21q-12 13 -64 13h-24v-292zM429 217v75
q-85 14 -122.5 62t-43.5 89v56h-64q14 -31 17 -66q35 -27 57 -60.5t38 -66.5l24 -52q20 -5 42 -13q29 -10 52 -24zM429 417v82h-43v-42q3 -9 13.5 -21.5t29.5 -18.5z" />
    <glyph glyph-name="k_ss_nno_bn" horiz-adv-x="796" 
d="M230 -133h-6q-40 0 -67 34q-17 25 -17 59q0 30 13 64q38 85 135 96l20 1q64 0 121 -33v40q-11 13 -32 28t-50 24q-13 -26 -40 -43q-28 -18 -57 -18q-44 0 -76 40q-20 29 -20 59q0 26 15 50q12 18 30 28l-10 18l-12 17q-24 -24 -58 -30l-14 -1q-42 0 -68 35q-5 6 -9.5 18
t-4.5 28q0 24 17 56q14 25 36 37l-2 3q-15 13 -27 20q-2 1 -3 2h-54v123h816v-123h-254v-52h19q48 0 87.5 -8.5t70.5 -38.5q44 -44 44 -96q0 -18 -5 -36q-13 -43 -45.5 -71.5t-65.5 -35.5q-8 -3 -19 -3q-27 0 -48.5 16.5t-28.5 44.5q-2 9 -2 18q0 25 16 45.5t43 28.5
q11 3 23 3q-19 10 -66 10h-23v-454h-123v43q-9 18 -33 45q-35 36 -77 39q14 -21 14 -45q0 -9 -2 -18q-3 -19 -24.5 -40.5t-76.5 -26.5zM429 280v43q-48 6 -78.5 23.5t-47.5 36.5q-21 24 -29.5 44t-9.5 26l-1 6v40h-58q7 -19 10 -39q44 -30 72 -72.5t46 -78.5l38 -8
q32 -8 58 -21zM429 448v51h-43v-23q3 -6 12.5 -14.5t30.5 -13.5z" />
    <glyph glyph-name="k_ss_bo_bn" horiz-adv-x="798" 
d="M554 -120h-123v13q-5 5 -22.5 12t-53.5 12q-48 5 -74 5h-15l-47 -3l-33 101l180 153q-13 9 -31 15q-12 -24 -37 -41q-28 -18 -56 -18q-44 0 -76 40q-19 28 -19 58q0 27 16 51q11 16 27 26l-2 4l-8 12q-3 7 -8 13q-23 -21 -53 -26q-8 -1 -15 -1q-40 0 -66 34
q-5 6 -10 17.5t-5 28.5q0 23 17 55q13 23 34 36l-2 1q-14 13 -25 20q0 1 -1 1h-56v123h818v-123h-254v-53h29q45 0 82 -9t66 -37q44 -44 44 -96q0 -18 -5 -36q-14 -44 -46 -72t-64 -36h-3q-8 -2 -16 -2q-28 0 -49.5 16.5t-28.5 43.5q-2 9 -2 18q0 26 16 46.5t43 27.5
q11 3 23 4q-17 9 -60 9h-29v-443zM431 278v45q-48 6 -78.5 23t-47.5 36q-21 25 -29.5 45t-8.5 25l-2 7v40h-62q6 -18 9 -36q41 -30 67.5 -70.5t43.5 -75.5q45 -9 67.5 -18t40.5 -21zM431 27v40l-37 -31zM431 448v51h-43v-23q3 -7 13 -15t30 -13z" />
    <glyph glyph-name="k_ss_mo_bn" horiz-adv-x="955" 
d="M519 -181q-19 0 -40 8q-71 36 -84 132l-1 19q0 58 36 100v56q-15 13 -40 28.5t-55 25.5q-13 -24 -38 -41q-28 -18 -56 -18q-43 0 -75 40q-19 29 -19 59q0 27 15 50q11 16 27 26l-9 16l-9 13q-23 -21 -52 -26q-8 -1 -16 -1q-40 0 -66 34q-4 6 -9 18t-5 29q0 23 16 54
q13 23 34 36l-1 1q-14 14 -27 21h-55v123h975v-123h-51v-619h-123v60q0 20 -14 33.5t-26 20.5q-55 33 -130 33q-19 0 -49.5 -9t-46.5 -19q-4 -3 -6 -10q29 -1 56 -15.5t39 -44.5q3 -10 3 -23q0 -16 -7.5 -33t-26.5 -32q-29 -22 -64 -22zM430 281v42q-47 6 -78 23t-47 36
q-22 25 -30 45t-9 25l-1 7v40h-63q7 -18 9 -36q41 -30 67.5 -70.5t43.5 -75.5l34 -8q40 -10 74 -28zM430 448v51h-42v-23q2 -7 12 -15t30 -13zM791 113v386h-238v-53h29q45 0 82 -9t67 -37q44 -45 44 -98q0 -17 -5 -34q-14 -44 -46.5 -72t-64.5 -36q-10 -2 -19 -2
q-27 0 -48.5 16.5t-28.5 43.5q-2 9 -2 18q0 26 15.5 46.5t42.5 27.5q12 3 24 4q-18 9 -61 9h-29v-182q41 9 68 9q93 0 170 -37z" />
    <glyph glyph-name="k_so_bn" horiz-adv-x="827" 
d="M252 -102q-55 0 -115 24q-58 25 -94.5 52.5t-39.5 31.5l83 91q1 -1 14 -11.5t35.5 -24.5t50.5 -26q38 -14 65 -14q37 0 58 16v48q-7 19 -27 34t-62 19h-10q-19 0 -36 -2.5t-27.5 -5l-10.5 -2.5l-54 -17l-59 145l274 243h-307v123h847v-123h-51v-549h-123v35
q-13 13 -45 32t-73 19q-63 0 -121 -62q-74 -76 -172 -76zM663 131v368h-162q99 -39 133 -97q19 -32 19 -65q0 -18 -5 -35q-6 -27 -38 -58t-109 -41h-23q-3 0 -6.5 -0.5t-11.5 -0.5l-2 123h33q19 3 28 6.5t11 5.5q-1 6 -19.5 19.5t-63.5 31.5l-15 6v-262q53 27 113 27h1
q66 0 117 -28zM309 243v102l-95 -84l13 -1q45 -2 82 -17z" />
    <glyph glyph-name="kh_bo_bn" horiz-adv-x="651" 
d="M610 -128h-123v24q-10 14 -92 30q-39 6 -68.5 7l-29.5 1l-51 -1l-22 109l188 156q-27 9 -52 14q-56 8 -89 8l-26 -1l-26 -2l-101 93l76 41l5 3q22 13 48 31q-21 -7 -43 -10q-11 -1 -22 -1q-80 0 -133 67q-26 38 -26 75q0 24 11 46q31 52 94 52q28 0 43.5 -10t22.5 -21.5
t9 -17.5q3 -7 3 -19q0 -20 -18 -48l-1 -1q34 6 57 23.5t35 34t13 19.5l23 50l52 -19q8 -2 32 -17t43 -50q12 -21 12 -56q0 -24 -10 -55q-16 -46 -66 -93q1 -1 2.5 -1h2.5q59 -12 104 -33v322h174v-123h-51v-627zM487 31v69l-66 -54h1q36 -6 65 -15z" />
    <glyph glyph-name="kh_ro_bn" horiz-adv-x="651" 
d="M609 -128h-122v38q-10 11 -30.5 25t-50.5 25t-69 11q-25 0 -55 -6.5t-55 -6.5q-73 0 -120 42.5t-64 100.5t-17 102l123 -6q0 -22 8.5 -53t29.5 -50q13 -13 39 -13q12 0 29 4q44 10 82 10q80 0 150 -36v28q-30 62 -126 83q-57 10 -90 10l-55 -3l-90 94l64 40q45 28 91 73
q-51 -28 -100 -28q-75 0 -127 66q-31 44 -31 88q0 27 12 50q30 54 93 54q46 0 65 -30q12 -19 12 -39q0 -34 -31 -65l12 -1q26 5 45.5 19t32.5 30.5t20 29.5l6 12l24 55q28 -11 57 -21.5t56.5 -46t27.5 -85.5q0 -26 -10 -58q-25 -67 -80 -119q10 -1 19 -4q58 -12 103 -37v368
h174v-123h-51z" />
    <glyph glyph-name="g_ukar_bn" horiz-adv-x="718" 
d="M441 -1q-94 0 -161.5 27t-112.5 66.5t-71 80.5q-44 70 -58.5 130t-14.5 82h123q0 -8 10.5 -51.5t42.5 -93.5q80 -118 242 -118q108 0 129 50q2 7 2 14q0 16 -7 31l-4 -3q-19 -8 -38 -8q-16 0 -31 5q-52 21 -60 71v8q0 43 42 70q23 13 50 13h11q16 28 16 54l-1 10
q-2 23 -13 39l-99 -106l-43 66q-53 79 -92 79h-1q-12 0 -23 -7q31 -17 58.5 -45.5t39.5 -70.5q4 -18 4 -35q0 -30 -11 -60q-19 -46 -65 -93l-87 88q41 40 41 65l-1 5q-7 19 -34 36t-53 25q-4 1 -6 2q-2 0 -3.5 0.5t-2.5 1t-3 2.5l-4 3l-57 42l28 48q4 8 25.5 35t59.5 52.5
t91 28.5h3q79 0 149 -74l79 84l44 -31q7 -5 28 -25.5t42.5 -55.5t28.5 -84q1 -12 1 -23q0 -57 -30 -112q51 -59 51 -131q0 -26 -8 -51q-20 -64 -84 -100t-162 -36z" />
    <glyph glyph-name="g_go_bn" horiz-adv-x="561" 
d="M520 -124h-123v193q-18 18 -54 40t-83 30q64 -24 87 -67q12 -24 12 -47q0 -21 -9 -40q-25 -49 -111 -75q-27 -7 -46.5 -11t-20.5 -4l-18 122h1q25 3 49 11q-29 33 -171 90q0 1 1 2q1 9 9.5 31.5t30.5 48.5q20 24 58.5 44t101.5 20l24 -1q82 -8 139 -44v215q-18 18 -54 40
t-83 30q64 -24 87 -66q12 -24 12 -48q0 -20 -9 -40q-25 -49 -111 -75q-27 -7 -46.5 -10.5t-20.5 -3.5l-18 121q27 5 50 12q-32 11 -115 19l-66 6l10 65q0 1 1 3q1 10 10 32t30 47q19 24 57 43.5t100 19.5l27 -1q82 -9 139 -43v53h123v-16h51v-123h-51v-623z" />
    <glyph glyph-name="g_do_bn" horiz-adv-x="876" 
d="M739 9q-63 60 -77 144q-3 21 -3 43q0 45 12 93q-51 -44 -92 -93.5t-60 -77.5l-35 -54l-89 65v273q-22 28 -61.5 58.5t-88.5 37.5l-15 1q-21 0 -33 -6q30 -3 54 -10q62 -18 81 -72q12 -35 12 -62q0 -24 -6.5 -42t-15.5 -31q-24 -31 -55.5 -45.5t-58 -18t-31.5 -3.5l-2 123
q14 0 28 4.5t17 9.5l1 3q0 4 -4 16q-8 3 -25 5t-34 3q-5 1 -10 1l-63 6l-62 7l8 62q0 4 7 31.5t29 60.5q60 81 164 81q13 0 26 -1q80 -11 138 -53v54h491v-123h-368v-187l2 2q131 140 245 156l30 4l69 -70l-28 -42q-1 -1 -14 -24.5t-26.5 -60.5t-13.5 -78q0 -27 9.5 -52.5
t31.5 -47.5z" />
    <glyph glyph-name="g_dho_bn" horiz-adv-x="731" 
d="M520 -124h-123v28q-10 24 -95 47q-44 9 -79 12t-36 3l-33 1l-61 96l288 214l16 13v109q-20 27 -61 59.5t-91 39.5l-17 1q-19 0 -31 -5q6 -1 11 -2q23 -2 44 -8q60 -19 80 -73q12 -35 12 -62q0 -24 -6.5 -42t-15.5 -31q-23 -31 -55 -45.5t-58.5 -18t-31.5 -3.5l-2 123
q14 0 28 4.5t17 9.5l1 4q0 4 -4 15q-10 4 -30 6.5t-39 3.5q-23 1 -51 4q-6 0 -12 1l-62 7l8 62q0 4 7 31.5t29 60.5q60 81 164 81q13 0 26 -1q82 -11 140 -55v72h123v-16h221v-123h-221v-117l68 51h102v-466h-123v296l-47 -35v-352zM397 50v86l-83 -62l15 -3q38 -9 68 -21z
" />
    <glyph glyph-name="g_dh_ro_bn" horiz-adv-x="769" 
d="M558 -131h-123v19q-15 11 -43 21.5t-67 10.5q-35 0 -79 -13q-36 -11 -66 -11q-34 0 -59 10.5t-42 23.5q-36 29 -55.5 68.5t-26.5 78t-7 60.5v8l123 -6v-3q0 -21 10 -55.5t31 -52.5q2 -2 8 -5t18 -3q11 0 29 5q63 18 115 18q65 0 111 -19v13q-5 5 -28 12.5t-71 12.5
q-32 2 -57 2q-32 0 -41 -1h-1l-52 -3l-25 110l263 184l12 7v66q-30 19 -81.5 41.5t-108.5 29.5l-15 1l-18 -1q22 -1 41 -6q52 -15 71 -67q11 -32 11 -58q0 -23 -7 -41t-16 -30q-21 -28 -50.5 -41t-58 -17t-45.5 -4h-13l6 123h6q17 0 33 3t22 8l-1 7q-13 0 -34 1q-37 0 -92 4
l-62 7l8 62q0 4 7.5 31.5t28.5 60.5q60 81 164 81q13 0 26 -1q101 -14 178 -54v71h123v-16h221v-123h-221v-65l72 42h98v-437h-123v280l-47 -28v-422zM435 169v43l-47 -33q26 -4 47 -10z" />
    <glyph glyph-name="g_no_bn" horiz-adv-x="561" 
d="M520 -54h-123v47q-9 18 -33 44q-36 36 -76 40q13 -22 13 -45q0 -77 -103 -86q-46 0 -73 34q-17 26 -17 60q0 30 13 63q38 86 135 96l23 1q63 0 118 -33v232q-20 27 -61 60q-47 36 -108 40q-20 0 -32 -5l9 -1q138 -16 138 -145q0 -24 -6 -42q-19 -52 -71 -75
q-47 -22 -90 -22l-1 123q14 0 28.5 4.5t17.5 12.5q0 4 -4 16q-19 7 -70 10q-62 5 -124 12l7 64q5 40 37 90q60 81 164 81q91 0 166 -56v72h123v-16h51v-123h-51v-553z" />
    <glyph glyph-name="g_bo_bn" horiz-adv-x="561" 
d="M520 -112h-123v34q-13 28 -81 47q-25 6 -47 9.5t-36.5 4.5l-14.5 1l-33 1q-14 22 -20 31q-4 8 -7 12.5t-5.5 8.5t-8.5 12q-6 10 -19 30l272 217v103q-20 27 -61 59.5t-91 39.5l-17 1q-19 0 -31 -5q5 -1 11 -2q23 -2 43 -8q60 -19 81 -73q11 -35 11 -62q0 -24 -6 -42
t-15 -31q-24 -31 -55.5 -45.5t-58 -18t-32.5 -3.5l-1 123h-1q15 0 29 4.5t17 9.5l1 3q0 4 -4 16q-10 4 -30 6.5t-39 3.5q-23 1 -51 4q-6 0 -12 1l-62 7l8 62q0 4 7 31.5t29 60.5q60 81 164 81q13 0 26 -1q81 -11 140 -55v72h123v-16h51v-123h-51v-611zM397 71v68l-60 -48
l9 -3q28 -7 51 -17z" />
    <glyph glyph-name="g_mo_bn" horiz-adv-x="789" 
d="M397 232v167q-21 27 -62 59.5t-91 39.5l-16 1q-20 0 -32 -5q6 -1 11 -2q23 -2 44 -8q60 -19 80 -73q12 -35 12 -63q0 -24 -6.5 -42t-15.5 -30q-23 -31 -55 -45.5t-58.5 -18t-31.5 -3.5l-2 123q14 0 28.5 4.5t17.5 9.5v3q0 4 -3 16q-10 4 -30 6.5t-40 3.5l-63 5l-61 7
l7 62v2q1 8 9 33.5t28 56.5q59 81 163 81q13 0 26 -1q82 -11 141 -55v72h123v-16h105v16h123v-16h51v-123h-51v-551h-123v145q-28 45 -89 49.5t-93 -31.5q25 -4 46 -18.5t30 -39.5q4 -11 4 -24q0 -16 -8 -32.5t-26 -31.5q-33 -24 -69 -24q-25 0 -49 11q-73 37 -81 122v10
q0 58 46 104q29 28 61 44zM520 255q48 -4 105 -26v270h-105v-244z" />
    <glyph glyph-name="g_ro_bn" horiz-adv-x="561" 
d="M520 -33h-123v50q-41 22 -88 22q-32 0 -54.5 -11t-50.5 -11q-58 0 -97 32q-63 50 -78 141q-6 36 -6 61l123 -5q0 -22 9 -52q16 -54 49 -54q9 0 25 5q30 17 78 17q51 0 90 -13v250q-20 27 -61 60q-47 36 -108 40q-19 0 -31 -5l11 -2q23 -2 43 -8q92 -29 92 -134
q0 -25 -6 -43q-20 -53 -70 -76q-47 -22 -91 -22l-1 123q14 0 28.5 4.5t17.5 12.5q0 4 -4 16q-18 7 -69 10q-30 1 -125 12l7 64q5 40 37 90q60 81 164 81q91 0 166 -56v72h123v-16h51v-123h-51v-532z" />
    <glyph glyph-name="g_lo_bn" horiz-adv-x="561" 
d="M144 -109h-10q-38 7 -63 38.5t-33 69.5q-3 17 -3 33q0 88 92 148q34 19 69 19q33 0 64 -17q14 -7 26 -18q19 19 48 28q18 6 37 6q7 0 26 -5v206q-21 27 -62 59.5t-91 40.5l-13 1q-22 0 -35 -6q30 -3 55 -10q60 -19 80 -73q12 -35 12 -63q0 -24 -6.5 -42t-15.5 -30
q-23 -31 -55 -45.5t-58.5 -18t-31.5 -3.5l-2 123q14 0 28.5 4.5t17.5 9.5v3q0 4 -3 17q-10 3 -30 5.5t-40 3.5q-28 2 -63 6l-61 6l7 62v2q1 8 8.5 33.5t27.5 56.5q60 81 164 81q13 0 26 -1q82 -11 141 -55v72h123v-16h51v-123h-51v-606h-123v163q-20 19 -26 19
q-5 -3 -9.5 -12t-6.5 -17q12 -42 12 -89h-123q0 46 -14.5 78t-29.5 40l-4 2l-5 -3q-9 -5 -17.5 -12t-12.5 -17q24 -3 41 -20q6 -6 13 -18.5t7 -31.5q0 -18 -11 -43q-25 -41 -67 -41z" />
    <glyph glyph-name="gh_no_bn" horiz-adv-x="503" 
d="M462 -104h-123v52q-9 18 -33 45q-36 36 -76 39q14 -21 14 -44q0 -9 -3 -19q-3 -19 -24.5 -40.5t-76.5 -26.5q-3 -1 -6 -1q-40 0 -67 35q-17 25 -17 59q0 30 13 64q38 85 135 96l20 1q64 0 121 -34v24q-21 15 -52.5 20.5t-64.5 5.5q-62 0 -107 -11l-47 -11l-45 86l90 117
q-10 5 -19 11q-29 20 -41.5 41.5t-14.5 38.5l-1 16q0 17 7 39h-54v123h523v-123h-51v-603zM339 280v219h-139q-24 -18 -36 -34q14 -9 41 -16t82 -19q16 -4 35 -8l-98 -127q65 0 115 -15z" />
    <glyph glyph-name="gh_bo_bn" horiz-adv-x="503" 
d="M340 -104q-5 6 -23.5 13.5t-68.5 15.5q-40 6 -69 7t-30 1h-37l-23 109l144 130h-10q-61 0 -108 -11l-46 -11l-46 86l90 117q-10 5 -19 11q-29 20 -41.5 41.5t-14.5 38.5l-1 16q0 17 7 39h-54v123h523v-123h-51v-603h-122zM339 30v70l-65 -54q36 -7 65 -16zM339 280v219
h-139q-24 -18 -36 -34q14 -9 41 -16t82 -19q16 -4 35 -8l-98 -127q65 0 115 -15z" />
    <glyph glyph-name="gh_ro_bn" horiz-adv-x="503" 
d="M27 146q8 -15 20 -27q1 0 1 -1q4 -3 13.5 -7t25.5 -4q12 0 28 3q44 10 83 10q43 0 78.5 -9t62.5 -22v57q-22 15 -53 20.5t-65 5.5q-61 0 -106 -11l-47 -11l-45 86l90 117q-10 5 -19 11q-29 20 -41.5 41.5t-14.5 38.5l-1 16q0 17 7 39h-54v123h523v-123h-51v-603h-123v47
q-18 18 -53.5 36t-87.5 18q-25 0 -55 -7q-31 -7 -56 -7q-42 0 -71.5 13t-47.5 29q-4 3 -7 7zM339 280v219h-139q-24 -18 -37 -34q15 -9 41.5 -16t82.5 -19q16 -4 35 -8l-98 -127q65 0 115 -15z" />
    <glyph glyph-name="ng_ko_bn" horiz-adv-x="664" 
d="M438 -104h-123v30q-50 63 -200 64l-62 116l260 169q-4 25 -13 38q-15 11 -29 17q-12 -94 -101 -103q-37 0 -64 27q-30 29 -34 83q0 55 51 98q-22 40 -42 64h-91v123h684v-123q4 -28 4 -52q0 -57 -25 -93q-34 -47 -92 -47q-113 0 -182 128q-18 34 -27 64h-124l17 -34
q64 -7 130 -54q42 -33 57 -105q33 -6 73 -18q136 -45 136 -141q0 -52 -46 -95q-41 -38 -94 -44q-23 0 -27 -0.5t-12 -0.5l-2 123l33 1q12 2 23 16q-13 16 -78 32v-283zM315 72v58l-61 -40q35 -7 61 -18zM557 430l1 19q0 20 -6 50h-67q32 -65 72 -69z" />
    <glyph glyph-name="ng_k_ro_bn" horiz-adv-x="664" 
d="M315 72v58l-61 -40q35 -7 61 -18zM557 430l1 19q0 20 -6 50h-67q32 -65 72 -69zM438 -207h-123v9q-16 4 -42 4q-33 0 -85 -11q-41 -9 -77 -9q-95 0 -155 69q-26 32 -40 75l111 80q5 -54 26 -79q17 -22 59 -22q25 0 49 6q63 14 109 14q29 0 45 -14v11q-50 63 -200 64
l-62 116l260 169q-4 25 -13 38q-15 11 -29 17q-12 -94 -101 -103q-37 0 -64 27q-30 29 -34 83q0 55 51 98q-22 40 -42 64h-91v123h684v-123q4 -28 4 -52q0 -57 -25 -93q-34 -47 -92 -47q-113 0 -182 128q-18 34 -27 64h-124l17 -34q64 -7 130 -54q42 -33 57 -105
q33 -6 73 -18q136 -45 136 -141q0 -52 -46 -95q-41 -38 -94 -44q-23 0 -27 -0.5t-12 -0.5l-2 123l33 1q12 2 23 16q-13 16 -78 32v-386z" />
    <glyph glyph-name="ng_kho_bn" horiz-adv-x="975" 
d="M340 463q13 0 19 4q25 11 25 16q0 7 -10 16t-18 11q-13 -6 -24 -46zM397 76q-48 -9 -89 -9q-114 0 -187 67q-98 93 -98 275q0 42 3 57v4l122 -17q-3 -17 -3 -45q0 -43 13 -96q28 -122 151 -122q87 0 132 33l-24 -2q-57 0 -118 36q-52 33 -82 69q-3 3 -5 5.5t-2 15.5
q-5 31 -5 53q-42 42 -73 99h-142v123h222l27 -62q28 46 68 63q26 10 34 10q62 0 106.5 -36t57.5 -89q3 -12 3 -25q0 -36 -24 -72q-29 -43 -92 -62q12 -4 24 -4t23 5q31 16 39 31l24 44l89 -22q4 -19 8.5 -37.5t4.5 -52.5q0 -76 -33 -129q1 0 2 1q24 18 37 35q9 13 12 18
l94 41l18 -44q17 -28 17 -93q0 -91 -55 -155q5 -2 11 -2q59 -11 104 -33v548h-176v122h350v-123h-51v-737h-123v36q-21 30 -60.5 46t-83.5 22t-76 6l-47 -3l-106 93q41 21 81.5 41t73.5 53q-42 -18 -88 -18q-50 0 -85 22q-13 7 -23 16z" />
    <glyph glyph-name="ng_go_bn" horiz-adv-x="576" 
d="M454 -86q-86 66 -86 176q0 34 9 72l3 13q-54 -29 -78 -48q-43 -67 -108 -84q-14 -3 -19 -3q-43 0 -83 26q-49 34 -82 103l112 52q10 -22 24.5 -40t26.5 -18q16 0 29 28t16 72v5q0 38 -16 57q-20 -39 -42.5 -53.5t-38.5 -15.5l-11 -1q-42 0 -69 38q-18 27 -18 59
q0 34 19 69q15 25 40 40q-12 23 -24 38h-68v123h596v-123h-19q2 -16 2 -31q0 -45 -20 -77q-9 -15 -32.5 -31.5t-66.5 -18.5h-3q-105 0 -176 104q-19 29 -29 54h-42q2 -4 3 -9q5 -11 8 -22q52 -20 87 -66q36 -47 42 -110q50 25 108 40l27 7l89 -63l-30 -49v-1
q-3 -4 -13 -24.5t-20 -50t-10 -59.5q0 -23 8 -43.5t28 -35.5zM447 464q0 13 -5 35h-59q24 -32 64 -35z" />
    <glyph glyph-name="ng_mo_bn" horiz-adv-x="832" 
d="M340 463q13 0 19 4q13 5 19 9.5t7 6.5q0 1 -1 1q0 3 -2.5 7t-6.5 8q-11 9 -19 11q-6 -4 -12.5 -14.5t-11.5 -31.5zM355 70q-25 -3 -47 -3q-114 0 -187 67q-79 75 -95 215q-3 33 -3 60q0 44 3 59v2l122 -16q-3 -17 -3 -45q0 -43 12.5 -96.5t47.5 -88.5q37 -34 104 -34
q33 0 72 8q15 3 29 9l-19 -1q-64 0 -120 51q-26 26 -40 48.5t-16 26.5l-3 6l-1.5 3t-0.5 2v3q-1 2 -1 6q-3 24 -4 45v3q-12 12 -25 27q-30 39 -48 72h-142v123h222l16 -39l11 -23q4 7 8 12q3 4 5 7q29 33 55.5 43.5t33.5 10.5l5 1h5q52 0 96.5 -36.5t57.5 -89.5q3 -12 3 -25
q0 -36 -24 -72t-82 -59q-17 -6 -41 -10q19 -13 31 -13q9 0 15 3h1q34 15 49 28t22 24l6 9l25 31l81 -20l8 -39q5 -18 5 -52q0 -38 -14 -86q-7 -22 -21 -43q-6 -9 -12 -17q51 -3 111 -27v359h-91v123h91v16h123v-16h51v-123h-51v-647h-123v152q-28 45 -89 49.5t-93 -31.5
q25 -4 46 -18.5t30 -39.5q4 -11 4 -24q0 -16 -8 -32.5t-26 -31.5q-33 -24 -69 -24q-25 0 -49 11q-73 37 -81 122v10q0 40 22 75z" />
    <glyph glyph-name="ng_ro_bn" horiz-adv-x="627" 
d="M125 51q32 -45 67 -29t73 24t72 8q59 0 101 -16l2 -1v50q-15 -6 -34 -9q-53 -11 -98 -11q-114 0 -187 67q-79 75 -95 215q-3 33 -3 60q0 44 3 59v2l122 -16q-3 -17 -3 -45q0 -43 12.5 -96.5t47.5 -88.5q37 -34 104 -34q33 0 72 8q38 9 60 25l-24 -2q-57 0 -118 36
q-33 21 -52.5 39.5t-22.5 22.5l-8 8q-2 3 -3.5 4.5t-2 3.5t-0.5 6t-1 11q-3 24 -4 45v3q-12 12 -25 27q-30 39 -48 72h-142v123h222l16 -39l11 -23q6 10 13 19q29 33 55 43.5t34 10.5l5 1h5q52 0 96.5 -36.5t57.5 -89.5q3 -12 3 -25q0 -36 -24 -72t-82 -59l-10 -3
q12 -4 24 -4t23 5q21 10 28.5 18t10.5 15q1 0 1 1l23 42l89 -22l8 -39q5 -18 5 -52q0 -38 -14 -86q-8 -26 -27 -53v-285h-123v15q-16 10 -42 18.5t-61 8.5q-43 0 -98 -23q-58 -24 -88.5 -18t-45.5 14q-48 28 -76 68zM340 463q13 0 19 4q13 5 19 9.5t7 6.5l-1 1q0 3 -2.5 6.5
t-7.5 8.5q-10 9 -18 11q-6 -4 -12.5 -14.5t-11.5 -31.5z" />
    <glyph glyph-name="c_nyo_bn" horiz-adv-x="1153" 
d="M790 -143h-123l-4 34q-5 56 -112 56q-41 0 -77 -7q-23 -3 -41 -3q-131 0 -176 104q-18 0 -26 -1l-41 -1q-22 0 -39 3q-46 10 -74 50q-36 52 -36 116v291h-51v123h1173v-123h-999v-37q16 -21 95 -32q32 -3 57 -3l49 2l59 6l8 -56q64 105 209 109q89 0 129 -81
q74 44 136 44q42 0 70 -14q129 -56 129 -162q0 -39 -18 -72q43 -49 43 -102l-2 -21q-8 -53 -54 -96q-75 -66 -175 -66q-58 0 -109 27v-88zM900 41q52 0 88 32q15 14 19 28q0 5 -5 12q-42 -23 -82 -23q-56 0 -89 41q-22 27 -22 59q3 41 28.5 64t73.5 23q32 0 70 -12q0 3 1 5
t1 4q0 26 -55 50q-10 4 -22 4q-52 0 -116 -58v-159q1 -2 3 -3q31 -38 50.5 -52.5t56.5 -14.5zM190 162q20 0 51 2h18q55 3 55 140q-85 0 -150 20v-116q0 -32 14 -46h12zM667 52v245q0 59 -17 68h-3q-38 0 -61 -10t-35.5 -23t-17.5 -24q18 11 40 11q12 0 24 -4q26 -10 40 -35
q9 -17 9 -53q-7 -66 -66 -91q-19 -7 -38 -7q-49 0 -95 43q-12 11 -20 24q-13 -58 -56 -109q12 -27 60 -27q11 0 22.5 1.5t37 5.5t60.5 4q61 0 116 -19z" />
    <glyph glyph-name="c_ro_bn" horiz-adv-x="461" 
d="M427 -68h-123v22q-23 10 -48 10q-28 0 -57 -14q-40 -17 -72 -17q-40 0 -64 15q-45 26 -67.5 67.5t-26.5 68.5l122 21q2 -11 10 -26q11 -23 25 -23q6 0 20 5q61 26 110 26q26 0 48 -5v28q-25 -8 -112 -8q-39 0 -64.5 8.5t-47.5 36.5q-39 49 -39 109v243h-51v123h481v-123
h-307v-18q14 -15 92 -25q33 -3 59 -3l51 2l57 5q5 -28 10 -57t5 -69q0 -41 -11 -90v-312zM175 225l67 1q39 2 51 15q19 26 22 89q-86 0 -151 18v-92q0 -16 11 -30v-1z" />
    <glyph glyph-name="ch_bo_bn" horiz-adv-x="509" 
d="M281 19v42l-37 -30zM190 370q10 0 23 10q-23 6 -49 15v-18q13 -7 26 -7zM404 74v-213h-123v21q-35 23 -83 33.5t-78 10.5l-33 1l-57 91l134 108q-27 2 -55 2t-61 3l7 123q80 -10 137 -10q104 0 133 33q18 20 26.5 33.5t10.5 20.5l1 7q-1 3 -13 11q-12 -22 -37.5 -47.5
t-63 -34.5t-107.5 -9q-57 -1 -101 57v184h-51v123h529v-123h-277q15 -4 37.5 -6t78.5 -16q128 -38 128 -139q0 -64 -66 -139q73 -24 116 -57l-78 -95q-16 12 -54 27z" />
    <glyph glyph-name="ch_ro_bn" horiz-adv-x="509" 
d="M190 370q10 0 23 10q-23 6 -49 15v-18q13 -7 26 -7zM370 88q-107 38 -261 40q-28 0 -61 3l7 123q80 -10 137 -10q104 0 133 33q18 20 26.5 33.5t10.5 20.5l1 7q-1 3 -13 11q-12 -22 -37.5 -47.5t-63 -34.5t-107.5 -9q-57 -1 -101 57v184h-51v123h529v-123h-277
q15 -4 37.5 -6t78.5 -16q128 -38 128 -139q0 -64 -66 -139q73 -24 116 -57l-43 -52v-167h-123v22q-23 10 -48 10q-28 0 -57 -14q-40 -17 -72 -17q-40 0 -64 15q-45 26 -67.5 67.5t-26.5 68.5l122 21q2 -11 10 -26q11 -23 25 -23q6 0 20 5q61 26 110 26q26 0 48 -5v15z" />
    <glyph glyph-name="ch_ro_alt_bn" horiz-adv-x="509" 
d="M190 370q10 0 23 10q-23 6 -49 15v-18q13 -7 26 -7zM370 88q-107 38 -261 40q-28 0 -61 3l7 123q80 -10 137 -10q104 0 133 33q18 20 26.5 33.5t10.5 20.5l1 7q-1 3 -13 11q-12 -22 -37.5 -47.5t-63 -34.5t-107.5 -9q-57 -1 -101 57v184h-51v123h529v-123h-277
q15 -4 37.5 -6t78.5 -16q128 -38 128 -139q0 -64 -66 -139q73 -24 116 -57l-43 -52v-167h-123v22q-23 10 -48 10q-51 0 -167.5 -29.5t-177.5 -29.5q-40 0 -64 15q-45 26 -67.5 67.5t-26.5 68.5l122 21q2 -11 10 -26q11 -23 25 -23q49 0 162 29.5t184 29.5q26 0 48 -5v15z
" />
    <glyph glyph-name="j_jo_bn" horiz-adv-x="1162" 
d="M943 -151q-46 71 -46 149v5q0 63 32 127q16 35 35 59l-182 118l-12 3q-32 -18 -62.5 -42.5t-39.5 -49.5q-2 -6 -2 -10q0 -5 2 -10q1 -1 3.5 -3t5.5 -3q2 0 11 2.5t25.5 13t40.5 34.5l25 25l70 -17l12 -31q4 -9 16 -51t12 -96q0 -27 -5.5 -54.5t-19.5 -51.5
q-35 -61 -111 -75q-70 -12 -123 -12l-32 1q-73 7 -121 44q-65 53 -83 151q-47 -9 -100 -9q-43 0 -85.5 11t-78.5 40q-104 77 -107 365l123 2q3 -227 62 -273q27 -22 86 -22q37 0 88 9q12 2 17.5 6t7.5 9q9 16 9 45l-1 21q-44 -25 -85 -25l-22 2q-38 6 -63 27t-36 43
q-16 33 -16 67q0 25 8 50q11 30 31 56h-242v123h1182v-123h-496l20 -10q80 -38 119 -63q7 -2 10 -2q2 -1 3.5 -1t3 -1l4.5 -3q2 -2 4 -3q56 -37 100 -66q9 -5 18 -11q89 -55 135 -91l57 -45l-54 -48l-1 -1q-5 -4 -23 -25.5t-35 -55t-17 -73.5t26 -83zM633 2q41 0 99 10
q12 2 17.5 6t7.5 9q9 18 9 46l-1 21q-44 -25 -87 -25q-10 0 -20 1q-38 7 -63 28t-36 43q-16 33 -16 67q0 25 8 50q32 73 96 118l-5 3q-107 49 -218 119q-33 -18 -64.5 -44t-42.5 -51q-1 -5 -1 -9q0 -5 2 -10q1 -2 3.5 -4t5.5 -3q2 0 11 2.5t25.5 13t40.5 34.5l25 25l70 -17
l12 -30q4 -10 16 -52t12 -95q0 -27 -5.5 -54.5t-19.5 -51.5q-3 -6 -7 -12q13 -95 46 -119q24 -19 80 -19z" />
    <glyph glyph-name="j_j_bo_bn" horiz-adv-x="1055" 
d="M909 -117v47l-40 -35q19 -5 40 -12zM573 72q42 0 101 9q11 2 16 4t6 3l1 8q0 11 -4 28q-16 -9 -32 -15q-27 -10 -52 -10q-17 0 -34 5q-33 11 -52 33t-26 44q-9 21 -9 48q0 30 16.5 68t58.5 82q15 15 30 27l-171 93h-48q-27 -15 -51 -35t-31 -38l-1 -7q2 0 9 2t20 11
t32 28l24 24l70 -16l11 -31q2 -3 8 -22.5t11 -49.5q5 -29 5 -55q0 -53 -22 -92q-6 -11 -14 -20q11 -85 40 -106q25 -20 88 -20zM909 -266v15q-51 26 -96 31.5t-52 5.5l-37 -2q-12 20 -18 29.5t-9 14.5t-7 12q-6 8 -25 37l238 213q-34 33 -52 67t-24 62q-7 34 -8 58
q-7 5 -17 10.5t-29 16.5l-4 2l-51 28l-16 3q-23 -17 -52 -45q-22 -23 -30.5 -39.5t-8.5 -23.5l1 -6q6 0 21 8t41 30l23 20l61 -13l14 -22q2 -3 11.5 -20.5t19.5 -44.5q17 -45 17 -83q0 -34 -13 -62q-10 -23 -36.5 -45.5t-78.5 -31.5q-66 -10 -119 -10q-109 0 -164 46
q-66 58 -80 149q-42 -8 -83 -8q-39 0 -74 9.5t-64 33.5q-50 43 -67.5 118.5t-17.5 177.5l123 1q1 -170 40 -202q17 -15 60 -15q35 0 89 10q10 2 13.5 5t3.5 5q6 14 6 33q-33 -16 -65 -16q-10 0 -21 2q-34 6 -56.5 24.5t-32.5 38.5q-15 30 -15 61q0 22 7 44q6 17 16 33h-201
v123h1075v-123h-385q59 -33 90 -53q9 -5 17 -10q25 -14 41 -22q3 -1 5 -3q22 -12 33.5 -18.5t20 -12t21.5 -14.5l45 -29l-10 -40l-1 -13q0 -15 6 -40q14 -52 67 -87h17v-423h-123z" />
    <glyph glyph-name="j_jho_bn" horiz-adv-x="971" 
d="M635 -92v18q-48 23 -89 28t-51 5l-38 -1l-59 93l228 204q-18 41 -23 90q-2 26 -2 45q-16 11 -40 24q-46 25 -137 84q-33 -17 -65 -43t-42 -52q-1 -5 -1 -9q0 -5 2 -10q1 -2 3 -4t6 -3q2 0 11 2.5t25.5 13t40.5 34.5l24 26l80 -20l6 -41v-2q4 -17 4 -64q0 -31 -5 -69
q-20 -105 -69 -144t-90 -43q-51 -11 -102 -11q-38 0 -74 9.5t-66 33.5q-56 48 -72.5 142t-16.5 238l123 2q1 -106 9 -184t36 -103q17 -14 60 -14q33 0 82 8q6 0 17 5.5t22 21.5t18 49q-31 -13 -61 -13l-21 2q-38 7 -63 28t-36 42q-17 34 -17 68q0 25 9 49q11 30 31 56h-242
v123h991v-123h-51v-552h-101l-71 80v-119h-123zM635 59v39l-34 -30q17 -4 34 -9zM807 158v341h-148q23 -14 45 -31l30 -23l-7 -36q0 -1 -1 -10.5t-1 -22.5q0 -23 6.5 -50.5t26.5 -46.5v-65z" />
    <glyph glyph-name="j_nyo_bn" horiz-adv-x="829" 
d="M288 10q-40 0 -79.5 11t-73.5 38q-64 51 -89 161q-22 90 -23 250l123 1q2 -269 66 -317q9 -8 26.5 -14.5t49.5 -6.5q34 0 90 11q11 2 16.5 7t8.5 10q11 24 11 60l-1 29q-44 -27 -87 -27q-9 0 -18 1q-34 6 -56 23t-33 34t-12 21q-15 26 -15 69q0 27 11 59.5t39 68.5h-252
v123h849v-123h-359q7 -29 30 -44q17 11 41.5 19t56.5 8q24 0 53 -6q64 -15 95 -41t40.5 -52t9.5 -42q0 -52 -43 -94q21 -38 21 -76v-8q0 -15 -11 -42.5t-45 -51t-104 -27.5h-10q-70 0 -120 35q-35 -41 -92 -53q-54 -14 -114 -14zM327 346q6 0 23 10t45 40q-18 25 -29 56
q-21 -19 -36 -40t-15 -41q0 -9 4 -18q2 -2 4 -4.5t3 -2.5h1zM619 165q19 1 29 3.5t13 4.5q-1 4 -3.5 9t-5.5 10h-6q-41 0 -68 32q-12 18 -12 38q0 17 9 32q5 10 19 20t39 12q12 0 28 -2q15 8 19 14q-6 8 -46 18q-15 3 -26 3q-16 0 -24 -3.5t-11 -6.5q-16 -12 -26 -30.5
t-14 -35.5q4 -25 4 -54q1 -6 3.5 -15.5t9.5 -20.5q5 -10 19 -19t43 -9h7z" />
    <glyph glyph-name="j_bo_bn" horiz-adv-x="781" 
d="M635 -92v18q-48 23 -89 28t-51 5l-39 -1l-59 93l229 204q-18 41 -23 90q-2 26 -2 45q-16 11 -41 24q-44 25 -137 84q-32 -17 -64 -43t-42 -52l-2 -8q0 -6 3 -11q1 -2 3 -4t6 -3q2 0 11 2.5t25 13t40 34.5l25 26l79 -20l7 -41v-2q4 -17 4 -64q0 -31 -5 -69
q-20 -105 -69 -144t-90 -43q-50 -11 -103 -11q-37 0 -73 9.5t-66 33.5q-56 48 -72.5 142t-16.5 238l123 2q1 -106 9 -184t35 -103q18 -14 61 -14q33 0 82 8q6 0 17 5.5t22 21.5t18 49q-32 -13 -62 -13l-20 2q-38 7 -63 28t-36 42q-17 34 -17 68q0 25 9 49q11 30 30 56h-241
v123h801v-123h-132q23 -14 45 -31l29 -23l-7 -36v-3q-2 -8 -2 -28q0 -23 6.5 -51t27.5 -48v-371h-123zM635 59v39l-34 -30q16 -4 34 -9z" />
    <glyph glyph-name="j_ro_bn" horiz-adv-x="870" 
d="M707 -131l-38 33l-3 2q-5 4 -20.5 14t-38.5 19q-34 13 -65 13q-32 0 -62 -13q-41 -17 -103 -32.5t-128 -15.5q-48 0 -93.5 12t-81.5 40q-29 21 -51.5 61.5t-22.5 108.5q0 31 6 68l121 -22q-4 -26 -4 -46q0 -52 27 -74q34 -25 100 -25l28 1q96 12 154 38q57 22 108 22
q47 0 86 -13q-16 60 -16 112q0 77 23 130q18 51 41 84l-33 19q-60 33 -151 93q-33 -18 -64.5 -44t-41.5 -51q-2 -5 -2 -10t2 -9q1 -2 3.5 -4t5.5 -3q2 0 11 2.5t25.5 13t40.5 34.5l25 25l71 -17l11 -30q4 -10 16 -52t12 -95q0 -27 -5.5 -54.5t-19.5 -51.5q-35 -62 -111 -76
q-52 -10 -108 -10q-44 0 -86.5 11t-78.5 40q-104 77 -107 365l123 2q3 -227 62 -273q27 -22 86 -22q37 0 88 9q12 2 17.5 6t8.5 9q8 16 8 44l-1 22q-44 -25 -85 -25l-21 2q-38 6 -63.5 27t-36.5 43q-16 33 -16 68q0 25 8 49q11 30 31 56h-308v123h890v-123h-155
q45 -26 77 -50l57 -46l-53 -48q-4 -3 -21.5 -25.5t-34.5 -62t-17 -95.5q0 -37 12 -81t41 -94l27 -46z" />
    <glyph glyph-name="jh_ro_bn" horiz-adv-x="748" 
d="M73 102q7 -44 35 -62.5t59 -18.5q16 0 62.5 23.5t77.5 23.5q20 0 38 -3q-36 27 -80 35.5t-75 8.5q-25 0 -33 -2h-1l-35 -5q-19 26 -29 39t-15.5 20t-11.5 14t-15.5 19t-26.5 33l310 272h-343v123h513v-374q39 -9 81 -44v418h174v-123h-51v-495h-109l-18 26l-13.5 17
t-34.5 39q-17 17 -29 26v-209h-123v20q-1 1 -2 1q-11 8 -28 14q-20 7 -44 7q-36 0 -68 -23.5t-71 -23.5q-25 0 -45.5 6t-36.5 14q-44 26 -71 63zM380 189v188l-166 -146q85 -2 166 -42z" />
    <glyph glyph-name="ny_co_bn" horiz-adv-x="796" 
d="M586 237q23 0 35 3t16 5q-1 7 -6 17t-13 19h-9q-38 0 -65 31q-12 18 -12 38q0 17 9 32q5 10 19 20t39 12q11 0 25 -2q15 11 21 23q4 6 4.5 10t0.5 5q0 2 -9.5 6t-31.5 6h-10q-41 0 -63 -20q-20 -22 -27 -51t-7 -38v-37q1 -6 4 -18t10 -25q19 -36 70 -36zM379 121v185
q-34 -28 -51.5 -42.5t-27 -22.5t-20.5 -18q-8 -8 -23.5 -21.5t-42.5 -37.5q27 -1 59 -7q60 -10 106 -36zM288 393q-47 85 -97 95l1 -6l1 -13q0 -31 -20 -54.5t-52 -29.5l-13 -1q-31 0 -54 19t-29 51q-2 9 -2 19q0 9 2 19q13 58 57.5 94t102.5 36h4q99 -1 190 -140v145h123
v-62q36 20 92 20l23 -1q80 -7 116.5 -44t38.5 -81l1 -13q0 -51 -39 -99l-6 -7q11 -16 21.5 -41.5t10.5 -57.5v-9q-6 -57 -55 -90q-44 -28 -119 -28q-45 0 -84 16v-193h-123v19h-1q-20 37 -53.5 55t-70 24t-62.5 6q-29 0 -35 -2h-1l-35 -5q-20 25 -29.5 37.5t-14.5 18.5
t-10 13q-5 6 -15 19t-29 38z" />
    <glyph glyph-name="ny_cho_bn" horiz-adv-x="685" 
d="M414 -99l-5 4q-28 21 -145 48q-80 18 -132 23l-5 1l17 122q6 -2 44 -2q42 0 134 8q48 6 50 38q0 15 -9.5 25t-25.5 10q-59 -69 -149 -69q-49 0 -84 23q-55 35 -55 105q0 83 95 154q57 35 97 70l14 12q3 11 9 24l-3 3q-22 25 -59 25q-38 -4 -53 -15q6 -23 24 -55l-106 -62
q-11 16 -27 54q-17 43 -17 72q0 27 16 53q51 68 154 76q92 0 152 -57q56 35 137 35q100 -4 142 -46q38 -39 38 -91q0 -58 -45 -109q33 -44 33 -98q0 -63 -56 -100q-37 -24 -99 -27q0 -73 -45 -120q-5 -6 -9 -9q57 -26 77 -59zM187 232q24 0 41 11q-15 18 -24 39
q-31 -26 -31 -48q2 -2 14 -2zM476 278q39 0 51 8q-2 13 -19 35q-48 0 -74 31q-12 18 -12 38q0 17 9 33q15 28 58 31q11 0 25 -2q26 21 26 38q-5 10 -57 13q-66 0 -95 -36q-13 -53 -60 -94q9 -17 37 -47q50 -48 111 -48z" />
    <glyph glyph-name="ny_jo_bn" horiz-adv-x="832" 
d="M700 -117q-131 94 -131 222q0 34 3 52q-6 0 -13 2q-17 -89 -73 -137q-35 -29 -70 -37t-59 -9t-42 -1q-97 0 -169 59q-90 80 -113 208q-10 51 -10 61l123 7l3 -20q7 -57 34 -109q43 -83 133 -83l37 3q2 0 2 -0.5t4 -0.5q8 0 21.5 2.5t26 13.5t20.5 28q-30 -8 -51 -8
q-60 0 -115 41q-50 42 -50 94l1 14q12 93 184 173q31 19 42 37l-7 4q-11 4 -38.5 12t-81.5 12q-51 0 -64 -26q-2 -5 -2 -7q0 -7 15 -17l3 -2l-57 -109q-31 16 -58 49t-27 79q0 54 43 101q49 54 147 54q62 0 125 -18q55 -17 65 -24.5t19 -15.5q43 23 93 23q30 0 61 -12
q61 -25 92 -60q32 -39 32 -79q-3 -38 -16 -61q27 -32 27 -77q0 -97 -110 -146l5 -2l-3 -7q-9 -23 -9 -53q0 -76 77 -129zM603 278q38 0 67 21q16 11 16 19q-23 -9 -48 -11q-38 0 -66 33q-13 20 -13 41q0 16 7 30.5t25 27t56 12.5q12 0 22 -1l5 6q-10 14 -47 28q-7 3 -15 3
q-24 0 -52 -18q-19 -63 -82 -105l67 -65q25 -21 58 -21zM380 259q11 2 22 8l-34 33q-23 -17 -30 -26q23 -15 42 -15z" />
    <glyph glyph-name="ny_jho_bn" horiz-adv-x="881" 
d="M438 47v91l-77 -73q37 -5 77 -18zM664 295l15 1q25 3 39 9.5t17 12.5v1q-1 3 -6 8q-8 -1 -16 -1q-19 0 -38 6q-28 10 -41 29t-13 40q0 9 2 18q6 21 24 36t48 15q10 0 22 -2q1 -1 1.5 -1h1.5q2 7 2 13v5q0 5 -1 7.5t-2 4t-2 2.5q-10 5 -24 5q-29 0 -66 -17t-66 -37v-104
l1 -1q16 -23 35.5 -36.5t66.5 -13.5zM610 177q-25 5 -49 15v-55l49 -26v66zM561 -50v-54h-123v17q-48 25 -99 30t-80 5h-46l-57 90l179 173h-10q-33 0 -57 -3h-1q-16 -2 -21 -3h-2l-28 -1q-49 0 -81 15.5t-50 34.5q-40 43 -51 93t-11 76l1 17l122 -9v-6q0 -15 5 -41t21 -43
q2 -3 12 -8.5t32 -5.5h11q8 1 34 4t61 3l43 -2q40 -2 73 -11v161q0 13 -2.5 19.5t-6 9.5t-5.5 5h-1q-12 6 -21 6q-2 1 -3 1q-39 0 -60 -8q3 -2 6 -5q6 -5 13 -17.5t7 -31.5q0 -20 -12 -46q-16 -31 -45 -40q-10 -3 -19 -3q-17 0 -30.5 6.5t-20.5 11.5q-60 40 -60 102
q0 16 5 33q8 30 33.5 57.5t70.5 45.5t112 18q6 0 25 -2.5t43.5 -12.5t47.5 -32q9 -9 18 -21q34 19 75.5 33.5t85.5 14.5q38 0 76 -16q58 -28 72 -93q4 -17 4 -34q0 -34 -14 -67l-6 -13q12 -15 20 -32q12 -26 12 -52q0 -30 -15 -58q-33 -60 -110 -80v-281h-101z" />
    <glyph glyph-name="tt_tto_bn" horiz-adv-x="533" 
d="M262 -90q-48 0 -96 16q-136 48 -186 184l117 40q20 -52 52 -76.5t56 -31.5q28 -9 57 -9q43 0 78 21q9 7 11.5 12.5t2.5 7.5l1 6l-2 10q-41 -17 -83 -17q-85 0 -135 70q-14 23 -20 41.5t-7 25.5v289h-118v123h379q-2 8 -4 9q-7 6 -27.5 7.5t-41.5 1.5l-48 -1
q-40 0 -80.5 9.5t-72.5 40.5q-49 48 -49 145v11l123 -4v-8q0 -42 13 -58q8 -8 26 -10.5t40 -2.5l56 1q41 0 81.5 -8.5t70.5 -41.5q32 -34 37 -91h50v-123h-312v-274q1 -6 7 -16q4 -5 11 -9t21 -4q47 0 89 46q11 13 20 33q-59 14 -89 64q-12 21 -12 43q0 29 20 54
q38 45 86 45q12 0 24 -3q78 -24 98 -117q4 -22 4 -43q0 -82 -54 -151q22 -40 22 -87l-2 -23q-9 -64 -68 -105q-66 -42 -146 -42z" />
    <glyph glyph-name="tt_bo_bn" horiz-adv-x="466" 
d="M427 -200h-123v39q-49 29 -102.5 43.5t-111.5 18.5l-57 89l101 97q-41 18 -67 56q-14 22 -19.5 41t-6.5 26v289h-51v123h312q-2 8 -4 9q-7 6 -27.5 7.5t-41.5 1.5l-48 -1q-40 0 -80.5 9.5t-73.5 40.5q-48 47 -48 140v16l123 -4v-9q0 -41 13 -57q8 -8 26 -10.5t40 -2.5
l56 1q41 0 81 -8.5t71 -41.5q31 -34 37 -91h50v-123h-312v-274q1 -6 7 -16q4 -5 11 -9t21 -4q47 0 89 46q11 13 20 33q-60 14 -89 64q-12 22 -12 44q0 28 19 53q38 45 86 45q12 0 25 -3q77 -24 98 -117q4 -22 4 -43q0 -45 -16 -86v-432zM304 -24v104l-86 -83q41 -5 86 -21z
" />
    <glyph glyph-name="tt_mo_bn" horiz-adv-x="671" 
d="M210 102h-6q-87 0 -136 70q-15 24 -21 43.5t-6 24.5v259h-51v123h312q-2 8 -4 9q-7 6 -27.5 7.5t-41.5 1.5l-48 -1q-40 0 -80 9.5t-73 40.5q-49 48 -49 145v11l123 -4v-8q0 -42 13 -58q9 -8 27 -10.5t40 -2.5l56 1q40 0 80.5 -8.5t71.5 -41.5q32 -34 36 -91h81v16h123
v-16h51v-123h-51v-635h-123v152q-28 45 -89 49.5t-93 -31.5q25 -4 46 -18.5t30 -39.5q4 -11 4 -24q0 -16 -8 -32.5t-26 -31.5q-33 -24 -69 -24q-25 0 -49 11q-73 37 -81 122v10q0 52 38 95zM164 499v-245q1 -3 3 -7.5t5 -8.5q3 -5 10 -9t22 -4q59 0 98 40l7 10
q-58 15 -86 63q-11 21 -11 43q0 29 19 54q38 45 86 45q12 0 25 -3q77 -24 97 -117q4 -23 4 -43q0 -39 -11 -68t-25 -49q-8 -11 -16 -21q53 -2 116 -27v347h-343z" />
    <glyph glyph-name="tt_ro_bn" horiz-adv-x="525" 
d="M475 -92h-123v22l-2 2q-8 5 -20 11q-19 9 -38 9q-22 0 -45 -11q-45 -19 -82 -19q-26 0 -47.5 7t-37.5 16q-53 33 -80.5 81t-31.5 81l122 16q2 -11 14.5 -34t35.5 -37q9 -7 25 -7q13 0 31 8q53 22 96 22q33 0 60 -9v52q-43 -15 -90 -15q-85 0 -135 69q-15 24 -21 43.5
t-6 25.5v258h-110v123h371l-3 9q-1 0 -1 1q-5 5 -21 7t-34 2l-57 -1q-41 0 -83 8.5t-75 41.5q-49 48 -49 145v11l123 -4v-8q0 -42 13 -58q9 -8 29 -10.5t43 -2.5l58 1q39 0 77 -9.5t67 -40.5q32 -35 37 -92h50v-123h-312v-244l2.5 -7.5t5.5 -9.5q3 -5 10 -8.5t21 -3.5
q60 0 99 40l7 10q-58 14 -86 63q-12 21 -12 43q0 29 20 54q38 45 86 45q12 0 24 -3q78 -24 98 -117q4 -23 4 -42q0 -33 -8 -59t-19 -45v-307z" />
    <glyph glyph-name="tt_ro_alt_bn" horiz-adv-x="466" 
d="M416 -92h-123v22l-2 2q-8 5 -20 11q-19 9 -38 9q-38 0 -61 -11q-40 -19 -101 -19q-40 0 -61.5 7t-37.5 16q-53 33 -80.5 81t-31.5 81l122 16q2 -11 14.5 -34t35.5 -37q12 -7 39 -7q31 0 50 8q53 22 112 22q33 0 60 -9v52q-43 -15 -90 -15q-85 0 -135 69q-15 24 -21 43.5
t-6 25.5v258h-51v123h312l-3 9q-1 0 -1 1q-5 5 -21 7t-34 2l-57 -1q-41 0 -83 8.5t-75 41.5q-49 48 -49 145v11l123 -4v-8q0 -42 13 -58q9 -8 29 -10.5t43 -2.5l58 1q39 0 77 -9.5t67 -40.5q32 -35 37 -92h50v-123h-312v-244l2.5 -7.5t5.5 -9.5q3 -5 10 -8.5t21 -3.5
q60 0 99 40l7 10q-58 14 -86 63q-12 21 -12 43q0 29 20 54q38 45 86 45q12 0 24 -3q78 -24 98 -117q4 -23 4 -42q0 -33 -8 -59t-19 -45v-307z" />
    <glyph glyph-name="tth_ro_bn" horiz-adv-x="519" 
d="M459 -90h-123v17q-26 18 -59 18q-22 0 -48 -10q-44 -16 -80 -16q-107 0 -176 115l103 70q3 -9 12 -23q25 -39 60 -39q14 0 34 7q51 19 94 19q33 0 60 -8v31q-28 -6 -62 -6q-168 9 -235 173l-16 46l64 42l18 -2q27 0 48 23q17 20 17 68q0 26 -7 64h-173v123h143
q-18 44 -18 85q0 22 5 43q18 57 59 87t74 37l29 -119l-5 -2q-36 -12 -39 -45q0 -32 36 -86h255v-123h-144q111 -113 111 -218q0 -64 -37 -113v-258zM279 208q32 0 57 13q37 20 37 59q0 57 -81 139q-3 -78 -44 -129q-26 -32 -57 -47q38 -35 88 -35z" />
    <glyph glyph-name="dd_ddo_bn" horiz-adv-x="1057" 
d="M751 4q-97 0 -167 47q-34 23 -55 50q-40 -34 -99 -45q-53 -10 -101 -10q-127 0 -207 76q-83 80 -97 229q-2 26 -2 49q0 55 5 75v4q23 -4 35 -6l52 -8q12 -2 34 -5q-3 -21 -3 -54q0 -46 12.5 -102t48.5 -94q44 -41 122 -41q36 0 78 8q28 6 41 16.5t18 19.5q14 30 14 65
l-1 24q-16 -10 -29 -19q-36 -25 -63.5 -39t-60.5 -14q-28 0 -51 14q-37 24 -48 63t-11 65l1 18v109h-227v123h1077v-123h-297v-180q1 0 2 1q10 5 25 16l2 2l135 88l69 -24l9 -28q4 -8 13 -44t9 -85q0 -31 -6.5 -63.5t-23.5 -63.5q-45 -77 -142 -101q-58 -13 -111 -13z
M751 126q38 0 84 11q29 7 42.5 19t18.5 22q15 32 15 68l-1 17q-15 -9 -27 -18q-38 -25 -65.5 -39.5t-60.5 -14.5q-28 0 -51 14q-38 24 -49 63t-11 65l1 18v148h-307v-115l-1 -3q0 -10 1 -23q3 2 7 4q8 5 19 13q26 18 40 27t22 14t15 10q7 4 20.5 13t40.5 26l68 -24l10 -28
v-1q4 -10 12.5 -46t8.5 -84q0 -27 -5 -56q4 -14 16.5 -35t39.5 -39q39 -26 97 -26z" />
    <glyph glyph-name="dd_ro_bn" horiz-adv-x="623" 
d="M-10 622h643v-123h-296v-90l-1 -3v-10q1 0 2 1q10 3 29 15l135 75l65 -19l11 -28q3 -7 12.5 -40t9.5 -78q0 -25 -5.5 -52t-19.5 -53q-9 -15 -22 -31v-285h-123v22q-9 8 -22 14q-18 8 -38 8q-21 0 -45 -10q-45 -19 -81 -19q-27 0 -48.5 7t-37.5 16q-53 32 -80 80t-31 82
l122 16q1 -11 13.5 -34t35.5 -37q9 -7 25 -7q13 0 31 8q53 22 96 22q33 0 60 -9v62q-1 -1 -2 -1h-3q-54 -9 -102 -9q-136 0 -217 76q-36 36 -54 76.5t-23.5 78.5t-5.5 64q0 31 2 36l122 -16q-1 -2 -1 -23q0 -24 8.5 -61t37.5 -67q44 -42 132 -42q37 0 81 8q23 4 36 11
t18.5 13.5t7.5 10.5q10 22 10 46v9q-18 -10 -32 -18q-36 -21 -63 -32.5t-59 -11.5q-31 0 -57 16q-33 23 -43 56t-10 57l1 17v83h-224v123z" />
    <glyph glyph-name="ddh_ro_bn" horiz-adv-x="525" 
d="M475 -92h-123v22l-2 2q-8 5 -20 11q-19 9 -38 9q-22 0 -45 -11q-45 -19 -82 -19q-26 0 -47.5 7t-37.5 16q-53 33 -80.5 81t-31.5 81l122 16q2 -11 14.5 -34t35.5 -37q9 -7 25 -7q13 0 31 8q53 22 96 22q33 0 60 -9v52q-43 -15 -90 -15q-85 0 -135 69q-15 24 -21 43.5
t-6 25.5v258h-110v123h545v-123h-312v-244l2.5 -7.5t5.5 -9.5q3 -5 10 -8.5t21 -3.5q60 0 99 40l7 10q-58 14 -86 63q-12 21 -12 43q0 29 20 54q38 45 86 45q12 0 24 -3q78 -24 98 -117q4 -23 4 -42q0 -33 -8 -59t-19 -45v-307z" />
    <glyph glyph-name="nn_tto_bn" horiz-adv-x="736" 
d="M311 350l-15 46q-17 65 -56 93q-18 10 -39 10q-19 0 -34 -9q-10 -5 -15 -15l6 2q12 3 23 3q32 0 55 -25q18 -22 18 -49q0 -15 -6 -30q-19 -45 -66 -52l-22 -1q-24 0 -56 11q-43 20 -70 69q-7 13 -7 20q-1 2 -1 3q-3 14 -3 29q0 43 21.5 80.5t59.5 60.5q46 26 97 26
q53 0 102 -28q5 -2 8 -5v33h261q-1 8 -4 9q-7 6 -27 7.5t-41 1.5l-48 -1q-40 0 -80.5 9.5t-73.5 40.5q-49 50 -49 145v11l123 -4v-8q0 -42 13 -58q9 -8 27 -10.5t40 -2.5l58 1q40 0 80 -8.5t70 -41.5q32 -34 36 -91h50v-123h-312v-306q2 -6 8 -16q3 -5 10 -9t22 -4
q45 0 88 46q12 13 20 33q-59 14 -89 64q-11 21 -11 43q0 29 19 54q38 45 87 45q12 0 24 -3q77 -24 97 -117q4 -22 4 -44q0 -84 -57 -154q-35 -42 -83.5 -66t-98.5 -24q-87 0 -136 70q-15 24 -20.5 44t-5.5 24l-1 4v167z" />
    <glyph glyph-name="nn_ttho_bn" horiz-adv-x="667" 
d="M412 164q47 0 78 27.5t31 67.5q0 65 -79 152q-7 -83 -44.5 -133t-84.5 -69q25 -27 50 -36t41 -9h8zM307 365q-1 1 -1 2l-10 29q-17 65 -56 93q-18 10 -39 10q-19 0 -34 -9q-10 -5 -15 -15l6 2q12 3 23 3q32 0 55 -25q18 -22 18 -49q0 -15 -6 -30q-19 -45 -66 -52l-22 -1
q-24 0 -56 11q-43 20 -70 69q-7 13 -7 20q-1 2 -1 3q-3 14 -3 29q0 43 21.5 80.5t59.5 60.5q46 26 97 26q48 0 93 -23l-4 23q-23 55 -23 103q0 26 6 50q19 59 59 89.5t71 38.5l34 -119q-1 0 -10.5 -4t-19.5 -13.5t-15 -25.5q-2 -6 -2 -16q0 -15 8 -40t30 -63h249v-123h-150
q60 -62 88.5 -123t28.5 -118q0 -91 -67 -154.5t-165 -63.5q-45 2 -80.5 13t-72.5 39q-46 35 -68.5 77t-41.5 104l60 44l21 -2q3 0 14.5 1.5t25.5 8t26 21.5q6 8 11 19z" />
    <glyph glyph-name="nn_ddo_bn" horiz-adv-x="796" 
d="M379 -24q-160 0 -255 101q-44 51 -66 108.5t-28.5 109t-6.5 81.5q0 25 1 29l123 -10q-1 -2 -1 -22q0 -22 4.5 -60t19.5 -78.5t45 -74.5q56 -61 164 -61q119 0 186.5 21t81.5 48q3 6 3 14l-1 9q-20 -8 -34 -11l-15 -1q-60 0 -100 57q-13 22 -13 46q0 46 46 80q30 20 66 20
q14 0 28 -3q4 23 4 42q0 35 -11 54l-131 -124l-41 57l-4 5q-26 38 -46 56.5t-32.5 24t-17.5 5.5h-2q-17 0 -37 -24q-21 -22 -21 -46q0 -12 5 -25q6 -14 15 -28q27 19 56 19q28 0 52 -17q43 -37 43 -86q0 -17 -5 -32q-26 -56 -85 -56h-8q-52 5 -102.5 46.5t-77.5 101.5
q-15 38 -15 76q0 13 1 25q8 56 49 104q36 39 70.5 52t61.5 13h8q77 -6 149 -87l107 101l38 -19h1q7 -4 28.5 -20.5t42.5 -50.5q13 -21 23 -52t10 -73t-14 -96l-8 -27q22 -34 31 -63t9 -54q0 -43 -18 -71q-38 -72 -151 -106q-93 -28 -225 -28z" />
    <glyph glyph-name="nn_dd_ro_bn" horiz-adv-x="764" 
d="M627 -114h-123v23q-23 17 -58 17q-23 0 -54 -9q-67 -21 -120 -21q-79 0 -137 38.5t-83.5 88t-28.5 82.5l122 15q0 -9 13 -35t43 -46t71 -20q37 0 82 15q52 16 93 16q32 0 57 -7v28q-44 -4 -95 -4q-90 0 -153.5 28t-105.5 69t-66 83q-37 66 -49 119t-12 55l122 14l4 -19
q3 -20 14 -48q65 -178 246 -178q75 0 118.5 8.5t64.5 18.5t25 17q-21 -11 -45 -11q-49 0 -82 44q-14 23 -14 48q0 46 44 83q30 20 74 20q3 16 3 28q0 20 -6 32l-118 -102q-39 51 -43 55q-52 68 -82 68q-16 0 -34 -18q-14 -14 -14 -33q0 -29 23 -64q21 11 42 11q29 0 54 -19
q38 -34 38 -77q0 -41 -32 -67q-21 -17 -56 -17q-54 0 -107 53q-85 84 -85 178q0 68 49 121q55 55 120 55q74 0 143 -70l96 82q18 -8 37 -16.5t42 -30.5t39.5 -57.5t16.5 -84.5q0 -41 -18 -99q39 -55 39 -108q0 -35 -14 -58q-26 -54 -100 -82v-212z" />
    <glyph glyph-name="nn_ddho_bn" horiz-adv-x="736" 
d="M311 350l-15 46q-17 65 -56 93q-18 10 -39 10q-19 0 -34 -9q-10 -5 -15 -15l6 2q12 3 23 3q32 0 55 -25q18 -22 18 -49q0 -15 -6 -30q-19 -45 -66 -52l-22 -1q-24 0 -56 11q-43 20 -70 69q-7 13 -7 20q-1 2 -1 3q-3 14 -3 29q0 43 21.5 80.5t59.5 60.5q46 26 97 26
q53 0 102 -28q5 -2 8 -5v33h435v-123h-312v-306q2 -6 8 -16q3 -5 10 -9t22 -4q45 0 88 46q12 13 20 33q-59 14 -89 64q-11 21 -11 43q0 29 19 54q38 45 87 45q12 0 24 -3q77 -24 97 -117q4 -22 4 -44q0 -84 -57 -154q-35 -42 -83.5 -66t-98.5 -24q-87 0 -136 70
q-15 24 -20.5 44t-5.5 24l-1 4v167z" />
    <glyph glyph-name="nn_nno_bn" horiz-adv-x="516" 
d="M233 -45h-4q-46 3 -90 34q-43 34 -60 82q-7 16 -7 45q0 27 14.5 61.5t57.5 69.5q68 55 132 55q16 0 33 -3q22 -3 43 -11v52q-4 14 -6 25l-6 21q-13 32 -29.5 58t-42.5 41q-30 15 -59 15q-25 0 -42 -9q-17 -7 -20 -21q12 5 29 8l18 2q38 0 62 -29q16 -21 16 -46
q0 -16 -7 -33q-21 -43 -70 -48h-15q-34 0 -71.5 15t-71.5 64q-9 16 -10 24q-4 17 -4 35q0 34 15 66q24 48 74 74q45 20 96 20q62 0 119 -29q13 -7 25 -16v45h172v-123h-49v-541h-123v194q-32 26 -63 26q-22 0 -38.5 -8t-30.5 -19q-25 -20 -25 -36l1 -6q25 14 57 14
q30 0 57 -20q10 -9 17 -22.5t7 -31.5q0 -15 -7 -33q-29 -61 -94 -61z" />
    <glyph glyph-name="nn_bo_bn" horiz-adv-x="517" 
d="M476 -42h-123v45q-44 30 -99 36t-78 6h-34l-55 86l252 258q-21 65 -71 96q-29 15 -59 15q-25 0 -42 -9q-15 -7 -20 -21q12 5 30 8l18 2q38 0 62 -29q16 -21 16 -47q0 -16 -7 -32q-22 -43 -70 -48h-16q-34 0 -71.5 15t-71.5 64q-8 16 -9 24q-5 18 -5 37q0 33 15 64
q24 48 75 74q44 20 95 20q61 0 119 -29q14 -7 26 -16v45h174v-123h-51v-541zM353 140v87l-67 -69q33 -5 67 -18z" />
    <glyph glyph-name="nn_mo_bn" horiz-adv-x="744" 
d="M375 -7q-25 0 -49 11q-73 37 -81 122q0 105 107 158v56l-6 25q-10 38 -35 79q-17 26 -45 41t-57 15q-52 0 -63 -30q15 6 48 10q38 0 62 -29q16 -21 16 -47q0 -16 -7 -32q-25 -48 -86 -48q-87 0 -142 79q-14 25 -14 61q0 33 14 64q49 94 170 94q61 0 119 -29q14 -7 26 -16
v45h228v16h123v-16h51v-123h-51v-499h-123v145q-31 50 -101 50q-52 0 -81 -32q25 -4 46 -18q34 -24 34 -64q0 -36 -34 -64q-33 -24 -69 -24zM580 281v218h-105v-192q48 -4 105 -26z" />
    <glyph glyph-name="nn_ro_bn" horiz-adv-x="516" 
d="M111 237q2 -11 14 -33q12 -23 35 -37q9 -7 25 -7q13 0 31 8q45 21 88 21q26 0 48 -5v156l-6 25q-1 3 -1 6q-2 8 -5 15q-13 32 -29 58t-43 41q-30 15 -59 15q-25 0 -42 -9q-17 -7 -20 -21q12 5 29 8l18 2q38 0 62 -29q16 -21 16 -46q0 -16 -7 -33q-21 -43 -69 -48h-16
q-34 0 -71.5 15t-71.5 64q-9 17 -9 24q-5 18 -5 37q0 33 15 64q23 48 75 74q44 20 95 20q61 0 119 -29q14 -7 25 -16v45h174v-123h-51v-499h-123v52l-10 6q-18 8 -38 8q-21 0 -45 -10q-37 -19 -73 -19q-27 0 -48.5 7t-37.5 16q-53 32 -80 80q-7 12 -12 23z" />
    <glyph glyph-name="t_to_bn" horiz-adv-x="681" 
d="M368 -11q-66 0 -124 17q-102 31 -160 108q-61 86 -61 209q0 81 13 113l119 -32l-4 -23q-5 -23 -5 -57q0 -161 133 -200q41 -12 90 -12q43 0 84 10q70 16 81 52q-18 -3 -49 -3q-97 12 -108 100q0 33 28 58q29 20 66 20q25 0 51 -7q2 13 2 23q0 22 -9 34.5t-28.5 16.5
t-37.5 4q-58 0 -95.5 -20.5t-53.5 -45.5q32 -7 51 -28q18 -23 18 -50q0 -12 -4 -24q-28 -76 -80 -76q-66 0 -106 76q-14 31 -14 65q0 52 31.5 102t83.5 80h-290v123h701v-123h-101q57 -50 57 -135q0 -51 -15 -94q26 -38 26 -84q0 -76 -61 -129q-87 -68 -229 -68z" />
    <glyph glyph-name="t_t_bo_bn" horiz-adv-x="680" 
d="M591 -168h-123v28q-57 33 -177 34h-31l-64 84l138 118q-47 3 -87 12q-136 32 -192 132q-19 34 -25.5 68t-6.5 64q0 40 6 67t8 30l116 -39v-1q-2 -5 -5 -20t-3 -37q0 -17 4 -36t14 -37q29 -51 112 -72q43 -9 91 -9q76 0 135 21q-12 0 -22 1q-83 10 -100 73q-2 9 -2 19
q0 29 23 51q15 13 33.5 18t36.5 5q29 0 53 -7v6q0 9 -3 14q-4 6 -21 12t-51 6q-45 0 -77.5 -9.5t-52.5 -23.5q20 -7 35 -25q15 -20 15 -44q0 -13 -5 -27q-17 -40 -41.5 -52.5t-38.5 -12.5h-7q-55 0 -95 63q-17 29 -17 62q0 35 20 70q20 36 55 61h-249v123h700v-123h-77
l12 -15q21 -35 21 -79q0 -34 -12 -71q17 -23 21 -50l2 -22q0 -56 -45 -98q-9 -9 -21 -16v-316zM468 -7v56l-50 -43q25 -5 50 -13z" />
    <glyph glyph-name="t_tho_bn" horiz-adv-x="657" 
d="M616 -25h-123v27q-31 29 -157 60q-56 11 -96.5 15t-41.5 4l-51 3l-14 112l51 13q6 0 48 25t100 92q24 29 24 60l-2 17l-53 -52l-67 5l-34 78q-15 38 -33 38h-1q-9 0 -17 -15q-3 -12 -3 -25q0 -16 4 -32q24 0 46 -17q20 -16 30 -30q15 -25 15 -45t-6 -29q-4 -10 -19.5 -24
t-46.5 -14q-12 0 -25 3q-54 12 -90 69q-31 55 -31 116q0 32 9 63q33 96 131 103h3q32 0 67 -17.5t62 -58.5l76 76l44 -47q0 -1 1 -2q7 -7 22 -30t28 -59q12 -36 12 -71q0 -74 -51 -138q-33 -39 -63 -67q74 -15 129 -39v480h174v-123h-51v-524z" />
    <glyph glyph-name="t_no_bn" horiz-adv-x="613" 
d="M335 268l15 1q44 5 74.5 26.5t39.5 46.5q3 8 3 15q0 14 -14 27q-19 18 -54 23q17 -17 18 -43v-2q0 -24 -14.5 -43t-38.5 -25q-11 -3 -23 -3q-19 0 -39 8q-65 27 -81 87q-3 12 -3 24q0 40 29 74l16 15h-98q-6 -12 -11 -26q-8 -20 -8 -49q0 -19 6.5 -40.5t23.5 -42.5
q25 -28 67.5 -50.5t91.5 -22.5zM103 622q75 87 188 158l64 -105q-40 -24 -75 -53h343v-123h-120q20 -12 35 -27q52 -51 52 -115q0 -28 -10 -56q-17 -49 -59 -86v-354h-123v75q-15 42 -28.5 59t-38.5 17q-8 0 -17 -1q-12 -1 -24 -5.5t-19 -12.5q22 -6 40.5 -19t27.5 -36
q4 -12 4 -25q0 -33 -30 -59q-27 -19 -57 -19q-25 0 -50 15q-29 19 -46 53.5t-17 73.5q0 16 3 32q3 27 34.5 68t115.5 56q17 2 33 2q40 0 69 -12v29q-18 -4 -38 -6l-24 -1q-79 0 -146.5 35t-106.5 82q-60 73 -60 162q0 37 11 75h-44v123h113z" />
    <glyph glyph-name="t_bo_bn" horiz-adv-x="613" 
d="M402 35v55l-50 -42q25 -5 50 -13zM335 268l15 1q44 5 74.5 26.5t39.5 46.5q3 8 3 15q0 14 -14 27q-19 18 -54 23q17 -17 18 -43v-2q0 -24 -14.5 -43t-38.5 -25q-11 -3 -23 -3q-19 0 -39 8q-65 27 -81 87q-3 12 -3 24q0 40 29 74l16 15h-98q-6 -12 -11 -26q-8 -19 -8 -49
q0 -19 6.5 -40.5t24.5 -42.5q24 -28 66.5 -50.5t91.5 -22.5zM103 622q75 87 188 158l64 -105q-40 -24 -75 -53h343v-123h-120q20 -12 35 -27q52 -51 52 -115q0 -28 -10 -56q-17 -47 -55 -82v-346h-123v29q-57 33 -177 34h-31l-64 84l152 130q-64 12 -115.5 43t-83.5 69
q-60 73 -60 162q0 37 11 75h-44v123h113z" />
    <glyph glyph-name="t_lo_bn" horiz-adv-x="614" 
d="M336 268l15 1q44 5 74.5 26.5t39.5 46.5q3 7 3 14q0 15 -14 28q-21 18 -54 23q17 -17 18 -43v-2q0 -24 -14.5 -43t-39.5 -25q-11 -3 -22 -3q-19 0 -39 8q-66 27 -81 87q-3 13 -3 25q0 40 28 73l17 15h-98q-7 -13 -11 -26q-9 -20 -9 -50q0 -19 7 -40t24 -42
q24 -28 67 -50.5t92 -22.5zM103 622q75 87 188 158l64 -105q-39 -24 -74 -53h343v-123h-120q19 -12 35 -27q52 -51 52 -115q0 -28 -10 -56q-9 -24 -25 -47v-439h-123v165q-25 15 -30 15q-5 -3 -9.5 -11.5t-6.5 -17.5q12 -43 12 -88h-123q0 45 -14.5 77t-29.5 41l-4 1l-5 -2
q-9 -5 -17.5 -12.5t-12.5 -16.5q24 -4 41 -21q6 -6 13 -18.5t7 -31.5q0 -18 -11 -43q-25 -41 -52 -41q-47 1 -72.5 36t-33.5 73q-3 16 -3 33q0 87 77 147q26 20 69 20q33 0 64 -17q14 -8 26 -19q19 19 48 29q18 5 37 5q15 0 30 -3v48q-34 -13 -72 -17l-25 -1
q-79 0 -146.5 35t-106.5 82q-60 73 -60 162q0 37 11 75h-44v123h113z" />
    <glyph glyph-name="t_mo_bn" horiz-adv-x="818" 
d="M350 269q44 5 75 27q42 29 42 61q0 15 -14 27q-19 18 -54 24q17 -18 18 -45q0 -49 -53 -69q-11 -3 -23 -3q-19 0 -39 8q-65 27 -81 87q-3 12 -3 24q0 49 45 89h-98l-11 -25q-8 -20 -8 -50q0 -83 98 -133q42 -22 106 -22zM654 191v308h-151q20 -11 35 -26q52 -52 52 -115
q0 -28 -10 -56q-18 -49 -56 -84h4q57 0 126 -27zM102 622q77 87 188 158l65 -105q-40 -24 -75 -53h374v16h123v-16h51v-123h-51v-596h-123v152q-31 50 -101 50q-52 0 -81 -32q25 -4 46 -18q34 -24 34 -64q0 -36 -34 -64q-33 -24 -69 -24q-25 0 -49 11q-73 37 -81 122
q0 66 43 111l-26 -1q-79 0 -146.5 34.5t-106.5 81.5q-60 73 -60 162q0 38 11 75h-44v123h112z" />
    <glyph glyph-name="t_ro_bn" horiz-adv-x="629" 
d="M588 -89h-123q-38 54 -68 76q-21 16 -74 16q-33 0 -83 -10q-28 -6 -51 -6q-44 0 -72 15q-94 49 -94 194q0 88 30 196q11 42 13 46l117 -39l-11 -38q-26 -90 -26 -162q0 -33 5.5 -53t12.5 -28t24 -8q11 0 26 3q60 13 110 13q85 0 141 -37v283q0 10 -6 14t-24 6
q-41 0 -74 -35q13 -2 25 -8q39 -22 41 -72q0 -37 -25 -66q-47 -56 -108 -56q-53 0 -80 48q-11 19 -14 61q0 30 11 70q36 125 146 165h-367v123h649v-123h-132q81 -40 81 -126v-462z" />
    <glyph glyph-name="th_bo_bn" horiz-adv-x="591" 
d="M550 -105h-123v16q-57 33 -180 34h-30l-65 84l207 175q-29 5 -83 5q-40 -1 -69.5 -4.5t-38.5 -5.5h-2l-43 -8l-64 117q17 7 31 13q35 16 61.5 29t61.5 37q3 3 6 4l10 8q25 16 33 32l2 8q0 13 -10.5 25.5t-21.5 19.5q-6 3 -13 6q-1 0 -3 1q3 -10 3 -20l-1 -12
q-5 -29 -23 -49t-38 -28q-21 -10 -42 -10q-19 0 -36 8q-37 17 -51 56q-5 16 -5 33q0 55 40 95q45 47 116 53l15 1q55 0 103 -30q49 -31 74 -81q16 -33 16 -67q0 -30 -12 -58q-14 -31 -37 -52q51 -4 89 -17v309h174v-123h-51v-604zM427 44v56l-51 -43q25 -5 51 -13z" />
    <glyph glyph-name="th_ro_bn" horiz-adv-x="590" 
d="M549 -111h-123v69q-8 7 -22 12.5t-36 5.5q-34 0 -88 -23q-54 -24 -96 -24q-25 0 -45.5 6t-36.5 14q-60 35 -89.5 90.5t-34.5 91.5l122 21q3 -19 18.5 -48.5t40.5 -45.5q1 0 1 -1l9 -3t15 -2q16 0 43 12q42 19 77.5 27t64.5 8q32 0 57 -7v41q-1 16 -13 25q-37 26 -123 26
h-18q-44 -1 -74.5 -5.5l-30.5 -4.5l-46 -9l-59 118q23 11 40 20q31 14 54.5 27.5t53.5 36.5l6 5q1 0 1 1q32 21 44 44q3 7 3 13q0 17 -11.5 31t-23.5 22q-7 6 -16 8q5 -14 5 -31v-9q-5 -29 -22.5 -49t-36.5 -29q-22 -11 -45 -11q-18 0 -35 7q-37 18 -51 60q-5 17 -5 34
q0 29 11.5 54.5t26.5 42.5q57 57 132 57q55 0 105 -32q49 -34 73 -86q16 -35 16 -70q0 -30 -12 -58q-17 -40 -45 -65q54 -4 96 -18v334h174v-123h-51v-610z" />
    <glyph glyph-name="th_lo_bn" horiz-adv-x="591" 
d="M201 -159q-8 0 -10 1q-38 6 -63 38q-37 47 -37 102q0 87 93 148q34 20 69 20q51 0 62 -38q34 34 91 34l18 -1q-2 7 -11 13q-39 27 -134 27q-49 -2 -80 -6.5t-77 -13.5l-60 118l38 18q69 33 114 69q4 2 4 3q46 30 46 57q0 16 -11 31q-20 25 -40 30q6 -14 6 -29
q-3 -37 -23 -60q-34 -40 -81 -40q-18 0 -35 7q-38 18 -52 60q-5 17 -5 33q0 57 39 98q51 57 132 57q54 0 105 -32q49 -34 73 -86q15 -35 15 -69q0 -72 -56 -124q54 -4 96 -18v334h174v-123h-51v-610h-123v129q-15 5 -22 5q-3 0 -7 -2t-8 -11.5t-6 -21.5q10 -38 10 -80h-93
q0 45 -15 77q-18 38 -34 42q-23 -9 -35 -31q26 -3 42 -21q20 -17 20 -48q0 -19 -12 -44q-24 -42 -66 -42z" />
    <glyph glyph-name="d_do_bn" horiz-adv-x="661" 
d="M585 -88q-105 97 -107 241q-38 -66 -57 -112l-16 -38h-76q-46 42 -69.5 84t-23.5 107q0 25 4 50q-51 -73 -69 -117l-31 -71l-99 73v370h-51v123h681v-123h-507v-153q90 107 191 121l31 5l72 -74l-34 -42q-1 -1 -10 -14t-21.5 -35.5t-22.5 -50.5q-11 -33 -11 -57v-7l14 25
q86 145 174 183l53 24l49 -98l-15 -27q0 -1 -1 -3q-5 -9 -15 -38.5t-15 -70.5l-2 -30q0 -94 67 -154z" />
    <glyph glyph-name="d_d_bo_bn" horiz-adv-x="763" 
d="M599 -73v44l-43 -34zM599 276l-17 3q-46 -32 -102 -123q-21 -36 -35.5 -65.5t-20.5 -42.5l-3 -7l-15 -38h-77q-46 42 -69.5 84t-23.5 107q0 25 4 50q-51 -73 -69 -117l-30 -71l-100 73v370h-51v123h783v-123h-609v-153q90 107 191 121l31 5l72 -74l-34 -42l-2 -4
q-8 -9 -23.5 -35t-28.5 -61q-11 -33 -11 -58v-6q6 13 15 25q86 145 173 183l17 8l158 -31v-603h-123v22q-60 28 -179 29h-31l-64 84l274 226v141z" />
    <glyph glyph-name="d_dho_bn" horiz-adv-x="728" 
d="M539 -104h-123v17q-60 33 -193 33h-15l-64 84l275 231l2 79q-119 -66 -221 -183q-24 -27 -73 -91l-86 63v370h-51v123h748v-123h-574v-201q102 105 249 176l132 -31l-1 -89l37 28l106 -45v-373h-123v251l-22 -16q-3 -185 -3 -303zM417 45v54l-49 -42q24 -4 49 -12z" />
    <glyph glyph-name="d_dh_bo_bn" horiz-adv-x="728" 
d="M422 -104v53l-48 -42q25 -3 48 -11zM422 89v42l-40 -32q14 -2 40 -10zM545 -237h-123v12q-34 15 -69.5 20.5t-63.5 5.5h-16l-35 -2l-49 87l114 100q-36 3 -80 3h-14l-68 83l278 216l2 65q-121 -62 -221 -168q-25 -27 -73 -84l-86 58v340h-51v123h748v-123h-574v-177
q104 98 250 163l131 -28v-82l37 25l105 -41v-354h-123v233l-19 -13v-462z" />
    <glyph glyph-name="d_no_bn" horiz-adv-x="562" 
d="M281 -122q-25 0 -51 15q-29 19 -45.5 53.5t-16.5 72.5q0 17 3 33q3 27 34.5 68t115.5 56q17 2 33 2q30 0 54 -7q0 99 7 166q-66 -38 -121 -87q-99 -88 -130 -135l-38 -49l-85 63v370h-51v123h582v-123h-408v-202q45 45 104.5 90.5t143.5 85.5l138 -32l-7 -58
q-12 -84 -12 -209q0 -74 9 -164q6 -49 16 -97l-120 -26q-11 50 -17 102q-13 36 -26.5 51t-37.5 15q-8 0 -18.5 -1t-22.5 -5.5t-18 -12.5q21 -5 40 -18q32 -23 32 -61q0 -34 -31 -60q-26 -19 -56 -19z" />
    <glyph glyph-name="d_bo_bn" horiz-adv-x="562" 
d="M408 15v87l-90 -69q49 -6 90 -18zM410 273q2 35 5 64q-66 -38 -121 -87q-99 -88 -130 -135l-38 -49l-85 63v370h-51v123h582v-123h-408v-202q45 45 104.5 90.5t143.5 85.5l138 -32l-7 -58q-12 -84 -12 -208v-315h-123v24q-42 18 -96.5 25.5t-98.5 7.5l-63 -3l-61 97
l320 247q1 8 1 15z" />
    <glyph glyph-name="d_bho_bn" horiz-adv-x="572" 
d="M301 -190q-25 0 -55 4q-83 19 -137 66.5t-72 96.5q-13 32 -17 60t-4 47q0 21 1 26l122 -17v-10q0 -10 2.5 -26.5t10.5 -35.5q31 -69 113 -86q19 -3 35 -3q69 0 102 46q0 1 0.5 1.5l1.5 1.5q-34 -15 -71 -15q-23 0 -46 6q-60 16 -91 67q-18 31 -18 66q0 16 4 33
q8 30 30 48t50 18h1q29 0 51.5 -17.5t29.5 -45.5q2 -9 2 -18q0 -18 -8 -34q21 1 41 27q-17 37 -24 74t-7 71q0 39 6 72q-85 -47 -135 -94t-56 -56l-1 -1l-34 -42l-87 54v305h-51v123h592v-123h-418v-145q75 65 197 116l17 7l150 -33l-34 -69q0 -1 -1 -3q-4 -10 -13 -40.5
t-9 -71.5q0 -22 5 -47q11 -2 17 -2q6 -1 9.5 -2t5.5 -3.5t5 -8.5t8 -15q28 -53 28 -120v-12q-5 -81 -46 -142q-13 -20 -39 -42.5t-66 -39t-97 -16.5z" />
    <glyph glyph-name="d_bh_ro_bn" horiz-adv-x="663" 
d="M630 -247h-123v51q-12 4 -29 10t-56 6q-43 0 -81 -11t-73 -11q-31 0 -58 6q-59 15 -99 56q-69 72 -69 212v22q2 45 7.5 79.5t8.5 46.5l1 5l120 -30q-5 -18 -9.5 -51t-4.5 -71q0 -37 7.5 -71.5t27.5 -56.5q23 -24 70 -24q23 0 56.5 11.5t96.5 11.5q50 0 87 -11q1 22 3 39
q0 10 1 19q0 5 1 8q-23 -12 -43 -18q-32 -8 -62 -8q-43 0 -76 10q-59 16 -90 67q-19 32 -19 67q0 16 4 31q24 67 81 67h1q28 0 51 -18t30 -46q2 -9 2 -18q0 -18 -9 -35q14 -2 26 -2q27 0 41 9q-39 48 -53.5 94t-14.5 86q0 20 3 38q-100 -55 -115 -74q-2 -2 -3 -2l-31 -32
q-15 8 -23 12t-12.5 6.5t-9 4.5t-11.5 5q-9 5 -30 15v241h-162v123h683v-123h-398v-97q67 43 182 81l20 6l117 -44l-54 -66q-3 -2 -13.5 -20.5t-16.5 -48.5q-3 -14 -3 -27q0 -43 27 -82l55 -9q29 -51 40 -80.5t11 -72.5q0 -26 -3 -56v-2q-7 -48 -7 -167v-61z" />
    <glyph glyph-name="d_mo_bn" horiz-adv-x="687" 
d="M523 253v246h-359v-130q77 56 201 99l109 -47q-67 -74 -67 -139l1 -18q18 2 37 2q37 0 78 -13zM369 -35q-25 0 -49 11q-73 37 -81 122q0 62 36 103q-2 20 -2 38q0 30 4 56q-53 -32 -82.5 -56.5t-33.5 -30.5l-33 -40l-25.5 15t-13 8t-9.5 5.5t-14.5 7.5t-24.5 14v281h-51
v123h707v-123h-51v-532h-123v127q-14 32 -38 42q-19 7 -40 7q-29 0 -53 -8q25 -4 46 -18q34 -24 34 -64q0 -36 -34 -64q-33 -24 -69 -24z" />
    <glyph glyph-name="d_ro_bn" horiz-adv-x="486" 
d="M450 -106h-123v30q-8 6 -19 12q-18 8 -38 8q-22 0 -46 -10q-21 -12 -57 -12q-26 0 -47 6.5t-37 15.5q-53 33 -80.5 81t-31.5 82l122 16q2 -11 14.5 -34t35.5 -37q9 -7 24 -7q13 0 32 8q27 14 70 14q32 0 58 -8v1q-30 48 -42 93.5t-12 84.5q0 31 5 57q-58 -34 -87.5 -60.5
t-29.5 -27.5l-33 -38l-87 49v281h-51v123h506v-123h-332v-130q66 48 179 91l23 8l108 -47l-43 -61q-5 -5 -20 -37.5t-15 -82.5q0 -31 11.5 -66.5t42.5 -74.5v-205z" />
    <glyph glyph-name="d_ro_alt_bn" horiz-adv-x="486" 
d="M327 60q-30 48 -42 93.5t-12 84.5q0 31 5 57q-58 -34 -87.5 -60.5t-29.5 -27.5l-33 -38l-87 49v281h-51v123h506v-123h-332v-130q66 48 179 91l23 8l108 -47l-43 -61q-5 -5 -20 -37.5t-15 -82.5q0 -31 12 -66q11 -36 41 -74l1 -1v-205h-123v22q-23 10 -48 10
q-51 0 -143 -29.5t-153 -29.5q-40 0 -64 15q-45 26 -67.5 67.5t-26.5 68.5l122 21q2 -11 10 -26q11 -23 25 -23q49 0 137.5 29.5t159.5 29.5q26 0 48 -5v16z" />
    <glyph glyph-name="d_r_ukar_bn" horiz-adv-x="725" 
d="M735 622v-123h-571v-130q66 48 179 91l23 8l108 -47l-43 -61q-5 -5 -20 -37l-6 -16q30 -67 61 -85q34 -20 79 -20q23 0 37 19q4 6 6 22l-2 12l-19 -1q-39 0 -68 24q-28 28 -28 66q4 55 44 80q20 13 44 13q78 0 130 -103q21 -42 21 -91q0 -100 -94 -147q-28 -17 -72 -17
q-49 0 -100 28l6 -8v-205h-123v30q-8 6 -19 12q-18 8 -38 8q-22 0 -46 -10q-21 -12 -57 -12q-26 0 -47 6.5t-37 15.5q-53 33 -80.5 81t-31.5 82l122 16q2 -11 14.5 -34t35.5 -37q9 -7 24 -7q13 0 32 8q27 14 70 14q32 0 58 -8v1q-30 48 -42 93.5t-12 84.5q0 31 5 57
q-58 -34 -87.5 -60.5t-29.5 -27.5l-33 -38l-87 49v281h-51v123h745z" />
    <glyph glyph-name="d_r_ookar_bn" horiz-adv-x="651" 
d="M661 622v-123h-497v-130q66 48 179 91l23 8l108 -47l-43 -61q-5 -5 -20 -37l-2 -6l82 51h119v-367h-123v220l-79 -48q11 -35 42 -74v-205h-123v30q-8 6 -19 12q-18 8 -38 8q-22 0 -46 -10q-21 -12 -57 -12q-26 0 -47 6.5t-37 15.5q-53 33 -80.5 81t-31.5 82l122 16
q2 -11 14.5 -34t35.5 -37q9 -7 24 -7q13 0 32 8q27 14 70 14q32 0 58 -8v1q-30 48 -42 93.5t-12 84.5q0 31 5 57q-58 -34 -87.5 -60.5t-29.5 -27.5l-33 -38l-87 49v281h-51v123h671z" />
    <glyph glyph-name="dh_no_bn" horiz-adv-x="516" 
d="M210 -149q-25 0 -50 16q-29 19 -46 53.5t-17 72.5q0 16 3 32q3 27 34.5 68t115.5 56q18 3 34 3q20 0 38 -4q-27 21 -73 32q-48 8 -75 8l-22 -1l-39 -4q-17 29 -25.5 43t-13 21.5t-8.5 15.5q-5 7 -12.5 20t-21.5 36l81 59q-83 44 -90 142v2q0 59 36 103.5t95 57.5
q10 2 21 2q8 0 17 -1q31 -6 50 -29t19 -53q0 -7 -1 -15q-6 -32 -29.5 -52t-54.5 -20l-12 1l-17 3q2 -14 10.5 -23.5t22.5 -11.5l65 -11l106 76v73h175v-123h-51v-648h-123v102q-15 42 -29 59t-40 17l-16 -1q-12 -2 -23.5 -6.5t-18.5 -12.5q22 -5 40.5 -18.5t27.5 -36.5
q4 -12 4 -24q0 -33 -31 -59q-26 -20 -56 -20zM352 274v124l-125 -90q65 -7 125 -34z" />
    <glyph glyph-name="dh_mo_bn" horiz-adv-x="743" 
d="M351 273v124l-125 -90q68 -6 125 -34zM579 159v340h-105v-314q48 -4 105 -26zM374 -129q-25 0 -49 11q-81 41 -81 132q0 79 80 132q-50 41 -150 41q-31 -2 -61 -5l-81 136l81 59q-84 44 -90 142q0 62 36 106t94 57q11 2 21 2q43 0 68 -30q19 -23 19 -53q0 -41 -30 -66
q-23 -20 -54 -20l-31 3q5 -29 36 -34.5t63 -11.5l105 76v74h229v16h123v-16h51v-123h-51v-621h-123v145q-31 50 -101 50q-52 0 -81 -32q25 -4 46 -18q34 -24 34 -64q0 -36 -34 -64q-33 -24 -69 -24z" />
    <glyph glyph-name="dh_ro_bn" horiz-adv-x="515" 
d="M474 -52h-124v30q-7 6 -19 12q-18 8 -38 8q-21 0 -45 -10q-45 -19 -81 -19q-27 0 -48.5 7t-37.5 16q-53 32 -80 80t-31 82l122 16q1 -11 13.5 -34t35.5 -37q9 -7 25 -7q13 0 31 8q53 22 96 22q31 0 57 -8q-19 33 -52.5 48.5t-69 20.5t-57.5 5l-20 -1l-39 -4l-81 136
l81 59q-83 44 -89 142v4q0 58 36 102t94 57q11 2 21 2q9 0 17 -1q32 -6 51 -29.5t19 -54.5l-1 -13q-6 -32 -30 -52t-55 -20l-12 1l-17 3q2 -14 10.5 -23.5t22.5 -11.5l65 -11l106 76v73h175v-123h-51v-551zM351 274v124l-125 -90l45 -7q44 -10 80 -27z" />
    <glyph glyph-name="n_jo_bn" horiz-adv-x="847" 
d="M656 -65q-38 67 -53.5 127t-15.5 111q0 76 22 130q19 50 41 83l-6 4q-13 8 -27 15q-12 7 -25 15q-52 30 -126 78q-32 -17 -64 -43t-42 -52q-1 -5 -1 -9q0 -5 1 -9l3 -4q3 -3 7 -3h2q6 0 24 8.5t50 40.5l25 26l80 -20l6 -41v-4q6 -25 6 -89q0 -31 -4 -67q-7 -77 -36 -128
q-42 -76 -120 -90q-72 -13 -129 -13q-114 0 -175 53q-76 63 -76 204h123q0 -84 32 -110q29 -24 96 -24q46 0 108 11q28 7 40.5 42t14.5 66l2 27q-35 -15 -67 -15q-11 0 -21 1q-34 6 -57.5 23.5t-36.5 37.5q-36 46 -67 51q2 -9 2 -18q0 -22 -13 -41q-22 -27 -54 -27
q-12 0 -22 4q-60 21 -64 82q0 37 26 69.5t68 46.5q19 8 50 8q32 0 75 -18q7 13 16 25h-284v123h867v-123h-156q46 -26 77 -50l57 -45l-53 -48q-4 -3 -21 -25.5t-34 -62.5t-17 -96q0 -37 12 -81t40 -93z" />
    <glyph glyph-name="n_ttho_bn" horiz-adv-x="607" 
d="M332 37l15 1q80 14 108 90q5 18 5 37q0 74 -76 153v-13q-3 -110 -55 -179q-34 -43 -75 -62q36 -27 78 -27zM333 -86q-61 0 -117 29q-73 39 -123 122l-28 47l67 53l22 -2q3 0 16.5 2t30.5 10t31 27q17 20 26 72q-9 15 -30 32q-16 14 -27.5 20.5t-15.5 6.5l-8 1
q-7 0 -14 -3l6 -2q44 -22 47 -66v-3q0 -40 -40 -67q-20 -11 -41 -11q-22 0 -43 13q-13 7 -28 21t-26 36q-15 28 -15 63q0 16 3 34q4 17 9 23q22 40 60.5 62.5t82.5 22.5l24 -2q23 -3 44 -14l-4 19q-16 20 -28 39h-224v123h174q-2 17 -2 34t2 33q8 47 31.5 81t50.5 56.5
t47 33t23 11.5l47 -113h1l-4 -2q-3 -1 -7 -3q-11 -6 -25.5 -17.5t-26 -28t-15.5 -38.5l-1 -14q0 -15 5 -33h327v-123h-247q29 -30 66 -62q148 -131 148 -271q0 -37 -11 -73q-22 -72 -80 -120t-130 -57q-15 -2 -30 -2z" />
    <glyph glyph-name="n_ddo_bn" horiz-adv-x="733" 
d="M370 -54q-132 0 -220 72q-57 49 -84 109t-35 114.5t-8 81.5l1 18l123 -8v-9q0 -17 4.5 -56t22 -81.5t55.5 -74.5q53 -43 141 -43q61 0 140 21q38 10 57 42q11 20 15 45t4 51v10l-5 -5q-12 -13 -30.5 -29t-42 -28t-51.5 -12q-19 0 -39 9q-37 20 -48.5 57t-11.5 68
q-4 16 -13 28t-27 15h-6q-9 0 -16 -2l6 -3q44 -20 47 -65v-3q0 -40 -40 -67q-20 -11 -41 -11q-22 0 -43 12q-13 8 -28 21.5t-26 35.5q-15 28 -15 64q0 16 3 34q2 8 4.5 14t4.5 8q22 40 60.5 63t82.5 23l24 -2q12 -2 24 -5v41h-369v123h753v-123h-261v-182q-1 -3 -1 -9
q6 5 12 12h1l110 107l77 -27l9 -31q1 -2 7.5 -29.5t10.5 -70.5l2 -40q0 -93 -36 -157q-44 -77 -133 -101q-93 -25 -171 -25z" />
    <glyph glyph-name="n_dd_ro_bn" horiz-adv-x="732" 
d="M489 -41q-63 -13 -119 -13q-132 0 -220 72q-57 49 -84 109t-35 114.5t-8 81.5l1 18l123 -8v-9q0 -17 4.5 -56t22 -81.5t55.5 -74.5q53 -43 141 -43q61 0 140 21q38 10 57 42q11 20 15 45t4 51v10l-5 -5q-12 -13 -30.5 -29t-42 -28t-51.5 -12q-19 0 -39 9q-37 20 -48.5 57
t-11.5 68q-4 16 -13 28t-27 15h-6q-9 0 -16 -2l6 -3q44 -20 47 -65v-3q0 -40 -40 -67q-20 -11 -41 -11q-22 0 -43 12q-13 8 -28 21.5t-26 35.5q-15 28 -15 64q0 16 3 34q2 8 4.5 14t4.5 8q22 40 60.5 63t82.5 23l24 -2q12 -2 24 -5v41h-369v123h753v-123h-261v-182
q-1 -3 -1 -9q6 5 12 12h1l110 107l77 -27l9 -31q1 -2 7.5 -29.5t10.5 -70.5l2 -40q0 -93 -36 -157q-24 -42 -62 -69v-267h-123v19q-15 11 -43 21.5t-67 10.5q-35 0 -79 -13q-36 -11 -66 -11q-34 0 -59 10.5t-42 23.5q-36 29 -55 69q-8 14 -13 28l109 63q2 -5 3 -9
q10 -35 31 -53q2 -2 8 -5t18 -3q11 0 29 5q63 18 115 18q65 0 111 -19v68z" />
    <glyph glyph-name="n_to_bn" horiz-adv-x="535" 
d="M304 -39q-124 0 -197 71q-66 68 -66 181q0 31 2 45l1 5l122 -22q-2 -11 -2 -28q0 -76 20 -95q33 -31 97 -31q31 0 60 6q44 8 48 30l1 8q0 12 -6 25q-22 -46 -70 -46q-63 5 -80 63q-4 13 -4 28q0 23 9 45.5t28 37.5t38 22q-44 21 -80 43q-38 21 -58 21q14 -18 14 -40
q0 -31 -27 -52q-18 -11 -39 -11q-30 0 -54 16q-38 29 -38 72l1 16q17 78 82 109q21 13 62 13q55 0 114 -35q72 -42 93 -45q5 0 18 18q3 3 3 10q0 9 -13 31q-13 17 -24 27h-369v123h555v-123h-38q12 -29 12 -60q0 -40 -24 -77q-34 -49 -78 -66q46 -26 72 -74q23 -44 23 -90
q0 -59 -33 -98q-65 -73 -175 -73z" />
    <glyph glyph-name="n_t_bo_bn" horiz-adv-x="535" 
d="M356 -145v69l-57 -53q28 -5 57 -16zM166 241q-2 -11 -2 -28q0 -75 20 -95q18 -17 43.5 -24t53.5 -7q31 0 60 6q44 8 48 30l1 8q0 12 -6 25q-22 -46 -70 -46l-12 1q-52 9 -68 62q-4 13 -4 28q0 23 9 45.5t29 38.5q18 14 37 21q-30 14 -65 34q-7 4 -15 9q-38 21 -58 21
q11 -14 13 -28q1 -6 1 -12q0 -31 -27 -52q-18 -11 -39 -11q-30 0 -54 16q-38 29 -38 72q0 8 1 16q17 78 82 109q21 13 62 13q23 0 51.5 -7.5t62.5 -27.5q29 -17 53 -30t38 -15h4q1 0 5 4t11 14q1 1 2 3.5t1 6.5q0 9 -13 31q-13 17 -24 27h-369v123h555v-123h-38
q7 -17 10 -34q2 -13 2 -26q0 -40 -24 -77q-34 -49 -78 -66l7 -4q41 -26 64.5 -70t23.5 -90q0 -17 -3 -33q-7 -38 -30 -65v-320h-123v2q-40 29 -89 35t-77 6h-44l-55 88l133 124q-78 14 -120 60q-53 61 -62 154q-1 16 -1 30q0 31 2 45q1 4 1 5z" />
    <glyph glyph-name="n_t_ro_bn" horiz-adv-x="572" 
d="M387 245q-38 0 -59 -8l5 -4q21 -17 21 -49q0 -20 -13 -47q-20 -42 -64 -42q-26 0 -50 17q-60 41 -60 102q0 78 89 127q-60 31 -81 33q7 -11 7 -29q0 -30 -27 -51q-19 -12 -39 -12q-33 0 -56 18q-37 27 -37 67q10 83 80 116q30 15 66 15q52 0 111 -31q61 -36 95 -41
q4 0 9 3q9 6 13 15q0 10 -18.5 29.5t-27.5 25.5h-361v123h592v-123h-73q11 -25 11 -54q0 -58 -46 -100q75 -45 75 -141v-316h-123v22q-2 14 -12 20q-26 14 -68 14q-55 0 -111 -16q-19 -2 -30 -2q-81 0 -131 51t-58 126q-4 30 -4 60l123 -10q0 -78 38 -98q10 -6 40 -6
q25 8 88 16q23 2 44 2q45 0 81 -10v147q0 23 -8 30q-13 11 -31 11z" />
    <glyph glyph-name="n_tho_bn" horiz-adv-x="555" 
d="M413 -124v1l-33.5 33.5t-76 62.5t-108.5 55l-6 1v1q-60 18 -95 73l108 59q4 -7 23 -15l11 -3q25 -9 67 -9h7q39 0 59 4t27.5 9t8.5 8q4 8 4 22q0 18 -9 43q-11 28 -29 48l-2 -19q-7 -51 -39 -74q-20 -13 -42 -13t-43 13q-33 23 -43 46.5t-10 41.5v9q6 42 49 75
q-6 4 -13 7q-33 19 -53 19q3 -5 4 -10l2 -6q1 -6 1 -13q0 -30 -28 -51q-18 -12 -38 -12q-16 0 -31.5 5.5t-25.5 12.5q-36 27 -36 66q0 9 2 18q17 70 77 99q31 15 67 15q52 0 111 -31q61 -36 93 -41h3q3 0 7.5 3t12.5 13l1 2q0 2 -3.5 10t-15.5 21q-19 19 -27 24h-361v123
h575v-123h-57q7 -16 10 -34q2 -11 2 -22q0 -40 -26 -75q-10 -15 -24 -26q29 -34 45 -78q17 -44 17 -86q0 -41 -17 -76q-30 -55 -84 -72q35 -31 55 -52t22 -24z" />
    <glyph glyph-name="n_dho_bn" horiz-adv-x="682" 
d="M485 -82h-123v27q-25 50 -103 68q-47 8 -75 8l-22 -1l-39 -4q-17 30 -26 44.5t-13.5 22.5t-9.5 16t-13 21.5t-23 38.5l280 150q-12 16 -47 38q-42 24 -76 24l-11 -1q4 -6 7 -14q4 -11 4 -22q0 -33 -30 -58q-25 -19 -54 -19q-22 0 -44 13q-44 32 -44 84q0 12 3 25
q10 45 46 74q38 30 96 39l26 2q69 0 143 -44q13 -7 25 -16v65h-372v123h702v-123h-207v-90l70 45l104 -62v-380h-123v283l-51 -32v-345zM362 107v86l-103 -55q55 -9 103 -31z" />
    <glyph glyph-name="n_dh_ro_bn" horiz-adv-x="682" 
d="M485 -200h-123v22q-8 6 -20 11q-19 9 -38 9q-22 0 -45 -10q-46 -19 -83 -19q-26 0 -47 6.5t-37 15.5q-53 33 -80 81t-31 82l122 15q1 -11 13.5 -33.5t35.5 -36.5q9 -7 24 -7q13 0 32 8q53 21 95 21q27 0 50 -6q-27 39 -94 54q-47 8 -75 8l-22 -1l-39 -4l-84 143l279 150
q-11 16 -47 38q-42 24 -76 24l-11 -1q4 -6 7 -14q4 -11 4 -22q0 -33 -30 -58q-25 -19 -54 -19q-22 0 -44 13q-44 32 -44 84q0 12 3 25q9 45 47 74q37 30 95 39l26 2q69 0 144 -44q12 -7 24 -16v65h-372v123h702v-123h-207v-90l70 45l104 -62v-380h-123v283l-51 -32v-463z
M362 107v86l-103 -55q55 -9 103 -31z" />
    <glyph glyph-name="n_no_bn" horiz-adv-x="503" 
d="M209 -140h-14q-45 5 -87 35.5t-57 81.5q-4 11 -4 30q0 25 15 57.5t60 64.5q67 46 140 46q16 0 33 -2q22 -3 44 -9v165q-29 20 -54 28.5t-45 8.5q-23 0 -41 -7.5t-31 -17.5q-20 -14 -22 -20q26 13 58 13t59 -21q22 -22 22 -51q0 -17 -8 -35q-30 -54 -92 -54q-7 0 -14 1
q-45 5 -87 35t-57 81q-4 11 -4 30q0 25 15 57.5t60 65.5q67 46 141 46q16 0 32 -2q34 -4 68 -19v31h-349v123h523v-123h-51v-635h-123v166q-44 23 -76 23q-23 0 -40.5 -7.5t-30.5 -17.5q-20 -14 -22 -20q25 13 58 13q31 0 59 -21q22 -23 22 -52q0 -17 -8 -34
q-30 -54 -92 -54z" />
    <glyph glyph-name="n_bo_bn" horiz-adv-x="525" 
d="M484 -82h-123v27q-25 50 -102 68q-48 8 -76 8l-21 -1l-40 -4q-16 29 -24.5 43.5t-12.5 22t-10 15.5q-4 8 -12.5 22t-24.5 40l279 150q-12 16 -46 38q-43 24 -76 24l-11 -1l6 -14q4 -12 4 -24q0 -32 -29 -56q-26 -19 -55 -19q-22 0 -44 12q-43 33 -43 86q0 12 2 24
q9 45 47 74q38 30 95 39l26 2q69 0 144 -44q12 -7 24 -16v65h-371v123h545v-123h-51v-581zM361 107v86l-103 -55l24 -4q44 -10 79 -27z" />
    <glyph glyph-name="n_mo_bn" horiz-adv-x="708" 
d="M544 101v398h-105v-372q48 -4 105 -26zM339 -187q-25 0 -49 11q-73 37 -81 122q0 105 107 158v209q-43 27 -75 27q-36 0 -69 -28q-26 -20 -26 -36l1 -6h1q24 14 56 14q30 0 56 -19t26 -55q0 -16 -7 -33q-31 -61 -94 -61q-46 0 -94 34q-68 53 -68 127q0 73 72 132
q69 54 145 54q16 0 33 -3q26 -4 43 -10v49h-326v123h554v16h123v-16h51v-123h-51v-679h-123v145q-31 50 -101 50q-52 0 -81 -32q25 -4 46 -18q34 -24 34 -64q0 -36 -34 -64q-33 -24 -69 -24z" />
    <glyph glyph-name="n_ro_bn" horiz-adv-x="492" 
d="M72 106q5 -11 12 -22q15 -25 29 -32.5t24 -7.5q19 0 42 17t47 22.5t49 5.5q31 0 53 -8v222q-52 36 -88 36q-22 0 -39 -8.5t-30 -19.5q-25 -20 -25 -36l1 -6q25 14 57 14q29 0 56 -20q25 -18 25 -54q0 -15 -7 -33q-29 -61 -94 -61h-5q-35 4 -89 34q-44 34 -60 82
q-7 16 -7 45q0 28 14.5 62.5t56.5 69.5q69 54 145 54q16 0 33 -3q28 -4 56 -15v55h-338v123h512v-123h-51v-610h-123v41q-6 9 -15 19t-22 15q-8 2 -16 2q-25 0 -59 -19q-45 -26 -79 -26q-35 0 -69 16q-58 30 -89 83z" />
    <glyph glyph-name="n_so_bn" horiz-adv-x="818" 
d="M422 355q27 38 80 55q20 6 41 6q53 0 111 -35v118h-265q-41 -44 -41 -76q0 -18 18 -34q13 -7 25 -18zM777 0h-123v226q-71 67 -111 67q-17 -2 -29 -20q26 -48 26 -88q0 -28 -11 -56q-32 -76 -124 -102q-32 -8 -70 -8q-64 0 -139 24l38 117q61 -18 101 -18q36 0 56 10
q26 12 26 32q0 43 -57 65q-49 20 -68 42q-37 42 -89 42q-50 0 -55 -22l-1 -1q26 -2 54 -17.5t39 -48.5q3 -9 3 -20q0 -38 -36 -63q-26 -17 -55 -17q-31 0 -61 20q-37 27 -56 77q-12 31 -12 61q0 21 6 41q4 26 36 64t114 49l14 1q19 0 34 -8q5 27 15 50h-252v123h838v-123
h-51v-499z" />
    <glyph glyph-name="p_tto_bn" horiz-adv-x="838" 
d="M255 409q62 49 120 58q-49 32 -104 32q-20 0 -41 -4q-19 -3 -35 -8q38 -28 60 -78zM413 342q-8 3 -14 3h-5q-44 -5 -110 -77q-29 -32 -46.5 -57t-17.5 -26q-24 15 -35 22q-9 6 -14 9.5t-10.5 6.5t-15.5 9l-30 18q12 19 22 41.5t10 44.5q0 13 -5 24q-6 15 -17.5 25.5
t-24 17t-21.5 10.5q-4 1 -6 2h-3v1h-1l-46 12v103l25 19q6 6 47.5 28t106.5 37q34 7 67 7q46 0 88 -13q30 -8 56 -22v35h261q-2 8 -4 9q-7 6 -27.5 7.5t-41.5 1.5l-48 -1q-40 0 -80.5 9.5t-72.5 40.5q-49 49 -49 144v12l123 -4v-8q0 -42 13 -58q8 -8 26 -10.5t40 -2.5l59 1
q40 0 79.5 -8.5t69.5 -41.5q32 -34 37 -91h50v-123h-312v-306l2.5 -7.5t4.5 -9.5q4 -5 11 -9t21 -4q47 0 89 46q11 13 20 34q-59 13 -89 63q-12 21 -12 44q0 29 20 54q38 44 85 44q13 0 25 -3q78 -24 98 -117q4 -22 4 -43q0 -85 -57 -155q-82 -90 -183 -90q-85 0 -135 70
q-15 24 -21 43.5t-6 25.5v163z" />
    <glyph glyph-name="p_to_bn" horiz-adv-x="661" 
d="M364 -124q-150 0 -229 88q-63 76 -63 165q0 40 14 81l117 -39q-8 -22 -8 -44q0 -45 33 -83q42 -46 135 -46l35 2q44 5 74.5 26.5t39.5 46.5q3 8 3 15q0 14 -14 27q-19 18 -54 23q17 -17 18 -43v-2q0 -24 -14.5 -43t-38.5 -25q-11 -3 -23 -3q-19 0 -39 8q-65 27 -81 87
q-3 12 -3 24q0 41 28 74q37 39 104 47l15 1v79q-8 3 -14 3h-4q-45 -5 -111 -77q-29 -32 -46.5 -57t-17.5 -26q-26 17 -36 23q-8 5 -12.5 8t-9.5 6l-15 9q-11 6 -31 19q12 19 21.5 41.5t9.5 44.5q0 13 -5 24q-12 25 -35.5 39t-37.5 17l-47 12l1 48v55l25 19q6 6 47.5 28
t106.5 37q34 7 67 7q46 0 89 -13q28 -8 55 -22v35h258v-123h-135v-261q29 -14 50 -35q52 -51 52 -115q0 -28 -10 -56q-23 -63 -83 -105t-137 -50q-23 -1 -44 -1zM255 409q62 49 120 58q-49 32 -106 32q-21 0 -43 -4q-16 -3 -31 -8q38 -28 60 -78z" />
    <glyph glyph-name="p_t_ro_bn" horiz-adv-x="603" 
d="M580 -155h-123q-25 61 -143 61q-35 0 -87 -7q-25 -3 -46 -3q-49 0 -81 19q-77 43 -77 140q0 65 34 147q10 25 12 27l110 -55l-9 -20q-9 -21 -16.5 -50.5t-7.5 -48.5q0 -37 33 -37q13 0 31 3q57 8 105 8q87 0 142 -27v168q0 2 -8.5 8t-25.5 7q-10 0 -17 -2q12 -15 12 -42
q0 -32 -19 -55q-32 -40 -75 -40q-30 0 -53 22t-23 58q3 41 19 78q25 61 82 89q31 14 64 15v34q-8 3 -14 3q-44 0 -115 -77q-29 -32 -46.5 -57t-17.5 -26q-26 17 -35 22.5t-13.5 8.5t-9.5 6t-15.5 9t-30.5 19q31 49 31 86q0 39 -40 63q-24 14 -38 17l-47 12q1 51 1 103l25 19
q6 6 47.5 28t106.5 37q34 7 67 7q77 0 144 -35v35h200v-123h-77v-233q44 -40 44 -94v-327zM255 409q62 49 120 58q-49 32 -104 32q-35 0 -76 -12q38 -28 60 -78z" />
    <glyph glyph-name="p_no_bn" horiz-adv-x="566" 
d="M276 -108h-5q-46 2 -90 34q-67 53 -67 127q0 72 72 131q69 54 146 54q35 0 70 -11v78q-14 17 -29 17q-74 0 -200 -126l-50 47l-41 36q47 50 47 92l-1 11q-5 27 -33 49l-29 19l-43 20l18 101q44 22 80 34q52 17 115 17q81 0 148 -33q9 -4 18 -10v43h174v-123h-51v-605
h-123v197q-41 24 -71 24q-35 0 -69 -27q-25 -20 -25 -36l1 -7q26 14 58 14q29 0 55 -19t26 -55q0 -16 -7 -33q-31 -60 -94 -60zM248 410q64 35 128 35q-56 55 -142 55l-31 -3q31 -33 45 -87z" />
    <glyph glyph-name="p_po_bn" horiz-adv-x="564" 
d="M179 -117q-19 20 -27 29q-7 7 -10.5 11t-7.5 8.5l-12 13.5q-9 9 -26 28q38 37 38 60v4q-4 18 -24.5 34t-39.5 24l-47 18q4 22 6 32q2 8 3 13l2 10t2 14q2 11 6 34l33 13q4 2 31.5 10t71.5 13q-15 17 -24 25q-8 9 -12.5 14l-9 10t-12.5 15q-9 9 -24 26q38 36 38 59v4
q-4 18 -24.5 34t-39.5 24l-47 18q4 22 6 32q2 8 3 13l2 10t2 14q2 11 6 34l33 13q6 3 46.5 14t101.5 11h10q93 -2 167 -41v41h174v-123h-51v-618h-123v91q-10 8 -25 8h-7q-31 0 -68 -17.5t-69.5 -40t-51.5 -39.5zM251 76q46 20 95 26q-49 27 -111 29h-14q20 -24 30 -55z
M400 213v127q-10 8 -25 8h-8q-30 0 -67 -17t-69 -39.5t-51 -39.5q18 2 38 2h15q93 -2 167 -41zM251 444q46 21 95 27q-49 26 -111 28h-14q20 -24 30 -55z" />
    <glyph glyph-name="p_ro_bn" horiz-adv-x="577" 
d="M255 409q62 49 120 58q-49 32 -104 32q-20 0 -41 -4q-19 -3 -35 -8q38 -28 60 -78zM413 342q-8 3 -14 3h-5q-44 -5 -110 -77q-29 -32 -46.5 -57t-17.5 -26q-24 15 -35 22q-9 6 -14 9.5t-10.5 6.5t-15.5 9l-30 18q12 19 22 41.5t10 44.5q0 13 -5 24q-6 15 -17.5 25.5
t-24 17t-21.5 10.5q-4 1 -6 2h-3v1h-1l-46 12v103l25 19q6 6 47.5 28t106.5 37q34 7 67 7q46 0 88 -13q30 -8 56 -22v51h123v-16h51v-123h-51v-532h-123v41q-6 8 -22 17t-46 9q-25 0 -58.5 -23.5t-81.5 -23.5q-25 0 -46.5 6t-36.5 15q-49 28 -77 73.5t-35 87.5l122 20
q3 -17 16 -39t33 -34q8 -7 24 -7q31 0 67 24t73 24q36 0 68 -9v194z" />
    <glyph glyph-name="p_ro_alt_bn" horiz-adv-x="577" 
d="M255 409q62 49 120 58q-49 32 -104 32q-20 0 -41 -4q-19 -3 -35 -8q38 -28 60 -78zM413 342q-8 3 -14 3h-5q-44 -5 -110 -77q-29 -32 -46.5 -57t-17.5 -26q-24 15 -35 22q-9 6 -14 9.5t-10.5 6.5t-15.5 9l-30 18q12 19 22 41.5t10 44.5q0 13 -5 24q-6 15 -17.5 25.5
t-24 17t-21.5 10.5q-4 1 -6 2h-3v1h-1l-46 12v103l25 19q6 6 47.5 28t106.5 37q34 7 67 7q46 0 88 -13q30 -8 56 -22v51h123v-16h51v-123h-51v-532h-123v22q-23 10 -48 10q-51 0 -198.5 -29.5t-208.5 -29.5q-40 0 -64 15q-45 26 -67.5 67.5t-26.5 68.5l122 21q2 -11 10 -26
q11 -23 25 -23q49 0 193 29.5t215 29.5q26 0 48 -5v225z" />
    <glyph glyph-name="p_lo_bn" horiz-adv-x="577" 
d="M146 -103l-10 1q-38 7 -63 38.5t-33 69.5q-4 17 -4 33q0 88 93 148q33 19 69 19q33 0 64 -17q14 -7 26 -18q18 19 47 28q18 6 37 6q20 0 41 -7v165q-7 2 -14 2h-6q-48 -9 -98.5 -56.5t-76.5 -84.5l-100 71q9 13 19 32t10 37q0 7 -3 14q-9 20 -32.5 33t-40.5 17l-48 11
v104l28 18q1 0 2 1q11 8 50.5 26.5t100.5 30.5q33 6 65 6q77 0 144 -33v30h174v-123h-51v-590h-123v150q-17 13 -27 18t-13 5q-4 -3 -8.5 -11t-7.5 -18q12 -42 12 -89h-123q0 45 -15 77t-30 41l-3 1q-1 0 -2.5 -0.5t-3.5 -1.5q-9 -5 -17 -12.5t-13 -16.5q26 -3 42 -21
q6 -5 13 -17.5t7 -30.5q0 -19 -12 -44q-24 -42 -66 -42zM254 434q47 35 101 49q-46 18 -89 18q-32 0 -59 -7q28 -22 47 -60z" />
    <glyph glyph-name="p_so_bn" horiz-adv-x="909" 
d="M868 0h-123v226q-39 37 -67 52t-44 15l-8 -1q-12 -5 -21 -19l6 -11q20 -38 20 -77q0 -28 -11 -56q-30 -76 -124 -102q-32 -8 -70 -8q-64 0 -139 24l38 117q61 -18 101 -18q36 0 55.5 9.5t24.5 22.5l2 10q0 14 -12 30.5t-38 30.5l-1 -1q-4 7 -22 7q-12 0 -47 -13.5
t-98 -62.5q-36 -30 -60 -53.5t-28 -28.5l-1 -1q-16 15 -25 23q-9 9 -14.5 14t-11.5 9t-17 12q-10 7 -28 19q23 34 23 54q0 5 -1 9q-7 14 -25 24.5t-31 13.5l-49 10l1 49v52l28 18q5 5 41 22.5t93 28.5q30 5 59 5q38 0 74 -9q4 29 15 53h-343v123h929v-123h-51v-499zM237 289
q25 19 49 34q2 1 5 3q-23 6 -47 6q-17 0 -36 -3q17 -17 29 -40zM513 355q27 38 80 55q20 6 41 6q39 0 81 -19q15 -7 30 -16v118h-264q-17 -17 -29.5 -38t-12.5 -38v-5q4 -20 25 -35t39 -23z" />
    <glyph glyph-name="ph_tto_bn" horiz-adv-x="747" 
d="M484 -138q-85 0 -135 70q-15 24 -21 43.5t-6 24.5v29q-10 50 -97 78q-29 9 -54.5 13.5t-42 5.5l-16.5 1l-33 1q-11 18 -17 26l-9 13.5t-6 10t-9 15.5l-15 24l137 124l-132 158h-38v123h570q0 26 -6 29q-5 5 -21 7t-34 2l-57 -1q-41 0 -82.5 8.5t-75.5 41.5
q-49 48 -49 145v11l123 -4v-8q0 -42 13 -58q9 -8 27.5 -10.5t40.5 -2.5l62 1q39 0 77 -9.5t68 -40.5q37 -40 37 -111h74v-123h-569l108 -129v-73l-70 -63l33 -9q36 -12 63 -25v258l46 12q4 1 24 4.5t49 5.5h18q77 0 123 -35q19 -13 35.5 -40t16.5 -71v-47h-123v35.5t-1 18
t-3 7.5q-17 10 -47 10l-15 -1v-343q1 -6 8 -16q3 -5 10 -9t21 -4q47 0 89 46q12 13 20 33q-59 14 -89 64q-11 21 -11 43q0 29 19 54q38 45 86 45q12 0 24 -3q78 -24 98 -117q4 -22 4 -44q0 -84 -57 -154q-35 -42 -84 -66t-99 -24z" />
    <glyph glyph-name="ph_ro_bn" horiz-adv-x="657" 
d="M79 90q0 -1 1 -1q14 -23 37 -36q8 -5 21 -5t55 16.5t72 16.5q28 0 51 -6q-4 8 -12 15q-25 21 -68.5 30t-81.5 9l-34 -2l-38 -4l-59 94l138 124l-133 158h-38v123h677v-123h-478l107 -129v-73l-58 -52q43 -7 84 -24v237l47 12q3 1 23 4.5t50 5.5h18q77 0 123 -35
q18 -13 34.5 -40t16.5 -71v-47h-123v35.5t-1 18t-3 7.5q-15 10 -46 10l-16 -1v-450h-123v33q-7 7 -19 10q-18 7 -38 7q-30 0 -65 -16t-61 -16q-40 0 -77 18q-36 19 -63 48z" />
    <glyph glyph-name="ph_lo_bn" horiz-adv-x="656" 
d="M126 -113q-32 0 -57 34q-30 41 -30 90q0 85 71 131q28 17 57 17q27 0 52 -15q12 -6 19 -13q12 14 34 14q21 0 50 -12v4q-51 36 -144 36q-41 0 -93 -5l-62 88l137 108l-127 135h-43v123h676v-123h-474l100 -106v-71l-50 -41q40 -5 80 -20v197l69 17q31 5 68 5
q77 0 123 -35q51 -37 51 -111v-47h-123q0 53 -0.5 57t-2.5 4q-17 10 -47 10l-15 -1v-469h-123v147q-13 9 -16 9q-6 -3 -10 -20q10 -35 10 -80h-105q0 42 -11.5 68t-22.5 33l-3 -1q-16 -10 -19 -17q15 -2 29 -18q17 -16 17 -45q0 -17 -10 -39q-20 -38 -55 -38z" />
    <glyph glyph-name="b_jo_bn" horiz-adv-x="858" 
d="M666 -64q-38 67 -53.5 126.5t-15.5 109.5q0 39 6.5 71.5t15.5 59.5q19 50 42 84q-6 4 -13 8q-10 5 -20 11q-60 33 -151 92q-33 -17 -64.5 -43t-42.5 -51l-1 -9q0 -6 2 -11l1 -1l3 -3t5 -2q2 0 11 2.5t25.5 13t40.5 34.5l25 25l79 -20l6 -41q1 -2 3.5 -28.5t2.5 -65.5
q0 -31 -3 -66q-9 -77 -36 -128q-42 -76 -121 -90q-71 -13 -128 -13q-115 0 -176 53q-76 63 -76 205h123q0 -85 32 -111q30 -24 98 -24q45 0 106 11q28 8 40.5 43t14.5 65q2 14 2 27q-35 -15 -68 -15q-10 0 -20 1q-7 1 -15 4l-37 -33l-32 19q-49 27 -100.5 33.5t-72.5 6.5
l-41 -2l-40 66l133 149h-166v123h878v-123h-156q45 -26 77 -50l57 -45l-54 -48q-4 -3 -21 -25.5t-34 -62t-17 -94.5q0 -38 12 -82t41 -94zM248 368q-2 13 -2 26v9l-5 37l-52 -58q29 -5 59 -14z" />
    <glyph glyph-name="b_do_bn" horiz-adv-x="793" 
d="M572 -10q-26 81 -26 153q0 48 8.5 91t20.5 78q-56 -43 -98.5 -91t-66.5 -83t-25 -38l-34 -58l-92 67v65q-11 8 -47 15q-52 4 -84 4q-9 -1 -17 -1l-30 1l-58 76l188 230h-221v123h813v-123h-421v-199q40 46 93 90t117 75l19 9l171 -40l-50 -74q-2 -2 -16.5 -30t-29.5 -74
q-17 -59 -17 -114q0 -57 19 -111zM259 304v59l-42 -51q21 -2 42 -8z" />
    <glyph glyph-name="b_dho_bn" horiz-adv-x="653" 
d="M459 -82h-123v27q-68 56 -190 56h-8l-80 106l195 127q-51 10 -91 10l-60 -3l-79 105l234 153h-267v123h676v-123h-207v-128l93 64l78 -68v-352h-123v240l-48 -33v-304zM336 337v67l-71 -47q41 -8 71 -20zM336 85v57l-61 -41q34 -6 61 -16z" />
    <glyph glyph-name="b_ro_bn" horiz-adv-x="511" 
d="M90 98q15 -22 35 -32q6 -4 16 -4q12 0 29 9q36 21 66.5 28.5t55.5 7.5h11q-38 25 -80.5 32t-69.5 7l-25 -1l-41 -4q-13 24 -19 35.5t-9 17.5t-8 14q-6 10 -28 50l273 241h-306v123h531v-123h-51v-582h-123v24q-5 10 -15 22t-25 18q-8 3 -17 3q-25 0 -58 -19
q-45 -26 -90 -26q-36 0 -70 16q-38 20 -65 50zM347 224v157l-131 -116q70 -8 131 -41z" />
    <glyph glyph-name="b_lo_bn" horiz-adv-x="517" 
d="M353 276v118l-112 -84q63 -11 112 -34zM353 35q-20 13 -25 13q-6 -3 -10 -20q10 -35 10 -80h-114q0 42 -12 68t-24 33l-4 -1q-17 -10 -20 -17q17 -2 31 -18q19 -16 19 -45q0 -17 -11 -39q-21 -38 -60 -38q-38 0 -66 34q-32 41 -32 90q0 78 81 131q30 17 62 17
q29 0 56 -15q13 -6 21 -13q38 33 100 10q-75 32 -118 40q-51 8 -81 8l-23 -1l-37 -4l-73 112l266 199h-299v123h537v-123h-51v-582h-123v118z" />
    <glyph glyph-name="bh_ro_bn" horiz-adv-x="574" 
d="M151 261q-5 -19 -5 -40q0 -28 11 -47q9 -12 36 -12q15 4 44.5 9t66.5 5q52 0 106 -18v176q-18 -27 -46 -46q-13 -8 -31.5 -14.5t-42.5 -6.5q-23 0 -51 8q-60 20 -84.5 48.5t-27.5 52.5l-2 17q0 45 38 78q24 18 50 18q14 0 28 -6q28 -14 39.5 -31t13.5 -32v-9
q0 -11 -2 -21l6 3q14 10 24.5 35t13.5 47l4 24h-350v123h594v-123h-110l8 -8q33 -39 42 -91t9 -80v-371h-123q0 47 -8.5 63t-20.5 24q-13 9 -33 12.5t-41 3.5q-52 0 -91 -11l-7 -2h-13q-55 0 -87.5 19t-48.5 40q-21 29 -29 61.5t-8 60.5t4 47.5t5 24.5z" />
    <glyph glyph-name="bh_r_ukar_bn" horiz-adv-x="816" 
d="M826 622v-123h-352l8 -8q33 -39 42 -91t9 -80v-11q14 -15 24 -23q16 -15 37.5 -27.5t41.5 -12.5q23 0 37 19q4 6 6 22l-2 12l-19 -1q-39 0 -68 24q-28 28 -28 66q4 55 44 80q20 13 44 13q78 0 130 -103q21 -42 21 -91q0 -100 -94 -147q-28 -17 -72 -17q-50 0 -102 29
v-203h-123q0 47 -8.5 63t-20.5 24q-13 9 -33 12.5t-41 3.5q-52 0 -91 -11l-7 -2h-13q-55 0 -87.5 19t-48.5 40q-21 29 -29 61.5t-8 60.5t4 47.5t5 24.5l119 -31q-5 -19 -5 -40q0 -28 11 -47q9 -12 36 -12q15 4 44.5 9t66.5 5q52 0 106 -18v176q-18 -27 -46 -46
q-13 -8 -31.5 -14.5t-42.5 -6.5q-23 0 -51 8q-60 20 -84.5 48.5t-27.5 52.5l-2 17q0 45 38 78q24 18 50 18q14 0 28 -6q28 -14 39.5 -31t13.5 -32v-9q0 -11 -2 -21l6 3q14 10 24.5 35t13.5 47l4 24h-350v123h836z" />
    <glyph glyph-name="bh_r_ookar_bn" horiz-adv-x="779" 
d="M789 622v-123h-315l8 -8q33 -39 42 -91q4 -22 6 -39l89 55h119v-367h-123v220l-82 -50v-270h-123q0 47 -8.5 63t-20.5 24q-13 9 -33 12.5t-41 3.5q-52 0 -91 -11l-7 -2h-13q-55 0 -87.5 19t-48.5 40q-21 29 -29 61.5t-8 60.5t4 47.5t5 24.5l119 -31q-5 -19 -5 -40
q0 -28 11 -47q9 -12 36 -12q15 4 44.5 9t66.5 5q52 0 106 -18v176q-18 -27 -46 -46q-13 -8 -31.5 -14.5t-42.5 -6.5q-23 0 -51 8q-60 20 -84.5 48.5t-27.5 52.5l-2 17q0 45 38 78q24 18 50 18q14 0 28 -6q28 -14 39.5 -31t13.5 -32v-9q0 -11 -2 -21l6 3q14 10 24.5 35
t13.5 47l4 24h-350v123h799z" />
    <glyph glyph-name="bh_lo_bn" horiz-adv-x="603" 
d="M613 499h-623v123h623v-123zM383 80v38q-21 -3 -45 -3q-27 0 -60 5q-98 14 -161 75q-51 50 -75 123q-12 38 -15.5 71.5t-3.5 56.5l1 30l123 -12l-1 -19q0 -16 3 -40.5t11 -51.5q33 -97 135 -111q21 -3 44 -3q30 0 58 9t45 33q9 12 12 27q-69 -43 -126 -43q-21 0 -41 6
q-74 22 -104 105q-5 15 -5 30q0 41 33 72q27 21 56 21q23 0 45 -14q15 -10 25.5 -28t10.5 -43q0 -11 -2 -22q36 9 107 68l22 18l61 -9q22 -36 33 -64t11 -71q0 -64 -35 -121q-13 -20 -39 -44v-318h-123v112q-15 10 -19 10q-6 -3 -10 -20q10 -35 10 -80h-114q0 42 -12 68
t-24 33l-4 -1q-17 -10 -20 -17q17 -2 31 -18q19 -16 19 -45q0 -17 -11 -39q-21 -38 -60 -38q-38 0 -66 34q-32 41 -32 90q0 78 81 131q30 17 62 17q29 0 56 -15q13 -6 21 -13q12 27 54 27q24 0 38 -7z" />
    <glyph glyph-name="m_no_bn" horiz-adv-x="578" 
d="M278 -128h-5q-46 2 -90 35q-67 51 -67 126q0 73 72 132q68 54 144 54q39 0 72 -12v66q-55 10 -103 32q-21 -99 -113 -110l-5 -1q-63 0 -107 36q-53 48 -53 117q0 44 25 78q28 39 72 50l-23 24h-107v123h598v-123h-63q41 -71 41 -122q0 -48 -39 -83v-415h-123v193
q-41 24 -71 24q-35 0 -69 -27q-25 -21 -25 -36l1 -7q25 14 58 14q29 0 55 -19t26 -55q0 -16 -7 -33q-31 -61 -94 -61zM178 317q3 5 3 19l-2 20q-9 2 -21 2q-6 -1 -7.5 -1.5t-3 -2.5t-1.5 -9q0 -16 14 -24q5 -4 18 -4zM440 393q-8 31 -63 106h-123q14 -25 24 -49l30 -14
q69 -35 132 -43z" />
    <glyph glyph-name="m_pho_bn" horiz-adv-x="939" 
d="M178 308q3 5 3 19l-2 19q-10 3 -16 3l-9 -1q-3 -1 -5.5 -3t-2.5 -7l1 -6v-1q1 -1 1 -2q1 -4 4 -9t8 -8.5t13 -3.5h5zM440 384q-5 18 -33 63q-22 34 -37 52h-122q18 -28 31 -58l30 -14q69 -36 131 -43zM728 -115h-123q0 24 -17 40q-35 33 -123 46q-30 5 -53.5 6t-32.5 1
l-41 -1l-57 91l138 124l-73 87q-19 6 -37 14q-4 1 -8 3q-1 -10 -4 -19q-26 -81 -109 -91q-1 -1 -2 -1h-2h-11q-54 0 -96 36q-40 36 -51 88q-3 14 -3 28q0 44 25 78.5t68 49.5h2.5t1.5 1q-16 18 -34 33h-96v123h959v-123h-429q47 -77 47 -131q0 -26 -10 -47q-5 -11 -16 -24
t-31 -23l44 -53v-73l-62 -56q56 -8 113 -33v310l46 12q3 1 23 4.5t50 5.5h18q77 0 123 -35q18 -13 34.5 -40t16.5 -71v-109h-123v109q0 6 -0.5 8.5t-1.5 4t-2 1.5q-16 10 -46 10l-15 -1v-383z" />
    <glyph glyph-name="m_bo_bn" horiz-adv-x="591" 
d="M550 -59h-123v15q-63 37 -142 37q-16 0 -54 -5q-13 21 -19 31.5t-9.5 15.5t-9 13t-23.5 36l207 185q-40 10 -76 26q-21 -99 -113 -110l-16 -1q-52 0 -96 36q-53 48 -53 118q0 44 25 78q27 38 72 49q-17 19 -35 34h-95v123h611v-123h-82q47 -77 47 -131q0 -25 -10 -47
q-1 -6 -6 -12v-368zM177 307v1q3 4 3 19l-1 19q-9 2 -17 2q-10 0 -10 -2q-6 0 -6 -11q0 -6 6 -15q8 -13 23 -13h2zM427 92v57l-48 -43q23 -5 48 -14zM440 383q-5 19 -34 65q-22 33 -36 51h-123q18 -28 31 -59l30 -13q69 -36 132 -44z" />
    <glyph glyph-name="m_b_ro_bn" horiz-adv-x="592" 
d="M174 307q2 1 4.5 3t2.5 16q0 9 -2 20h-3q-7 2 -13 2q-17 0 -17 -11q2 -11 6 -17q8 -13 22 -13zM440 383q-5 19 -33 65q-22 33 -37 51h-122q18 -28 31 -59l30 -13q69 -36 131 -44zM428 125v47l-42 -35q20 -5 42 -12zM199 -169q-31 0 -64 18.5t-65.5 69t-39.5 94.5l121 20
q3 -15 18 -38q24 -41 58 -41q17 0 56 20t68 20q38 0 77 -16v23q-89 23 -135 23q-32 -2 -64 -7q-13 23 -18.5 33.5t-9 16t-8 13.5t-21.5 38l187 156q-30 9 -57 21q-22 -99 -114 -110l-9 -1q-58 0 -102 36q-54 49 -54 116q0 44 24.5 78.5t72.5 50.5q-15 19 -34 34h-96v123h612
v-123h-82q47 -77 47 -132q0 -26 -16 -58v-464h-123v24q-15 12 -48 12q-35 0 -91 -27q-45 -23 -90 -23z" />
    <glyph glyph-name="m_bho_bn" horiz-adv-x="606" 
d="M305 -169q-145 0 -219 90q-60 73 -60 186q0 52 5 67l121 -24q-3 -15 -3 -41t7 -56q21 -99 149 -99q111 0 144 100q-58 -41 -124 -41q-24 0 -48 6q-61 17 -78 70q-5 15 -5 30q0 32 20 56q29 30 66 30q14 0 28 -4q44 -16 55 -56q48 24 71 116q-71 6 -133 35q-1 -10 -4 -19
q-29 -92 -124 -92q-54 0 -96 36q-54 47 -54 116q0 44 25 78.5t68 49.5q3 0 4 1q-16 18 -35 33h-95v123h626v-123h-96q47 -77 47 -131q0 -43 -30 -75q23 -39 34.5 -74.5t11.5 -93.5q0 -42 -10 -85q-29 -119 -124 -173q-63 -36 -144 -36zM178 308q3 5 3 19l-2 19q-9 3 -17 3
q-4 0 -7.5 -1t-5.5 -2.5t-2 -6.5q0 -19 13 -27q5 -4 18 -4zM440 384q-5 18 -33 64q-23 34 -37 51h-122q18 -28 31 -58l30 -14q69 -36 131 -43z" />
    <glyph glyph-name="m_bh_ro_bn" horiz-adv-x="687" 
d="M664 -199h-123v40q-37 19 -93 19q-44 0 -123 -13q-39 -7 -74 -7q-106 0 -169 68q-59 66 -59 182q4 87 19 132l118 -34q-13 -49 -13 -102q0 -27 6 -53q14 -70 98 -70q23 0 52 5q83 15 145 15q49 0 93 -11v94l-12 -11q-65 -58 -127 -58q-34 0 -78 21q-57 27 -57 88
q0 14 4 31q25 61 81 61q30 0 52 -18t29 -44q9 6 18 15q41 40 64 110q-72 6 -136 35q-1 -10 -4 -19q-29 -92 -124 -92q-54 0 -96 36q-54 47 -54 116q0 44 25 78.5t68 49.5q3 0 4 1q-16 18 -34 33h-174v123h707v-123h-99q47 -77 47 -131q0 -52 -37 -80q32 -52 44 -86.5
t12 -94.5v-306zM256 308q3 5 3 19l-2 19q-10 3 -16 3t-9 -1t-5 -2.5t-2 -6.5q0 -19 13 -27q5 -4 18 -4zM518 384q-5 18 -33 63q-22 34 -37 52h-122q18 -28 31 -58l30 -14q69 -36 131 -43z" />
    <glyph glyph-name="m_mo_bn" horiz-adv-x="794" 
d="M177 308q3 5 3 20l-1 18q-9 3 -17 3q-4 0 -8 -1t-6 -3t-2 -11q2 -15 14 -22q5 -4 17 -4zM440 384q-5 18 -34 64q-22 34 -36 51h-123q18 -28 31 -58l30 -14q69 -36 132 -43zM630 266v233h-111q47 -76 47 -131q0 -46 -31 -77q44 -5 95 -25zM753 -22h-123v152
q-31 50 -101 50q-52 0 -81 -32q25 -4 46 -18q34 -24 34 -64q0 -36 -34 -64q-33 -24 -69 -24q-25 0 -49 11q-73 37 -81 122q0 101 102 155q-63 13 -96 30q-23 -111 -129 -111q-52 0 -96 36q-53 46 -53 117q0 44 25 78q28 39 72 50q-17 18 -35 33h-95v123h640v16h123v-16h51
v-123h-51v-521z" />
    <glyph glyph-name="m_ro_bn" horiz-adv-x="573" 
d="M532 -75h-123v39q-29 27 -69 27q-37 0 -83 -25t-94 -25q-39 0 -77 19q-46 24 -77 64l87 103l9 -14q25 -42 59 -42q13 0 32 9q75 40 144 40q39 0 69 -10v153q-57 10 -108 33q-1 -12 -5 -21q-27 -82 -112 -90q-65 0 -107 36q-54 47 -54 117q0 43 25 77.5t68 49.5q3 0 4 1
q-16 18 -35 33h-95v123h593v-123h-63q47 -77 47 -131q0 -46 -35 -79v-364zM178 308q3 5 3 19l-2 19q-9 3 -17 3q-4 0 -7.5 -1t-5.5 -2.5t-2 -6.5q0 -19 13 -27q5 -4 18 -4zM440 384q-5 18 -33 63q-22 34 -37 52h-122q18 -28 31 -58l30 -14q69 -36 131 -43z" />
    <glyph glyph-name="m_lo_bn" horiz-adv-x="573" 
d="M178 308q3 5 3 19l-2 19q-9 3 -17 3q-15 0 -15 -10q0 -31 31 -31zM440 384q-5 18 -33 63q-22 34 -37 52h-122q18 -28 31 -58l30 -14q69 -36 131 -43zM159 -120q-18 0 -38 7q-86 27 -86 136q0 85 81 130q45 17 87 17q57 0 112 -53q21 40 57 40q23 0 37 -4v110
q-57 10 -108 33q-1 -12 -5 -21q-27 -82 -112 -90q-65 0 -107 36q-54 47 -54 117q0 43 25 77.5t68 49.5q3 0 4 1q-16 18 -35 33h-95v123h593v-123h-63q47 -77 47 -131q0 -46 -35 -79v-376h-123v116q-14 5 -25 5q-13 0 -13 -44v-7q2 -17 2 -35h-103q0 65 -33 89q-14 10 -35 10
q-17 0 -37 -7q50 -6 69 -40q10 -13 10 -36t-20 -53q-26 -31 -65 -31z" />
    <glyph glyph-name="z_ro_bn" horiz-adv-x="542" 
d="M378 264v235h-155l89 -81v-77l-57 -50l12 -1q63 -6 111 -26zM73 116q4 -7 9 -14q15 -25 38 -38q8 -5 20 -5q13 0 33 10q41 22 76.5 31t66.5 9q34 0 62 -8v11q-23 46 -120 55q-25 2 -47 2q-36 0 -60 -3h-4l-1 -1h-1q-12 -1 -16 -2h-3l-39 -7l-64 94l147 130l-128 119h-52
v123h562v-123h-51v-559h-123v20q-9 7 -23 13q-18 7 -38 7q-37 0 -82 -24q-47 -26 -94 -26q-40 0 -78 19q-34 18 -60 44z" />
    <glyph glyph-name="l_ko_bn" horiz-adv-x="776" 
d="M523 -100h-123v31q-27 29 -79 40t-94 11l-25 -1l-40 -3l-68 126l306 185v49q-29 17 -40 17l-4 -1q-3 -1 -6 -4.5t-5 -8.5q11 -35 11 -71h-123q0 29 -11.5 51t-25.5 31q-6 4 -11 4l-10 -3l-9 -4q17 -7 29 -21q4 -4 10 -15.5t6 -27.5q0 -20 -14 -45q-25 -36 -64 -36
q-9 0 -18 2q-35 8 -60.5 38.5t-30.5 71.5l-1 14q0 16 7 39.5t28 48.5t63 46q31 15 63 15q40 0 78 -23l13 -9q16 15 40 23q22 7 45 7q20 0 40 -5v27h-410v123h796v-123h-263v-191q5 -1 11 -2q21 -5 45 -12q129 -34 161 -93q13 -24 13 -49q0 -18 -7 -36q-5 -16 -21.5 -34
t-49.5 -31q-31 -12 -75 -15h-23q-2 0 -6 -0.5t-11 -0.5l-1 123l38 1q-3 1 -7 3q-19 7 -48 15l-19 5v-282zM400 75v70l-80 -48q44 -7 80 -22z" />
    <glyph glyph-name="l_go_bn" horiz-adv-x="564" 
d="M181 -148v123q18 0 38 4q-2 5 -32 36t-117 80q85 125 200 125q70 0 130 -37v156q-29 17 -40 17q-9 -2 -14 -13q10 -34 10 -72h-123q0 29 -11 51q-19 35 -37 35q-3 0 -19 -7q18 -6 29 -21q16 -16 16 -43q0 -20 -14 -45q-25 -36 -64 -36q-44 0 -78 42q-28 33 -32 84
q0 85 98 134q32 15 65 15q39 0 76 -22q6 -3 13 -10q16 15 38.5 23t45.5 8q20 0 41 -6v26h-410v123h584v-123h-51v-646h-123v164q-55 80 -135 80q35 -17 58 -51q28 -45 28 -78q0 -28 -12 -46q-26 -49 -101 -65q-27 -5 -57 -5z" />
    <glyph glyph-name="l_ddo_bn" horiz-adv-x="776" 
d="M363 -63q-136 0 -221 66q-39 31 -60.5 68t-30 71.5t-8.5 56.5l123 -2q0 -23 17 -55q41 -82 181 -82q80 0 189 29q59 15 73 88q4 25 4 61l-35 -34q-47 -40 -94 -40q-19 0 -39 9q-37 20 -48.5 58.5t-11.5 84.5q-28 23 -44 23q-7 -2 -13 -12q5 -22 5 -45l-2 -27l-122 14
l1 13q0 25 -8 45q-16 34 -33 34q-4 0 -17 -5q37 -22 37 -61q0 -22 -20 -51q-24 -28 -59 -28q-49 0 -82 51q-22 33 -22 73q0 95 114 135q24 8 48 8q53 0 103 -42q32 21 69 21q23 0 46 -7q0 44 -1 44h-412v123h796v-123h-260v-177l-2 -15q13 12 45 44l78 76l78 -28
q12 -40 18 -70q10 -51 10 -105q0 -90 -35 -152q-45 -77 -133 -101q-124 -34 -222 -34z" />
    <glyph glyph-name="l_po_bn" horiz-adv-x="565" 
d="M239 -124l-99 74q24 33 24 51l-1 6q-6 12 -25.5 22.5t-36.5 14.5l-50 112l30 18q5 5 42.5 22t96.5 28q31 5 62 5q62 0 119 -22v141q-30 17 -41 17l-4 -1q-2 -1 -5 -4.5t-5 -7.5q10 -34 10 -72h-123q0 29 -11.5 51t-24.5 31q-6 4 -12 4q-5 0 -10 -3l-8 -4q16 -6 28 -21
q4 -4 10 -15.5t6 -27.5q0 -20 -14 -45q-25 -36 -64 -36q-9 0 -18 2q-35 9 -60.5 39.5t-30.5 70.5l-1 14q0 16 7 39.5t28 48.5t63 46q32 15 65 15q39 0 76 -22q2 -1 4 -3q5 -3 9 -7q17 15 41 23q21 8 43 8q21 0 42 -6v17h-411v123h585v-123h-51v-623h-123v117h-9
q-42 -8 -86.5 -47.5t-66.5 -69.5zM268 71q27 19 57 30q-23 5 -44 5q-20 0 -38 -3q15 -14 25 -32z" />
    <glyph glyph-name="l_pho_bn" horiz-adv-x="1014" 
d="M802 -79h-123q0 24 -17 40q-38 32 -105 42.5t-101 10.5l-43 -1l-57 91l132 119l-88 79h1v16q-30 17 -41 17l-4 -1q-2 -1 -5 -4.5t-5 -8.5q11 -33 11 -71h-123q0 29 -11.5 51t-25.5 31q-6 4 -12 4q-5 0 -10 -3l-8 -4q16 -6 28 -21q4 -4 10 -15.5t6 -27.5q0 -20 -14 -45
q-25 -36 -64 -36q-9 0 -18 2q-35 8 -60 38.5t-31 71.5l-1 13q0 16 7 40t28 49t63 46q32 15 64 15q40 0 77 -23q7 -3 13 -9q17 15 41 23q21 8 43 8q21 0 42 -6v47h-411v123h1034v-123h-500v-143l105 -93v-79l-63 -56q57 -8 113 -33v310l47 12q3 1 23 4.5t50 5.5h19
q76 0 122 -35q18 -13 34.5 -40t16.5 -71v-109h-123v109q0 5 -0.5 8t-1.5 4l-2 2q-15 10 -46 10l-16 -1v-383z" />
    <glyph glyph-name="l_bo_bn" horiz-adv-x="565" 
d="M524 -99h-123v24q-42 18 -96.5 25.5t-98.5 7.5l-63 -3l-61 97l319 247v50q-30 17 -41 17l-4 -1q-3 -1 -5.5 -5t-4.5 -8q10 -35 10 -71h-122q0 29 -11.5 51t-25.5 31q-7 4 -12 4t-10 -3l-8 -4q16 -6 28 -21q4 -4 10 -15.5t6 -27.5q0 -20 -14 -45q-25 -36 -64 -36
q-9 0 -18 2q-35 8 -60 38.5t-31 71.5l-1 13q0 16 7 40t28 49t63 46q31 15 63 15q40 0 78 -23l13 -9q17 15 41 23q21 7 45 7q19 0 40 -5v16h-411v123h585v-123h-51v-598zM401 56v87l-90 -69q49 -6 90 -18z" />
    <glyph glyph-name="l_bho_bn" horiz-adv-x="621" 
d="M350 -134q-25 0 -55 4q-185 33 -233 163q-21 52 -21 107q0 21 1 26l122 -17q0 -20 3 -36q15 -101 147 -122q19 -3 35 -3q69 0 102 46q0 1 2 3q-34 -15 -71 -15q-93 0 -137 73q-18 31 -18 66q0 53 34 81q22 18 51 18t52 -17q31 -25 31 -64q0 -18 -8 -34q21 1 41 27
q-16 34 -27 73v104q-30 17 -41 17q-2 0 -5 -1t-9 -13q10 -35 10 -71h-122q0 29 -11 51q-19 35 -38 35q-4 0 -18 -7q16 -6 28 -21q16 -16 16 -43q0 -20 -14 -45q-25 -36 -64 -36q-45 0 -78 41q-28 34 -32 84q0 86 98 135q31 15 63 15q45 0 91 -32q34 30 86 30q19 0 40 -5v16
h-411v123h641v-123h-107v-232q6 2 11 2q17 0 27 -16l8 -15q28 -53 28 -132q-7 -117 -85 -184q-64 -56 -163 -56z" />
    <glyph glyph-name="l_mo_bn" horiz-adv-x="792" 
d="M628 245v254h-105v-228q48 -4 105 -26zM751 -43h-123v152q-31 50 -101 50q-52 0 -81 -32q25 -4 46 -18q34 -24 34 -64q0 -36 -34 -64q-33 -24 -69 -24q-25 0 -49 11q-73 37 -81 122q0 105 107 158v68q-29 17 -40 17q-10 -3 -15 -14q11 -33 11 -71h-123q0 29 -11 51
q-19 35 -37 35q-3 0 -19 -7q18 -6 29 -21q16 -16 16 -43q0 -20 -14 -45q-25 -36 -64 -36q-45 0 -78 41q-28 33 -32 85q0 85 98 134q32 15 64 15q53 0 90 -32q16 15 38.5 23t45.5 8q20 0 41 -6v49h-410v123h638v16h123v-16h51v-123h-51v-542z" />
    <glyph glyph-name="l_ro_bn" horiz-adv-x="671" 
d="M86 166q6 -10 20 -23q15 -16 38 -29.5t53 -13.5t66 19q77 43 150 43q17 0 34 -2q32 -5 60 -18v168q-34 19 -51 19l-9 -2q-14 -7 -24 -29t-14 -42q2 -20 2 -43h-123q0 93 -42 125q-12 7 -24 7q-21 0 -39 -10q-25 -13 -33 -23h11q23 0 47.5 -8t40.5 -30q4 -6 8.5 -16.5
t4.5 -25.5q0 -22 -17 -52q-25 -36 -69 -36q-10 0 -23 2q-44 11 -82.5 50t-46.5 94l-1 14q0 20 8 45t31.5 50t67.5 47q47 22 92 22q48 0 90 -26q22 -14 39 -34q21 20 49 33q27 11 56 11q25 0 51 -8v55h-517v123h691v-123h-51v-568h-123v59q-12 18 -44 37q-24 12 -51 12
q-41 0 -89 -27q-62 -35 -127 -35q-37 0 -75 13q-59 20 -104 67z" />
    <glyph glyph-name="l_lo_bn" horiz-adv-x="671" 
d="M216 -97q-50 0 -98 47q-33 32 -35 95q0 94 91 130q44 17 87 17q56 0 103 -30q15 -10 19 -22q5 15 27 25q31 14 46 14q24 0 51 -7v163q-31 15 -51 15q-9 0 -15 -3q-23 -11 -32 -48q2 -16 2 -34h-123q0 98 -67 98q-18 0 -38 -7q48 -6 68 -39q10 -13 10 -37q0 -23 -19 -53
q-25 -30 -66 -30q-62 0 -115 56q-35 35 -38 86q0 85 111 130q44 17 86 17q57 0 104 -31q15 -9 26 -21q50 39 105 39q25 0 52 -7v33h-518v123h692v-123h-51v-568h-123v111q-7 14 -31 14q-9 0 -15 -3q-22 -12 -32 -48q2 -16 2 -34h-103q0 65 -33 89q-15 10 -35 10
q-17 0 -37 -8q48 -6 68 -39q10 -13 10 -37q0 -23 -19 -53q-25 -30 -66 -30z" />
    <glyph glyph-name="l_so_bn" horiz-adv-x="1055" 
d="M659 355q27 38 80 55q20 6 41 6q53 0 111 -35v118h-265q-41 -44 -41 -76q0 -18 18 -34q13 -7 25 -18zM466 458q5 22 13 41h-489v123h1075v-123h-51v-499h-123v226q-71 67 -111 67q-17 -2 -29 -20q26 -48 26 -88q0 -28 -11 -56q-32 -76 -124 -102q-32 -8 -70 -8
q-64 0 -139 24l38 117q61 -18 101 -18q36 0 56 10q26 12 26 32q0 43 -57 65q-49 20 -68 42q-13 15 -23 29q-30 15 -50 15q-9 0 -15 -3q-23 -11 -32 -48q2 -16 2 -34h-123q0 98 -67 98q-18 0 -38 -7q48 -6 68 -39q10 -13 10 -37q0 -23 -19 -53q-25 -30 -66 -30q-62 0 -115 56
q-35 35 -38 86q0 85 111 130q44 17 86 17q57 0 104 -31q15 -9 26 -21q50 39 105 39h11z" />
    <glyph glyph-name="sh_ukar_bn" horiz-adv-x="949" 
d="M574 -52q-298 0 -443 162q-47 54 -70 110.5t-30.5 105.5t-7.5 79q0 29 2 33l122 -14l-1 -19q0 -20 5 -56t21.5 -77.5t50.5 -80.5q110 -120 351 -120q68 0 120.5 22.5t76.5 49.5q8 10 10.5 15.5t2.5 6.5v1.5t-1 1.5q-38 -24 -76 -28l-11 -1q-56 0 -89 48q-15 26 -15 52
t16 49q9 15 29 26.5t53 11.5q21 0 48 -6l25 -6q16 19 27 46q13 27 13 62q0 29 -14 63l-82 -113l-192 121q-36 -39 -41 -66q37 12 64 12h8q38 0 56 -15t24 -28q8 -16 8 -33q0 -51 -61 -94q-14 -9 -35 -17.5t-47 -8.5h-2q-46 0 -83 34q-38 -37 -85 -37q-34 0 -70 20
q-32 20 -53 52q-16 28 -16 56q0 17 6 32q5 15 22.5 32t55.5 23q11 2 25 2q13 0 29 -2l-16 22q-21 22 -50 22h-264v123h264q84 0 144 -66l4 -6q12 16 27 31q39 36 87 36q23 0 45 -9l5 -2l109 -68l108 149q12 -13 23 -24q46 -47 74 -87.5t41 -100.5q5 -26 5 -52q0 -50 -18 -99
q-14 -37 -37 -71q21 -23 28.5 -46t7.5 -41l-1 -15q-11 -86 -116 -147q-100 -56 -216 -56z" />
    <glyph glyph-name="sh_co_bn" horiz-adv-x="932" 
d="M650 162h8l56 2q8 0 17 1q20 0 28 13q16 21 22 56.5t6 69.5q-31 0 -70 4q-45 5 -81 16v-116q0 -25 13 -45zM513 431l-156 62q-37 -39 -42 -66q36 11 63 12h8q38 0 56.5 -15t24.5 -29q7 -16 7 -33q0 -50 -60 -93q-14 -9 -35 -17.5t-47 -8.5h-2q-48 0 -84 33
q-37 -36 -85 -36q-34 0 -69 20q-34 20 -53 51q-16 28 -16 55q0 18 6 34q5 14 22.5 31.5t54.5 23.5q11 2 23 2q15 0 31 -2q-6 11 -16 21q-20 23 -49 23h-105v123h105q83 0 143 -66l5 -6q12 15 27 30q39 37 87 37q23 0 45 -9l111 -45v59h429v-123h-306v-37q17 -21 95 -32
q32 -3 57 -3q22 0 36 1q5 0 9 1h4l59 6l9 -58v-3q5 -20 5 -72q0 -46 -11 -102t-45 -100q-45 -54 -118 -58q-8 -1 -17 -1q-6 0 -12 -1q-27 -1 -45 -1q-22 0 -39 3q-29 6 -46 20t-28 30q-36 52 -36 116v223z" />
    <glyph glyph-name="sh_cho_bn" horiz-adv-x="1026" 
d="M660 323q8 0 20 2q28 9 43 30q-49 12 -87 32v-27q0 -8 3.5 -19t8.5 -16q3 -2 12 -2zM513 431l-156 62q-37 -39 -42 -66q36 11 63 12h8q38 0 56.5 -15t24.5 -29q7 -16 7 -33q0 -50 -60 -93q-14 -9 -35 -17.5t-47 -8.5h-2q-48 0 -84 33q-37 -36 -85 -36q-34 0 -69 20
q-34 20 -53 51q-16 28 -16 55q0 18 6 34q5 14 22.5 31.5t54.5 23.5q11 2 23 2q15 0 31 -2q-6 11 -16 21q-20 23 -49 23h-105v123h105q83 0 143 -66l5 -6q12 15 27 30q39 37 87 37q23 0 45 -9l111 -45v59h523v-123h-350q21 -12 47.5 -20t59.5 -8l38 2q59 0 101 -27.5
t61 -77.5q10 -29 10 -60q0 -34 -12 -69q-24 -68 -79 -107q-9 -7 -20 -13q86 -44 108 -112l-117 -38q-5 18 -42.5 39t-116.5 37q-56 11 -101.5 15t-57.5 4h-4l4 123h25q60 0 135.5 10t116.5 36q18 13 28 34t10 41q0 10 -3 18v1q-2 4 -6 9.5t-14 9.5l-14 -31
q-47 -88 -135 -109q-25 -6 -48 -6q-31 0 -53 9t-36 20q-28 23 -40 51.5t-15 51.5t-3 28v71z" />
    <glyph glyph-name="sh_no_bn" horiz-adv-x="645" 
d="M481 113q-49 29 -83 29q-40 0 -79 -31q-29 -25 -29 -44l2 -16q33 19 67 19q30 0 56.5 -19.5t26.5 -56.5q0 -16 -7 -33q-32 -64 -97 -64h-6q-48 2 -95 37q-71 54 -71 134q0 77 77 139q73 58 154 58q41 0 84 -15v193l-154 51h-7q-34 -30 -40 -53q26 7 45 8h10
q34 0 50.5 -14t21.5 -24q8 -15 8 -34q0 -17 -9 -35t-30 -34q-35 -25 -77 -25q-45 0 -86 33q-20 -19 -41 -27t-41 -8q-34 0 -63 19q-45 34 -45 80q0 17 7 34q5 13 22 29.5t52 23.5q11 2 21 2l-10 11q-21 19 -53 19h-72v123h72q80 0 140 -55l8 -9q11 13 24 24q4 3 7 6
q38 30 83 30q21 0 42 -7l115 -39v50h174v-123h-51v-594h-123v208z" />
    <glyph glyph-name="sh_bo_bn" horiz-adv-x="645" 
d="M604 -74h-123v26q-43 23 -99 31t-95 8l-68 -3l-58 103l320 280v72l-154 51h-7q-34 -30 -40 -53q26 7 45 8h10q34 0 50.5 -14t21.5 -24q8 -15 8 -34q0 -17 -9 -35t-30 -34q-35 -25 -77 -25q-45 0 -86 33q-20 -19 -41 -27t-41 -8q-34 0 -63 19q-45 34 -45 80q0 17 7 34
q5 13 22 29.5t52 23.5q11 2 21 2l-10 11q-21 19 -53 19h-72v123h72q80 0 140 -55l8 -9q11 13 24 24q4 3 7 6q38 30 83 30q21 0 42 -7l115 -39v50h174v-123h-51v-573zM481 94v103l-95 -82q52 -7 95 -21z" />
    <glyph glyph-name="sh_mo_bn" horiz-adv-x="873" 
d="M709 288v211h-105v-185q48 -4 105 -26zM832 0h-123v152q-31 50 -101 50q-52 0 -81 -32q25 -4 46 -18q34 -24 34 -64q0 -36 -34 -64q-33 -24 -69 -24q-25 0 -49 11q-73 37 -81 122q0 105 107 158v152q-154 51 -161 51q-34 -30 -40 -53q26 7 50 8q39 0 56 -14
q29 -25 29 -58q0 -39 -39 -69q-34 -25 -78 -25q-43 0 -85 33q-37 -35 -82 -35q-36 0 -63 19q-45 34 -45 80q0 17 7 34q16 41 74 53q11 2 21 2q-27 30 -63 30h-72v123h72q84 0 148 -64q11 13 24 24l7 6q38 30 83 30q21 0 41 -7l116 -39v50h228v16h123v-16h51v-123h-51v-499z
" />
    <glyph glyph-name="sh_ro_bn" horiz-adv-x="645" 
d="M86 178q13 -12 31 -22q23 -14 54 -14q29 0 65 19q78 43 151 43q17 0 34 -2q31 -6 60 -18v259l-154 51h-7q-34 -30 -40 -53q26 7 45 8h10q34 0 50.5 -14t21.5 -24q8 -16 8 -34q0 -17 -9 -35t-29 -34q-36 -25 -78 -25q-43 0 -86 33q-20 -19 -41 -27t-41 -8q-34 0 -63 19
q-45 35 -45 80q0 17 7 34q5 13 22 29.5t53 23.5q10 2 20 2l-10 11q-21 19 -53 19h-72v123h72q80 0 140 -55l8 -9q14 15 30 29l1 1q38 30 84 30q21 0 41 -7l115 -44v55h174v-123h-51v-499h-123v31q-12 19 -44 38q-24 12 -51 12q-41 0 -89 -27q-64 -35 -128 -35q-38 0 -75 12
q-49 18 -89 55z" />
    <glyph glyph-name="sh_lo_bn" horiz-adv-x="645" 
d="M604 -47h-123v129q-39 27 -62 27q-14 -2 -20 -19q12 -37 12 -89h-113q0 44 -14 69q-21 41 -46 41q-26 0 -36 -14q9 -1 20 -6t23 -19q16 -17 16 -45q0 -20 -14 -46q-26 -36 -65 -36q-25 0 -62 43q-32 38 -33 89q0 100 84 141q33 16 68 16q42 0 80 -24l18 -12q12 19 36 28
q22 6 46 6q35 0 62 -10v221l-154 51h-7q-34 -30 -40 -53q26 7 45 8h10q34 0 50.5 -14t21.5 -24q8 -15 8 -34q0 -17 -9 -35t-30 -34q-35 -25 -77 -25q-45 0 -86 33q-20 -19 -41 -27t-41 -8q-34 0 -63 19q-45 34 -45 80q0 17 7 34q5 13 22 29.5t52 23.5q11 2 21 2l-10 11
q-21 19 -53 19h-72v123h72q80 0 140 -55l8 -9q11 13 24 24q4 3 7 6q38 30 83 30q21 0 42 -7l115 -44v55h174v-123h-51v-546z" />
    <glyph glyph-name="ss_ko_bn" horiz-adv-x="688" 
d="M435 -99h-123v31q-27 29 -77 47.5t-116 22.5l-68 126l217 135l-19 7q-125 48 -150 142q-5 21 -5 41q0 24 6 46h-110v123h708v-123h-148q15 -14 25 -29q24 -36 24 -77q0 -45 -31 -87q-10 -13 -27 -27q85 -31 111 -77q13 -24 13 -49q0 -18 -7 -36q-5 -16 -21.5 -34
t-49.5 -31q-31 -12 -75 -16h-40l-1 123h33l5 1q-19 8 -55 18l-19 4v-281zM436 352q32 6 44 23q7 9 7 19q0 6 -3 12q-24 32 -70 50q14 -33 18 -60.5t4 -43.5zM312 366q-1 16 -8 37t-25 40q-25 25 -69 37q-4 -14 -4 -27q0 -7 1 -14q8 -23 32.5 -39t49.5 -26q5 -2 10 -3
q7 -3 13 -5zM312 76v70l-79 -48q46 -8 79 -22z" />
    <glyph glyph-name="ss_k_ro_bn" horiz-adv-x="773" 
d="M531 -140h-123q-17 30 -46.5 34.5t-43.5 4.5q-28 0 -74 -16q-25 -5 -47 -5q-42 0 -68 14q-88 46 -88 178q0 24 3 51q9 70 22 108l118 -36q-1 0 -7 -26q-13 -50 -13 -98q0 -51 14 -62q7 -6 19 -6t23 3q56 17 98 17q50 0 90 -9v149q-9 12 -38 12q-7 0 -9 -1q8 -14 8 -35
q0 -31 -19 -54q-31 -38 -75 -38q-30 0 -54 22q-22 28 -22 58q0 35 18 71l1 2q8 18 18 31q-189 72 -189 190q0 45 25 80h-82v123h793v-123h-221q66 -70 66 -138q0 -58 -60 -107q-24 -18 -54 -30q12 -19 16 -42q25 7 51 7q84 0 133 -55q36 -41 36 -99q0 -101 -60 -128
q-14 -5 -28 -5q-30 0 -54 23q-26 28 -26 62q0 16 6 31q13 27 30 38q-10 6 -22 9l-15 1q-35 0 -50 -22v-184zM474 341q27 14 30 22q-28 87 -166 107q65 -59 136 -129zM300 338q-67 63 -117 106q-13 -16 -13 -26q0 -17 50 -46q43 -24 80 -34z" />
    <glyph glyph-name="ss_tto_bn" horiz-adv-x="690" 
d="M427 -152q-57 0 -121 32q-61 30 -86 94q-12 31 -12 64q0 32 12 63l21 51q-53 15 -107 52q-92 66 -108 164q-3 19 -3 38q0 51 17 93h-50v123h440q-2 8 -4 9q-7 6 -27.5 7.5t-41.5 1.5l-48 -1q-40 0 -80 9.5t-73 40.5q-49 50 -49 145v11l123 -4v-8q0 -42 13 -57
q9 -8 27.5 -10.5t40.5 -2.5h57q40 0 80 -8.5t70 -41.5q32 -34 36 -91h146v-123h-282q55 -45 82 -102q13 -30 13 -63q0 -24 -7 -49q-17 -54 -63 -93q-31 -26 -70 -38l-38 -98q-4 -10 -4 -19q0 -29 29 -47q39 -19 67 -19q47 0 88 46q11 12 19 31q-43 11 -66 51q-10 20 -10 42
q0 30 20 57q23 29 46 38.5t40 9.5q11 0 19 -2q19 -3 43.5 -26t36.5 -82q4 -22 4 -43q0 -85 -57 -155q-84 -90 -183 -90zM388 345q-22 43 -66 71.5t-92 43.5q51 -52 158 -115zM306 266l12 1q-101 60 -172 132l1 -13q7 -46 58 -81q56 -39 101 -39z" />
    <glyph glyph-name="ss_tt_ro_bn" horiz-adv-x="661" 
d="M258 -256q-40 0 -77 18q-51 27 -82.5 73.5t-38.5 90.5l122 19q2 -15 16.5 -37.5t37.5 -35.5q8 -5 22 -5q13 0 33 16t57.5 25t67.5 9q27 0 48 -5v18q-18 -3 -39 -3q-54 0 -115 24q-67 28 -93 88q-9 24 -9 48q0 31 14 60l14 27q-48 13 -101 47q-57 40 -81.5 82t-27.5 76
q-3 17 -3 34q0 47 16 86h-49v123h438q-1 8 -4 9q-7 6 -27 7.5t-41 1.5l-48 -1q-40 0 -80.5 9.5t-73.5 40.5q-49 50 -49 145v11l123 -4v-8q0 -42 14 -57q8 -8 26.5 -10.5t40.5 -2.5h57q40 0 80 -8.5t70 -41.5q31 -34 37 -91h118v-123h-250q50 -40 75 -92q14 -29 14 -60
q0 -70 -63 -130q-31 -29 -78 -44l-40 -79l-1 -7q0 -2 1 -4q5 -13 24 -20q41 -16 72 -16q45 0 74 20q-44 15 -61 53q-6 15 -6 29q0 32 25 57q22 22 42.5 29.5t36.5 7.5q14 0 24 -3q56 -18 73 -91q5 -24 5 -45q0 -35 -10.5 -60.5t-24.5 -41.5l-16 -18v-227h-123v25
q-15 12 -48 12q-34 0 -73.5 -25t-84.5 -25zM388 356q-23 40 -66 66.5t-91 40.5q51 -48 157 -107zM312 284q-99 57 -169 125q0 -6 1 -12q6 -43 57 -76q57 -37 104 -37h7z" />
    <glyph glyph-name="ss_ttho_bn" horiz-adv-x="708" 
d="M420 -116q-57 0 -109 26q-71 36 -119 116l-28 46l63 51h19q22 4 50 22q-88 0 -169 57q-104 74 -104 189q0 55 24 108h-57v123h271q-2 16 -2 32t2 32q17 101 105 159q22 15 44 26l49 -113l-10 -6q-63 -35 -67 -98q0 -15 5 -32h331v-123h-249q29 -30 67 -61
q149 -126 149 -279q0 -39 -11 -76q-56 -166 -222 -197q-15 -2 -32 -2zM419 7q50 0 91 37q52 47 52 117q0 79 -78 157q0 -127 -51 -204q-38 -56 -86 -82q33 -25 72 -25zM361 337l-1 7q-40 67 -143 101q46 -49 144 -108zM300 261q-95 57 -161 125q0 -50 54 -87.5t107 -37.5z
" />
    <glyph glyph-name="ss_nno_bn" horiz-adv-x="793" 
d="M499 -52h-123q-22 90 -80 114.5t-91 24.5q-76 0 -125 -11l-52 97l146 161l-144 165h-40v123h509v-61q52 24 109 24q39 0 76 -17q55 -28 70 -91q4 -17 4 -35q0 -33 -13 -65l-7 -15q14 -15 21 -32q11 -25 11 -51q0 -29 -14 -57q-42 -76 -152 -87q-14 -1 -26 -1
q-42 0 -79 11v-197zM380 167v76l-96 35l-64 -72q19 0 40 -2q68 -8 120 -37zM579 253l14 1q48 7 57 23l1 2q-1 2 -2.5 4.5t-4.5 4.5l-16 -1q-19 0 -38 6q-27 10 -40 29t-13 39q0 9 2 18q5 20 23 34.5t47 14.5q10 0 22 -2q1 -1 2 -1h2q3 9 3 19q0 7 -1 10t-2.5 4.5t-2.5 1.5
q-10 5 -25 5q-32 0 -80 -23q-11 -5 -20 -11l-8 -4v-152q33 -22 80 -22zM376 371l4 3v125h-192l75 -86z" />
    <glyph glyph-name="ss_pho_bn" horiz-adv-x="954" 
d="M620 -137q-7 39 -49.5 61t-90 30.5t-70.5 9.5l-33 1l-56 89l132 119l-27 25l-10 -8q-56 -45 -127 -45h-2q-79 0 -159 57q-87 62 -102 154q-3 18 -3 35q0 31 7 58.5t17 49.5h-57v123h974v-123h-597q71 -47 103 -116q13 -27 13 -58l-1 -12l112 -101v-78l-70 -63l33 -9
q36 -12 63 -25v323l46 11h1q5 2 24.5 5.5t47.5 5.5h18q77 0 123 -35q19 -14 35 -40.5t16 -70.5v-124h-123v124q0 6 -0.5 8.5t-1 4t-1.5 1.5q-18 9 -50 9h-12v-396h-123zM366 318l1 8q0 5 -2 9q-18 37 -54 62.5t-78 40.5q55 -48 133 -120zM287 260q-92 84 -148 133l1 -20
q11 -47 56.5 -79t90.5 -34z" />
    <glyph glyph-name="ss_bo_bn" horiz-adv-x="491" 
d="M366 318l1 8q0 5 -2 9q-18 37 -54 62.5t-78 40.5q55 -48 133 -120zM327 26v87l-90 -69q49 -6 90 -18zM287 260q-92 84 -148 133l1 -20q11 -47 56.5 -79t90.5 -34zM192 165q-32 14 -64 37q-87 62 -102 154q-3 18 -3 35q0 31 7 58.5t17 49.5h-57v123h511v-123h-134
q71 -47 103 -116q13 -27 13 -58l-1 -12q-4 -56 -32 -91v-351h-123v24q-42 18 -94 36t-99 15l-57 130z" />
    <glyph glyph-name="ss_mo_bn" horiz-adv-x="718" 
d="M286 264q-85 78 -140 125q8 -57 55 -90q43 -31 85 -35zM367 321v4q0 5 -1 8q-32 64 -121 98zM677 -99h-123v152q-31 50 -101 50q-52 0 -81 -32q25 -4 46 -18q34 -24 34 -64q0 -36 -34 -64q-33 -24 -69 -24q-25 0 -49 11q-73 37 -81 122q0 65 41 109q-65 9 -131 56
q-106 77 -106 192q0 55 24 108h-57v123h564v16h123v-16h51v-123h-51v-598zM554 189v310h-177q57 -38 88 -90q25 -43 25 -84q0 -33 -9 -51q-18 -33 -39 -58q51 -3 112 -27z" />
    <glyph glyph-name="ss_ro_bn" horiz-adv-x="615" 
d="M574 -70h-123v38q-1 0 -1 1q-10 10 -30 19q-18 7 -39 7q-37 0 -81 -24q-47 -25 -95 -25q-40 0 -78 18q-54 28 -87 78t-40 98l127 20q3 -19 19 -43.5t38 -36.5q8 -5 22 -5q12 0 31 9q41 22 77 31.5t67 9.5q40 0 70 -11v43q-41 -16 -94 -16q-41 0 -88 12.5t-98 42.5
q-68 41 -95 85t-31 79q-2 15 -2 30q0 32 8 59.5t19 49.5h-80v123h635v-123h-171q77 -45 114 -110q17 -30 17 -64q0 -17 -4 -34q-3 -10 -7 -21v-340zM345 264l-179 127q0 -6 1 -13q11 -46 68 -77.5t110 -36.5zM457 311q5 9 5 14l-1 4q-39 66 -169 106q-2 1 -5 1q-7 3 -14 4
q14 -10 30 -21q24 -16 50 -35z" />
    <glyph glyph-name="s_ko_bn" horiz-adv-x="774" 
d="M535 -95h-123v7q-17 24 -48.5 36t-56.5 15q-48 6 -75 6l-67 -4l-59 134l306 180v19q-17 9 -32 21q-27 21 -55 54q-57 -104 -138 -116q-10 -2 -21 -2q-87 0 -166 113l101 70q25 -35 42 -47.5t24 -12.5h1q6 0 19 12t30 41q19 37 26 57l3 8v3h-256v123h794v-123h-91
q-10 -31 -28 -69q-54 -112 -130 -141v-4q25 -9 56 -23q120 -54 149 -116q11 -22 11 -44q0 -19 -8 -38q-6 -16 -22 -34t-49 -31q-31 -12 -76 -15h-21q-2 0 -6 -0.5t-12 -0.5l-2 123h34l23 3q-18 15 -72 41q-1 1 -3 1q-1 0 -2 1v-247zM487 403q24 0 67 80q3 6 6 13q0 1 1 3
h-174q34 -52 59 -74t38 -22h3zM412 61v75l-88 -51l3 -1q49 -8 85 -23z" />
    <glyph glyph-name="s_k_ro_bn" horiz-adv-x="803" 
d="M561 -114h-123q-34 40 -90 40q-49 0 -133 -16q-25 -5 -47 -5q-42 0 -69 14q-87 45 -87 176q0 24 3 52q7 65 22 109l117 -36l-8 -35q-11 -51 -11 -90q0 -51 13 -61q8 -6 21 -6q11 0 21 2q89 18 159 18q49 0 89 -9v149q-12 12 -37 12l-10 -1q8 -14 8 -35q0 -31 -19 -54
q-32 -39 -76 -39q-31 0 -53 23.5t-22 56.5q0 24 7 44q39 111 141 126q-26 21 -52 52q-65 -118 -159 -118q-87 0 -166 113l101 70q43 -60 67 -60q18 0 49 53q14 25 21 45t7.5 21t0.5 2h-256v123h823v-123h-120q-10 -31 -28 -69q-62 -126 -149 -147q36 -29 44 -74q26 6 52 6
q83 0 132 -54q36 -41 36 -100q0 -99 -60 -127q-14 -5 -28 -5q-30 0 -55 23q-25 27 -25 61q0 16 6 32q13 27 30 37q-14 9 -36 11q-37 0 -51 -23v-184zM487 403q24 0 67 80l7 16h-174q61 -96 100 -96z" />
    <glyph glyph-name="s_k_lo_bn" horiz-adv-x="846" 
d="M607 -235h-123v123q-12 30 -32 30q-32 0 -48 -51q2 -17 2 -34h-103q0 65 -32 89q-14 9 -24 9q-18 0 -39 -7q50 -6 69 -39q10 -17 10 -37q0 -23 -20 -53q-24 -30 -65 -30q-70 0 -100 45.5t-33 94.5q0 22 8 45q21 60 90 89q37 15 79 15q47 0 94 -31q14 -9 26 -22
q9 23 33 36q14 7 32 7q29 0 53 -22v14q-85 37 -179 37q-34 -2 -67 -5l-60 135l222 130q-39 21 -78 62q-21 -34 -54 -63q-46 -41 -105 -41q-85 0 -163 97l95 77q43 -51 68 -51q24 0 54 46q15 23 21 39h-248v123h866v-123h-169q-21 -60 -67 -115l44 -19q159 -70 159 -162
q0 -37 -29 -70q-35 -40 -125 -46q-23 0 -27 -0.5t-12 -0.5l-2 123h13q10 1 16 1t12 1t16 2q-18 15 -73 41l-5 2v-491zM486 435q30 6 65 64h-156q53 -64 91 -64zM484 164v76l-87 -52q49 -8 87 -24z" />
    <glyph glyph-name="s_kho_bn" horiz-adv-x="868" 
d="M-10 622h671q-1 -170 -64 -233l30 -74q17 -28 17 -93q0 -91 -55 -155q5 -2 11 -2q59 -11 104 -33v590h174v-123h-51v-657h-123v36q-21 30 -60.5 46t-83.5 22t-76 6l-47 -3l-106 93q41 21 81.5 41t73.5 53q-42 -18 -88 -18q-50 0 -85 21.5t-52 49t-17 55.5q0 24 13 45
q22 40 81 40l19 -1q51 -9 55 -63q0 -11 -4 -24q34 6 58 24t36.5 35t14.5 21q-22 -9 -61 -13q-79 0 -149 81q-63 -100 -149 -100q-84 0 -158 100l99 74q36 -50 60 -50q16 0 46 44q14 30 18 42h-233v123zM459 431q21 1 59 68h-138q44 -68 79 -68z" />
    <glyph glyph-name="s_tto_bn" horiz-adv-x="896" 
d="M633 -42q-85 0 -135 69q-15 24 -21 43.5t-6 25.5v129q-39 36 -67 51.5t-44 15.5l-8 -1q-12 -4 -22 -18l7 -11q19 -38 19 -77q0 -29 -10 -56q-32 -76 -124 -102q-33 -9 -71 -9q-63 0 -139 25l38 117q61 -18 101 -18q36 0 55.5 9.5t24.5 22.5q2 5 2 11q0 14 -14 31.5
t-43 31.5q-60 28 -93 67q-35 40 -41 88l-1 18q0 42 18 78h-69v123h742q-2 8 -4 9q-7 6 -27.5 7.5t-41.5 1.5l-48 -1q-40 0 -80.5 9.5t-72.5 40.5q-49 50 -49 145v11l123 -4v-8q0 -42 13 -57q9 -8 27.5 -10.5t40.5 -2.5h58q40 0 79 -8.5t69 -40.5q33 -35 37 -92h50v-123h-312
v-389l2.5 -7.5t5.5 -9.5q3 -5 10 -8.5t21 -3.5q47 0 89 45q12 13 20 34q-59 14 -89 63q-11 21 -11 43q0 30 19 55q38 44 85 44q13 0 25 -3q78 -24 98 -117q4 -22 4 -44q0 -84 -57 -154q-82 -89 -183 -89zM238 355q28 37 80 55q20 5 41 5q39 0 81 -18l31 -16v118h-265
q-17 -17 -29 -38t-12 -38v-5q4 -20 24.5 -35t38.5 -23z" />
    <glyph glyph-name="s_tt_ro_bn" horiz-adv-x="896" 
d="M486 -220q-39 0 -76 18q-51 27 -82.5 73.5t-38.5 90.5l121 19q3 -15 17 -37.5t37 -35.5q9 -5 22 -5t33 9q43 23 80.5 32t68.5 9q26 0 47 -5v26q-40 -16 -81 -16q-87 0 -136 70q-15 24 -21 43.5t-6 24.5v130q-40 37 -68 52t-43 15l-8 -1q-12 -5 -22 -19q4 -5 7 -11
q20 -38 20 -78q0 -28 -11 -55q-32 -76 -124 -102q-33 -8 -71 -8q-63 0 -139 24l38 117q61 -18 101 -18q36 0 55.5 9.5t24.5 22.5q2 5 2 11q0 15 -14 32.5t-43 31.5q-59 28 -93 66q-35 40 -40 88l-2 21q0 40 18 75h-69v123h742l-3 9q-1 0 -1 1q-5 5 -21 7t-34 2l-58 -1
q-40 0 -81.5 8.5t-75.5 40.5q-49 49 -49 146v11l123 -4v-8q0 -43 13 -58q9 -8 27.5 -10.5t40.5 -2.5h58q40 0 79.5 -8.5t69.5 -40.5q32 -35 36 -92h50v-123h-312v-389l2.5 -7.5t5.5 -8.5q3 -5 10 -9t22 -4q41 0 81 38v1q2 0 3 1t2 3l2 2q12 13 20 34q-59 14 -89 63
q-11 22 -11 44q0 29 19 54q37 44 85 44q12 0 25 -3q78 -24 98 -117q4 -22 4 -44q0 -65 -35 -122v-286h-123v25q-14 12 -47 12q-35 0 -91 -27q-44 -23 -91 -23zM238 355q28 38 80 55q20 6 41 6q39 0 81 -19l31 -16v118h-265q-16 -17 -28.5 -38t-12.5 -38v-5q4 -20 24.5 -35
t38.5 -23q6 -2 10 -5z" />
    <glyph glyph-name="s_to_bn" horiz-adv-x="691" 
d="M363 -64q-47 0 -100 12.5t-98 50.5q-79 69 -87 203l123 7q5 -82 45 -117q23 -19 54.5 -25.5t63.5 -6.5q33 0 60 3h4q44 5 74.5 26.5t39.5 46.5q3 8 3 15q0 14 -14 27q-19 18 -54 24q18 -18 18 -44v-2q0 -48 -53 -68q-11 -3 -23 -3q-19 0 -39 8q-65 27 -81 87q-3 12 -3 24
q0 40 29 74q23 25 60 37l-2 2t-3 2q-27 21 -54 54q-58 -104 -138 -116h-3q-10 -2 -19 -2q-87 0 -166 114l102 69q25 -35 42 -47.5t24 -12.5h1q6 1 18.5 12.5t29.5 40.5q14 26 21.5 45.5t7.5 20.5l1 2h-257v123h711v-123h-8q-9 -31 -28 -69q-43 -91 -102 -127q30 -15 53 -36
q52 -52 52 -116q0 -28 -10 -56q-23 -63 -82.5 -105t-136.5 -49q-48 -5 -76 -5zM487 403q24 0 67 79q2 6 6 13l2 4h-175q34 -53 59.5 -74.5t38.5 -21.5h2z" />
    <glyph glyph-name="s_t_ro_bn" horiz-adv-x="665" 
d="M624 -128h-123q-32 39 -74 39q-66 0 -142 -15q-25 -5 -46 -5q-42 0 -69 14q-88 46 -88 179q0 59 23 151l2 6l118 -36l-6 -25q-14 -53 -14 -102q0 -48 14 -59q8 -5 20 -5t22 2q80 18 149 18q51 0 91 -9v148q-13 13 -38 13q-4 -1 -10 -1q8 -15 8 -35q0 -31 -19 -54
q-32 -39 -76 -39q-30 0 -53 23q-22 27 -22 56q0 31 20 75q31 67 98 89q-41 21 -84 73q-66 -118 -159 -118q-87 0 -166 114l101 69q43 -60 67 -60q6 1 19 12.5t30 40.5q14 26 21 45.5t7.5 20.5t0.5 2h-256v123h685v-123h-22q-40 -175 -111 -207q77 -37 82 -114v-306zM487 403
q23 0 35 96h-135q60 -96 100 -96z" />
    <glyph glyph-name="s_tho_bn" horiz-adv-x="701" 
d="M598 -141l-3 2q-15 16 -78 60t-151 67q-69 8 -115 66l102 69q5 -7 25 -12q1 0 2 -1q4 -1 9 -1q13 -2 30 -2q16 0 36 2q39 5 59.5 12t29 14t9.5 13q1 2 1 7q0 6 -5 16q-12 23 -41 42q-11 -28 -35 -48q-33 -24 -72 -24q-35 0 -66 19q-48 37 -48 89q0 22 10 44q16 34 53 53
q-13 12 -25 27q-58 -104 -138 -116q-10 -2 -21 -2q-87 0 -166 114l101 69q25 -35 42 -47.5t24 -12.5h1q6 1 19 12.5t30 40.5q14 26 21 45.5t7 20.5l1 2h-256v123h721v-123h-18q-11 -31 -28 -69q-39 -78 -87 -116q53 -36 80 -84q20 -37 20 -75q0 -23 -7 -45
q-6 -21 -24.5 -45.5t-55.5 -44.5q42 -29 66 -49.5t27 -23.5zM487 403q23 0 66 79l8 17h-174q33 -53 58.5 -74.5t39.5 -21.5h2z" />
    <glyph glyph-name="s_no_bn" horiz-adv-x="687" 
d="M397 -125h-5q-47 2 -89 34q-45 34 -61 82q-7 16 -7 45q0 27 14.5 61.5t57.5 69.5q69 54 146 54q15 0 31 -2q20 -3 39 -9v75l-19 -4q-10 -1 -20 -1q-53 0 -104 39q-27 21 -54 54h-1q-57 -104 -138 -116q-10 -2 -21 -2q-87 0 -166 114l101 69q25 -35 42 -47.5t24 -12.5h1
q6 1 19 12.5t30 40.5q14 26 21.5 45.5t7.5 20.5v2h-256v123h707v-123h-4q-10 -31 -28 -69q-7 -15 -15 -28l-4 -8v-516h-123v196q-41 24 -71 24q-21 0 -38 -8t-30 -19q-26 -20 -26 -36l1 -7q26 14 58 14q29 0 56 -19q25 -19 25 -55q0 -16 -7 -33q-31 -60 -94 -60zM487 403
q24 0 66 79l2 4q4 7 6 13h-174q34 -53 59.5 -74.5t38.5 -21.5h2z" />
    <glyph glyph-name="s_pho_bn" horiz-adv-x="966" 
d="M755 -75h-123q0 26 -17 40q-39 32 -105.5 42.5t-100.5 10.5l-44 -1l-57 91l132 119l-72 64q-48 24 -80 69q-53 -99 -136 -105q-84 0 -152 117l107 62q29 -49 44 -55q4 3 13.5 15t21 37.5t17 44t6 20t1.5 3.5h-220v123h986v-123h-371q-31 -115 -89 -175l65 -57v-79
l-62 -56q56 -8 113 -33v310l69 17q31 5 69 5q76 0 122 -35q51 -37 51 -111v-109h-123v109q0 14 -4 14q-7 6 -20.5 8t-40.5 2v-384zM420 403q6 3 22 26t34 70h-130q21 -40 36.5 -60.5t25 -28t12.5 -7.5z" />
    <glyph glyph-name="s_bo_bn" horiz-adv-x="595" 
d="M554 -95h-123v24q-74 33 -197 33l-61 -3l-61 97l290 225q-36 4 -83 43q-16 15 -32 36q-52 -99 -136 -105q-83 0 -151 117l106 62q27 -44 44 -55q4 3 13.5 15t21.5 37.5t17.5 44t6 20t0.5 3.5h-219v123h615v-123h-10q-10 -66 -41 -124v-470zM419 403q24 12 46 96h-120
q21 -40 37 -60.5t25.5 -28t11.5 -7.5zM431 60v87l-90 -69q49 -6 90 -18z" />
    <glyph glyph-name="s_mo_bn" horiz-adv-x="817" 
d="M421 361q10 9 28 46q7 15 7 33q0 26 -14 59h-102q51 -121 81 -138zM653 261v238h-84q20 -25 20 -54q0 -16 -5 -32q-27 -82 -64 -125h8q57 0 125 -27zM776 -27h-123v152q-31 50 -101 50q-52 0 -81 -32q25 -4 46 -18q34 -24 34 -64q0 -36 -34 -64q-33 -24 -69 -24
q-25 0 -49 11q-81 41 -81 132q0 71 71 126q-54 15 -99 85q-49 -112 -124 -120l-13 -1q-86 0 -153 139l111 54q30 -57 41 -65q13 12 36 67q11 30 16 53l11 45h-225v123h663v16h123v-16h51v-123h-51v-526z" />
    <glyph glyph-name="s_ro_bn" horiz-adv-x="658" 
d="M616 -87h-122v38q-28 28 -70 28q-37 0 -75.5 -25t-85.5 -25q-40 0 -78 18q-54 29 -87 79t-41 97l128 20q3 -19 19 -43q28 -42 58 -42q23 0 58 25t104 25q39 0 69 -10v139q-6 -2 -32 -4q-79 0 -146 97q-54 -115 -135 -126l-15 -1q-91 0 -165 138l114 61q33 -57 51 -68
q12 6 42 70l24 73l5 22h-246v123h678v-123h-11q0 -58 -41 -140v-446zM462 363q27 7 60 136h-153q26 -56 45.5 -85t31.5 -40t16 -11z" />
    <glyph glyph-name="s_lo_bn" horiz-adv-x="658" 
d="M208 -120q-18 0 -38 7q-44 14 -65 49.5t-21 86.5q0 85 81 130q45 17 87 17q57 0 112 -53q43 40 102 40q13 0 27 -4v84q-6 -2 -32 -4q-79 0 -146 97q-54 -115 -135 -126l-15 -1q-91 0 -165 138l114 61q33 -57 51 -68q36 1 71 165h-246v123h678v-123h-11q0 -58 -41 -140
v-446h-123v116q-14 5 -25 5q-32 0 -48 -51q2 -17 2 -35h-103q0 65 -33 89q-14 10 -35 10q-17 0 -37 -7q50 -6 69 -40q10 -13 10 -36t-20 -53q-26 -31 -65 -31zM462 363q27 7 60 136h-153q26 -56 45.5 -85t31.5 -40t16 -11z" />
    <glyph glyph-name="h_ukar_bn" horiz-adv-x="501" 
d="M440 -83q-20 24 -92.5 56t-186.5 32h-14l-14 113l51 13q6 0 48 25t100 92q24 29 24 60l-2 17l-53 -52l-67 5q-17 39 -33.5 77.5t-34.5 38.5q-20 0 -20 -40q0 -16 4 -33q26 0 46 -16q45 -36 45 -75q0 -20 -6 -29q-14 -38 -65 -38q-71 0 -116 72q-31 55 -31 116
q0 104 75 148h-108v123h521v-123h-123q35 -39 48 -57q42 -62 42 -135t-51 -137q-33 -39 -63 -67q102 -27 170 -106zM295 441l58 58h-117q33 -18 59 -58z" />
    <glyph glyph-name="h_rikar_bn" horiz-adv-x="600" 
d="M345 -29q-5 6 -36.5 36.5t-82 65t-111.5 51.5q-79 16 -115 77l106 62q8 -11 25 -17l10 -2q15 -2 31 -2t32 2q58 9 78 23.5t21 28.5q2 7 2 15q0 41 -45 77q-9 -30 -32 -52q-35 -30 -77 -30q-37 0 -69 23q-45 40 -45 93q0 22 9 44q7 18 20 33h-76v123h620v-123h-293
q36 -25 62 -58q3 -3 4 -6l74 45h120v-350h-123v204l-26 -16v-9q0 -22 -6 -45q-12 -43 -38 -70t-57 -42q50 -37 79 -67t32 -34z" />
    <glyph glyph-name="h_nno_bn" horiz-adv-x="450" 
d="M185 -272q-33 0 -63 22q-37 28 -54 78q-10 29 -10 58q0 23 6 44q18 95 163 109l14 1q42 0 71 -26v37q-43 37 -104 69q-44 24 -94 35.5t-76 32t-38 40.5l104 65q6 -9 26 -15q32 -4 40 -4q15 0 34 3q96 13 100 53q0 13 -6.5 25t-15.5 22.5t-24 21.5q-10 -29 -33 -50
q-34 -26 -74 -26q-36 0 -68 21q-47 38 -47 91q0 27 21 64h-67v123h470v-123h-130q26 -19 46 -42q51 -61 51 -125q0 -23 -6 -45q-27 -74 -88 -100q80 -57 102 -87v-366h-123v116q0 19 -24 45q-21 22 -54 22q-46 0 -52 -22q71 -10 91 -69q2 -8 2 -17q0 -40 -37 -66
q-26 -15 -53 -15z" />
    <glyph glyph-name="h_no_bn" horiz-adv-x="689" 
d="M345 -29q-5 6 -36.5 36.5t-82 65t-111.5 51.5q-79 16 -115 77l106 62q8 -11 26 -17l9 -2q15 -2 31 -2t32 2q58 9 78 23.5t21 28.5q2 7 2 15q0 41 -45 77q-9 -30 -32 -52q-35 -30 -77 -30q-37 0 -69 23q-45 40 -45 93q0 23 9 44q7 18 20 33h-76v123h709v-123h-382
q36 -25 62 -58l8 -10l25 11q32 12 56.5 16t28.5 4l5 1l5 -1q82 -9 115 -45.5t38 -62.5q6 -21 6 -44q0 -29 -10 -58q-17 -51 -54 -79q-31 -21 -63 -21q-28 0 -53 15q-20 14 -28.5 31.5t-8.5 34.5q0 9 2 17q11 33 38 49t53 19v1q-6 17 -39 20q-28 -4 -50.5 -13.5t-24.5 -18.5
q0 -21 -6 -43q-12 -43 -38 -70t-57 -42q50 -37 79 -67t32 -34z" />
    <glyph glyph-name="h_mo_bn" horiz-adv-x="760" 
d="M719 40h-123v282q-19 -7 -42 -12v-310h-123v72q-17 16 -41.5 33t-52.5 28q-15 -30 -36 -45q-29 -22 -61 -22l-14 1q-39 8 -62 45q-17 29 -17 59q0 32 20 58q9 13 27 25l-3 7l-13 26q-3 8 -7 14q-21 -21 -49 -27q-9 -2 -18 -2q-37 0 -63 31q-6 6 -12 19.5t-6 33.5
q0 24 14 55q17 32 43 47q-1 1 -2 3q-3 7 -9 13q-14 16 -27 25h-52v123h780v-123h-216v-61l19 11l26 17l120 -45v-381zM431 224v91q-104 31 -201 107q50 -53 72 -107l23 -51q16 -4 34 -9q39 -12 72 -31zM431 444v55h-98q48 -35 98 -55z" />
    <glyph glyph-name="h_ro_bn" horiz-adv-x="450" 
d="M435 110v-230h-123v33q-8 8 -26 8q-21 0 -47 -14q-36 -20 -72 -20q-30 0 -60 15q-41 21 -65.5 58.5t-30.5 72.5l122 19q1 -8 6 -25t28 -17q5 0 13 5q60 29 105 29q14 0 27 -2v19q-43 27 -104 59q-44 24 -94 36l-3 1q-47 10 -73 30.5t-38 40.5l104 65q6 -9 26 -15l8 -1
q14 -3 32 -3q15 0 34 3q89 12 99 44l1 9q0 13 -6.5 25t-14.5 21q-10 12 -25 23q-10 -29 -33 -50q-34 -26 -74 -26q-36 0 -68 21q-47 38 -47 91q0 22 9 43l12 21h-67v123h470v-123h-130q26 -19 46 -42q51 -61 51 -125q0 -23 -6 -45q-27 -74 -88 -100q52 -32 75.5 -52.5
t26.5 -24.5z" />
    </font>
</defs>
</svg>
